M48
;DRILL file {KiCad 5.0.2-bee76a0~70~ubuntu18.10.1} date Tue 02 Jul 2019 09:20:36 AM EDT
;FORMAT={-:-/ absolute / inch / decimal}
FMAT,2
INCH,TZ
T1C0.0157
T2C0.0394
T3C0.0400
T4C0.0433
T5C0.1063
%
G90
G05
T1
X4.9421Y-4.5929
X5.0135Y-4.3518
X5.4992Y-3.8429
X5.838Y-3.8607
X5.8714Y-3.8429
X5.9377Y-3.9028
X5.9698Y-3.8846
X5.9906Y-3.383
X6.0049Y-3.8844
X6.0101Y-3.3564
X6.0497Y-3.8762
X6.28Y-3.5484
X6.3068Y-3.3175
X6.33Y-3.6783
X6.3436Y-3.4501
X6.3436Y-3.7141
X6.4258Y-3.0257
X6.5232Y-3.5521
X6.5582Y-3.5525
T2
X7.3332Y-3.0846
X7.3332Y-3.1846
X7.3332Y-3.2846
X7.3332Y-3.3846
X7.3332Y-3.4846
X7.3332Y-3.5846
X7.3332Y-3.6846
X7.3332Y-3.7846
X5.7984Y-4.6564
X5.8984Y-4.6564
X5.9984Y-4.6564
X6.0984Y-4.6564
X6.8314Y-3.9586
X6.8314Y-4.0586
X5.2598Y-3.6006
X5.2598Y-3.7006
X5.2598Y-3.8006
X5.2598Y-3.9006
X5.2598Y-4.0006
X5.2598Y-4.1006
X5.2598Y-4.2006
X7.338Y-4.1698
X7.338Y-4.2698
X7.338Y-4.3698
X7.338Y-4.4698
X7.338Y-4.5698
X7.338Y-4.6698
X7.338Y-4.7698
X7.338Y-4.8698
X5.2412Y-2.721
X5.3412Y-2.721
X5.4412Y-2.721
X5.5412Y-2.721
X5.6412Y-2.721
X5.7412Y-2.721
T3
X5.3288Y-5.0722
X5.3288Y-5.1722
X5.4288Y-5.0722
X5.4288Y-5.1722
X5.5288Y-5.0722
X5.5288Y-5.1722
X5.6288Y-5.0722
X5.6288Y-5.1722
X5.7288Y-5.0722
X5.7288Y-5.1722
T4
X6.762Y-5.1794
X6.862Y-5.1794
X6.962Y-5.1794
X6.2574Y-5.1722
X6.3574Y-5.1722
X6.4574Y-5.1722
T5
X7.315Y-5.1174
X4.9538Y-5.1158
X4.9524Y-2.8336
X7.3144Y-2.8342
T0
M30
