G04 #@! TF.GenerationSoftware,KiCad,Pcbnew,5.0.2-bee76a0~70~ubuntu18.10.1*
G04 #@! TF.CreationDate,2019-07-18T11:33:01-04:00*
G04 #@! TF.ProjectId,Bonaire,426f6e61-6972-4652-9e6b-696361645f70,rev?*
G04 #@! TF.SameCoordinates,Original*
G04 #@! TF.FileFunction,Soldermask,Bot*
G04 #@! TF.FilePolarity,Negative*
%FSLAX46Y46*%
G04 Gerber Fmt 4.6, Leading zero omitted, Abs format (unit mm)*
G04 Created by KiCad (PCBNEW 5.0.2-bee76a0~70~ubuntu18.10.1) date Thu 18 Jul 2019 11:33:01 AM EDT*
%MOMM*%
%LPD*%
G01*
G04 APERTURE LIST*
%ADD10C,0.100000*%
G04 APERTURE END LIST*
D10*
G36*
X177060928Y-130373676D02*
X177169552Y-130406627D01*
X177278176Y-130439577D01*
X177301638Y-130452118D01*
X177478392Y-130546595D01*
X177536889Y-130594602D01*
X177653887Y-130690619D01*
X177797904Y-130866105D01*
X177904923Y-131066323D01*
X177926009Y-131135836D01*
X177970824Y-131283571D01*
X177974297Y-131318836D01*
X177987500Y-131452884D01*
X177987500Y-131661115D01*
X177982969Y-131707117D01*
X177970824Y-131830428D01*
X177937873Y-131939052D01*
X177904923Y-132047676D01*
X177861070Y-132129718D01*
X177797905Y-132247892D01*
X177785809Y-132262631D01*
X177653881Y-132423387D01*
X177478395Y-132567404D01*
X177278177Y-132674423D01*
X177169552Y-132707374D01*
X177060929Y-132740324D01*
X176835000Y-132762576D01*
X176609072Y-132740324D01*
X176500448Y-132707373D01*
X176391824Y-132674423D01*
X176191606Y-132567404D01*
X176016117Y-132423384D01*
X175884190Y-132262631D01*
X175872095Y-132247893D01*
X175774280Y-132064894D01*
X175765077Y-132047677D01*
X175709565Y-131864676D01*
X175699176Y-131830429D01*
X175689398Y-131731151D01*
X175684617Y-131707117D01*
X175675240Y-131684478D01*
X175661626Y-131664104D01*
X175644299Y-131646777D01*
X175623924Y-131633163D01*
X175601285Y-131623785D01*
X175577252Y-131619005D01*
X175552748Y-131619005D01*
X175528714Y-131623786D01*
X175506075Y-131633163D01*
X175485701Y-131646777D01*
X175468374Y-131664104D01*
X175454760Y-131684479D01*
X175445382Y-131707118D01*
X175440602Y-131731151D01*
X175430824Y-131830428D01*
X175397873Y-131939052D01*
X175364923Y-132047676D01*
X175321070Y-132129718D01*
X175257905Y-132247892D01*
X175245809Y-132262631D01*
X175113881Y-132423387D01*
X174938395Y-132567404D01*
X174738177Y-132674423D01*
X174629552Y-132707374D01*
X174520929Y-132740324D01*
X174295000Y-132762576D01*
X174069072Y-132740324D01*
X173960448Y-132707373D01*
X173851824Y-132674423D01*
X173651606Y-132567404D01*
X173476117Y-132423384D01*
X173344190Y-132262631D01*
X173332095Y-132247893D01*
X173234280Y-132064894D01*
X173225077Y-132047677D01*
X173169565Y-131864676D01*
X173159176Y-131830429D01*
X173156898Y-131807298D01*
X173152117Y-131783265D01*
X173142740Y-131760626D01*
X173129126Y-131740252D01*
X173111799Y-131722925D01*
X173091424Y-131709311D01*
X173068785Y-131699933D01*
X173044752Y-131695153D01*
X173020248Y-131695153D01*
X172996214Y-131699934D01*
X172973575Y-131709311D01*
X172953201Y-131722925D01*
X172935874Y-131740252D01*
X172922260Y-131760627D01*
X172912882Y-131783266D01*
X172907500Y-131819551D01*
X172907500Y-132757000D01*
X170602500Y-132757000D01*
X170602500Y-130357000D01*
X172907500Y-130357000D01*
X172907500Y-131294450D01*
X172909902Y-131318836D01*
X172917015Y-131342285D01*
X172928566Y-131363896D01*
X172944112Y-131382838D01*
X172963054Y-131398384D01*
X172984665Y-131409935D01*
X173008114Y-131417048D01*
X173032500Y-131419450D01*
X173056886Y-131417048D01*
X173080335Y-131409935D01*
X173101946Y-131398384D01*
X173120888Y-131382838D01*
X173136434Y-131363896D01*
X173147985Y-131342285D01*
X173156898Y-131306702D01*
X173159176Y-131283573D01*
X173159177Y-131283571D01*
X173207672Y-131123702D01*
X173225077Y-131066324D01*
X173332094Y-130866110D01*
X173332095Y-130866108D01*
X173380102Y-130807611D01*
X173476119Y-130690613D01*
X173651605Y-130546596D01*
X173851823Y-130439577D01*
X173960447Y-130406627D01*
X174069071Y-130373676D01*
X174295000Y-130351424D01*
X174520928Y-130373676D01*
X174629552Y-130406627D01*
X174738176Y-130439577D01*
X174761638Y-130452118D01*
X174938392Y-130546595D01*
X174996889Y-130594602D01*
X175113887Y-130690619D01*
X175257904Y-130866105D01*
X175364923Y-131066323D01*
X175386009Y-131135836D01*
X175430824Y-131283571D01*
X175434297Y-131318836D01*
X175440602Y-131382849D01*
X175445383Y-131406883D01*
X175454760Y-131429522D01*
X175468374Y-131449896D01*
X175485701Y-131467223D01*
X175506076Y-131480837D01*
X175528715Y-131490215D01*
X175552748Y-131494995D01*
X175577252Y-131494995D01*
X175601286Y-131490214D01*
X175623925Y-131480837D01*
X175644299Y-131467223D01*
X175661626Y-131449896D01*
X175675240Y-131429521D01*
X175684618Y-131406882D01*
X175689398Y-131382849D01*
X175696847Y-131307215D01*
X175699176Y-131283572D01*
X175747672Y-131123702D01*
X175765077Y-131066324D01*
X175872094Y-130866110D01*
X175872095Y-130866108D01*
X175920102Y-130807611D01*
X176016119Y-130690613D01*
X176191605Y-130546596D01*
X176391823Y-130439577D01*
X176500447Y-130406627D01*
X176609071Y-130373676D01*
X176835000Y-130351424D01*
X177060928Y-130373676D01*
X177060928Y-130373676D01*
G37*
G36*
X164243928Y-130190676D02*
X164352552Y-130223627D01*
X164461176Y-130256577D01*
X164561871Y-130310400D01*
X164661392Y-130363595D01*
X164689432Y-130386607D01*
X164836887Y-130507619D01*
X164980904Y-130683105D01*
X165087923Y-130883323D01*
X165112702Y-130965009D01*
X165143436Y-131066325D01*
X165153824Y-131100572D01*
X165170500Y-131269884D01*
X165170500Y-131478115D01*
X165165969Y-131524117D01*
X165153824Y-131647428D01*
X165135717Y-131707118D01*
X165087923Y-131864676D01*
X165032821Y-131967764D01*
X164980905Y-132064892D01*
X164980904Y-132064893D01*
X164836881Y-132240387D01*
X164661395Y-132384404D01*
X164461177Y-132491423D01*
X164352552Y-132524374D01*
X164243929Y-132557324D01*
X164018000Y-132579576D01*
X163792072Y-132557324D01*
X163683449Y-132524374D01*
X163574824Y-132491423D01*
X163374606Y-132384404D01*
X163199117Y-132240384D01*
X163055096Y-132064894D01*
X163055095Y-132064892D01*
X163003178Y-131967763D01*
X162948077Y-131864677D01*
X162915127Y-131756053D01*
X162882176Y-131647429D01*
X162872398Y-131548151D01*
X162867617Y-131524117D01*
X162858240Y-131501478D01*
X162844626Y-131481104D01*
X162827299Y-131463777D01*
X162806924Y-131450163D01*
X162784285Y-131440785D01*
X162760252Y-131436005D01*
X162735748Y-131436005D01*
X162711714Y-131440786D01*
X162689075Y-131450163D01*
X162668701Y-131463777D01*
X162651374Y-131481104D01*
X162637760Y-131501479D01*
X162628382Y-131524118D01*
X162623602Y-131548151D01*
X162613824Y-131647428D01*
X162595717Y-131707118D01*
X162547923Y-131864676D01*
X162492821Y-131967764D01*
X162440905Y-132064892D01*
X162440904Y-132064893D01*
X162296881Y-132240387D01*
X162121395Y-132384404D01*
X161921177Y-132491423D01*
X161812552Y-132524374D01*
X161703929Y-132557324D01*
X161478000Y-132579576D01*
X161252072Y-132557324D01*
X161143449Y-132524374D01*
X161034824Y-132491423D01*
X160834606Y-132384404D01*
X160659117Y-132240384D01*
X160515096Y-132064894D01*
X160515095Y-132064892D01*
X160463178Y-131967763D01*
X160408077Y-131864677D01*
X160375127Y-131756053D01*
X160342176Y-131647429D01*
X160339898Y-131624298D01*
X160335117Y-131600265D01*
X160325740Y-131577626D01*
X160312126Y-131557252D01*
X160294799Y-131539925D01*
X160274424Y-131526311D01*
X160251785Y-131516933D01*
X160227752Y-131512153D01*
X160203248Y-131512153D01*
X160179214Y-131516934D01*
X160156575Y-131526311D01*
X160136201Y-131539925D01*
X160118874Y-131557252D01*
X160105260Y-131577627D01*
X160095882Y-131600266D01*
X160090500Y-131636551D01*
X160090500Y-132574000D01*
X157785500Y-132574000D01*
X157785500Y-130174000D01*
X160090500Y-130174000D01*
X160090500Y-131111450D01*
X160092902Y-131135836D01*
X160100015Y-131159285D01*
X160111566Y-131180896D01*
X160127112Y-131199838D01*
X160146054Y-131215384D01*
X160167665Y-131226935D01*
X160191114Y-131234048D01*
X160215500Y-131236450D01*
X160239886Y-131234048D01*
X160263335Y-131226935D01*
X160284946Y-131215384D01*
X160303888Y-131199838D01*
X160319434Y-131180896D01*
X160330985Y-131159285D01*
X160339898Y-131123702D01*
X160342176Y-131100573D01*
X160342177Y-131100571D01*
X160408077Y-130883325D01*
X160408077Y-130883324D01*
X160515094Y-130683110D01*
X160515095Y-130683108D01*
X160568296Y-130618282D01*
X160659119Y-130507613D01*
X160834605Y-130363596D01*
X161034823Y-130256577D01*
X161143448Y-130223626D01*
X161252071Y-130190676D01*
X161478000Y-130168424D01*
X161703928Y-130190676D01*
X161812552Y-130223627D01*
X161921176Y-130256577D01*
X162021871Y-130310400D01*
X162121392Y-130363595D01*
X162149432Y-130386607D01*
X162296887Y-130507619D01*
X162440904Y-130683105D01*
X162547923Y-130883323D01*
X162572702Y-130965009D01*
X162603436Y-131066325D01*
X162613824Y-131100572D01*
X162623602Y-131199849D01*
X162628383Y-131223883D01*
X162637760Y-131246522D01*
X162651374Y-131266896D01*
X162668701Y-131284223D01*
X162689076Y-131297837D01*
X162711715Y-131307215D01*
X162735748Y-131311995D01*
X162760252Y-131311995D01*
X162784286Y-131307214D01*
X162806925Y-131297837D01*
X162827299Y-131284223D01*
X162844626Y-131266896D01*
X162858240Y-131246521D01*
X162867618Y-131223882D01*
X162872398Y-131199849D01*
X162882176Y-131100573D01*
X162882177Y-131100571D01*
X162948077Y-130883325D01*
X162948077Y-130883324D01*
X163055094Y-130683110D01*
X163055095Y-130683108D01*
X163108296Y-130618282D01*
X163199119Y-130507613D01*
X163374605Y-130363596D01*
X163574823Y-130256577D01*
X163683448Y-130223626D01*
X163792071Y-130190676D01*
X164018000Y-130168424D01*
X164243928Y-130190676D01*
X164243928Y-130190676D01*
G37*
G36*
X136415600Y-132437600D02*
X134288400Y-132437600D01*
X134288400Y-130310400D01*
X136415600Y-130310400D01*
X136415600Y-132437600D01*
X136415600Y-132437600D01*
G37*
G36*
X138100503Y-130325789D02*
X138300991Y-130386607D01*
X138485764Y-130485369D01*
X138647718Y-130618282D01*
X138780631Y-130780236D01*
X138879393Y-130965009D01*
X138940211Y-131165497D01*
X138960746Y-131374000D01*
X138940211Y-131582503D01*
X138879393Y-131782991D01*
X138780631Y-131967764D01*
X138647718Y-132129718D01*
X138485764Y-132262631D01*
X138300991Y-132361393D01*
X138100503Y-132422211D01*
X137944251Y-132437600D01*
X137839749Y-132437600D01*
X137683497Y-132422211D01*
X137483009Y-132361393D01*
X137298236Y-132262631D01*
X137136282Y-132129718D01*
X137003369Y-131967764D01*
X136904607Y-131782991D01*
X136843789Y-131582503D01*
X136823254Y-131374000D01*
X136843789Y-131165497D01*
X136904607Y-130965009D01*
X137003369Y-130780236D01*
X137136282Y-130618282D01*
X137298236Y-130485369D01*
X137483009Y-130386607D01*
X137683497Y-130325789D01*
X137839749Y-130310400D01*
X137944251Y-130310400D01*
X138100503Y-130325789D01*
X138100503Y-130325789D01*
G37*
G36*
X145720503Y-130325789D02*
X145920991Y-130386607D01*
X146105764Y-130485369D01*
X146267718Y-130618282D01*
X146400631Y-130780236D01*
X146499393Y-130965009D01*
X146560211Y-131165497D01*
X146580746Y-131374000D01*
X146560211Y-131582503D01*
X146499393Y-131782991D01*
X146400631Y-131967764D01*
X146267718Y-132129718D01*
X146105764Y-132262631D01*
X145920991Y-132361393D01*
X145720503Y-132422211D01*
X145564251Y-132437600D01*
X145459749Y-132437600D01*
X145303497Y-132422211D01*
X145103009Y-132361393D01*
X144918236Y-132262631D01*
X144756282Y-132129718D01*
X144623369Y-131967764D01*
X144524607Y-131782991D01*
X144463789Y-131582503D01*
X144443254Y-131374000D01*
X144463789Y-131165497D01*
X144524607Y-130965009D01*
X144623369Y-130780236D01*
X144756282Y-130618282D01*
X144918236Y-130485369D01*
X145103009Y-130386607D01*
X145303497Y-130325789D01*
X145459749Y-130310400D01*
X145564251Y-130310400D01*
X145720503Y-130325789D01*
X145720503Y-130325789D01*
G37*
G36*
X143180503Y-130325789D02*
X143380991Y-130386607D01*
X143565764Y-130485369D01*
X143727718Y-130618282D01*
X143860631Y-130780236D01*
X143959393Y-130965009D01*
X144020211Y-131165497D01*
X144040746Y-131374000D01*
X144020211Y-131582503D01*
X143959393Y-131782991D01*
X143860631Y-131967764D01*
X143727718Y-132129718D01*
X143565764Y-132262631D01*
X143380991Y-132361393D01*
X143180503Y-132422211D01*
X143024251Y-132437600D01*
X142919749Y-132437600D01*
X142763497Y-132422211D01*
X142563009Y-132361393D01*
X142378236Y-132262631D01*
X142216282Y-132129718D01*
X142083369Y-131967764D01*
X141984607Y-131782991D01*
X141923789Y-131582503D01*
X141903254Y-131374000D01*
X141923789Y-131165497D01*
X141984607Y-130965009D01*
X142083369Y-130780236D01*
X142216282Y-130618282D01*
X142378236Y-130485369D01*
X142563009Y-130386607D01*
X142763497Y-130325789D01*
X142919749Y-130310400D01*
X143024251Y-130310400D01*
X143180503Y-130325789D01*
X143180503Y-130325789D01*
G37*
G36*
X140640503Y-130325789D02*
X140840991Y-130386607D01*
X141025764Y-130485369D01*
X141187718Y-130618282D01*
X141320631Y-130780236D01*
X141419393Y-130965009D01*
X141480211Y-131165497D01*
X141500746Y-131374000D01*
X141480211Y-131582503D01*
X141419393Y-131782991D01*
X141320631Y-131967764D01*
X141187718Y-132129718D01*
X141025764Y-132262631D01*
X140840991Y-132361393D01*
X140640503Y-132422211D01*
X140484251Y-132437600D01*
X140379749Y-132437600D01*
X140223497Y-132422211D01*
X140023009Y-132361393D01*
X139838236Y-132262631D01*
X139676282Y-132129718D01*
X139543369Y-131967764D01*
X139444607Y-131782991D01*
X139383789Y-131582503D01*
X139363254Y-131374000D01*
X139383789Y-131165497D01*
X139444607Y-130965009D01*
X139543369Y-130780236D01*
X139676282Y-130618282D01*
X139838236Y-130485369D01*
X140023009Y-130386607D01*
X140223497Y-130325789D01*
X140379749Y-130310400D01*
X140484251Y-130310400D01*
X140640503Y-130325789D01*
X140640503Y-130325789D01*
G37*
G36*
X125252481Y-128469855D02*
X125452118Y-128509565D01*
X125640173Y-128587460D01*
X125734201Y-128626408D01*
X125988071Y-128796038D01*
X126203962Y-129011929D01*
X126373592Y-129265799D01*
X126373592Y-129265800D01*
X126490435Y-129547882D01*
X126550000Y-129847338D01*
X126550000Y-130152662D01*
X126490435Y-130452118D01*
X126421607Y-130618282D01*
X126373592Y-130734201D01*
X126203962Y-130988071D01*
X125988071Y-131203962D01*
X125734201Y-131373592D01*
X125653829Y-131406883D01*
X125452118Y-131490435D01*
X125252481Y-131530145D01*
X125152663Y-131550000D01*
X124847337Y-131550000D01*
X124747519Y-131530145D01*
X124547882Y-131490435D01*
X124346171Y-131406883D01*
X124265799Y-131373592D01*
X124011929Y-131203962D01*
X123796038Y-130988071D01*
X123626408Y-130734201D01*
X123578393Y-130618282D01*
X123509565Y-130452118D01*
X123450000Y-130152662D01*
X123450000Y-129847338D01*
X123509565Y-129547882D01*
X123626408Y-129265800D01*
X123626408Y-129265799D01*
X123796038Y-129011929D01*
X124011929Y-128796038D01*
X124265799Y-128626408D01*
X124359827Y-128587460D01*
X124547882Y-128509565D01*
X124747519Y-128469855D01*
X124847337Y-128450000D01*
X125152663Y-128450000D01*
X125252481Y-128469855D01*
X125252481Y-128469855D01*
G37*
G36*
X186002481Y-128469855D02*
X186202118Y-128509565D01*
X186390173Y-128587460D01*
X186484201Y-128626408D01*
X186738071Y-128796038D01*
X186953962Y-129011929D01*
X187123592Y-129265799D01*
X187123592Y-129265800D01*
X187240435Y-129547882D01*
X187300000Y-129847338D01*
X187300000Y-130152662D01*
X187240435Y-130452118D01*
X187171607Y-130618282D01*
X187123592Y-130734201D01*
X186953962Y-130988071D01*
X186738071Y-131203962D01*
X186484201Y-131373592D01*
X186403829Y-131406883D01*
X186202118Y-131490435D01*
X186002481Y-131530145D01*
X185902663Y-131550000D01*
X185597337Y-131550000D01*
X185497519Y-131530145D01*
X185297882Y-131490435D01*
X185096171Y-131406883D01*
X185015799Y-131373592D01*
X184761929Y-131203962D01*
X184546038Y-130988071D01*
X184376408Y-130734201D01*
X184328393Y-130618282D01*
X184259565Y-130452118D01*
X184200000Y-130152662D01*
X184200000Y-129847338D01*
X184259565Y-129547882D01*
X184376408Y-129265800D01*
X184376408Y-129265799D01*
X184546038Y-129011929D01*
X184761929Y-128796038D01*
X185015799Y-128626408D01*
X185109827Y-128587460D01*
X185297882Y-128509565D01*
X185497519Y-128469855D01*
X185597337Y-128450000D01*
X185902663Y-128450000D01*
X186002481Y-128469855D01*
X186002481Y-128469855D01*
G37*
G36*
X145720503Y-127785789D02*
X145920991Y-127846607D01*
X146105764Y-127945369D01*
X146267718Y-128078282D01*
X146400631Y-128240236D01*
X146499393Y-128425009D01*
X146560211Y-128625497D01*
X146580746Y-128834000D01*
X146560211Y-129042503D01*
X146499393Y-129242991D01*
X146400631Y-129427764D01*
X146267718Y-129589718D01*
X146105764Y-129722631D01*
X145920991Y-129821393D01*
X145720503Y-129882211D01*
X145564251Y-129897600D01*
X145459749Y-129897600D01*
X145303497Y-129882211D01*
X145103009Y-129821393D01*
X144918236Y-129722631D01*
X144756282Y-129589718D01*
X144623369Y-129427764D01*
X144524607Y-129242991D01*
X144463789Y-129042503D01*
X144443254Y-128834000D01*
X144463789Y-128625497D01*
X144524607Y-128425009D01*
X144623369Y-128240236D01*
X144756282Y-128078282D01*
X144918236Y-127945369D01*
X145103009Y-127846607D01*
X145303497Y-127785789D01*
X145459749Y-127770400D01*
X145564251Y-127770400D01*
X145720503Y-127785789D01*
X145720503Y-127785789D01*
G37*
G36*
X143180503Y-127785789D02*
X143380991Y-127846607D01*
X143565764Y-127945369D01*
X143727718Y-128078282D01*
X143860631Y-128240236D01*
X143959393Y-128425009D01*
X144020211Y-128625497D01*
X144040746Y-128834000D01*
X144020211Y-129042503D01*
X143959393Y-129242991D01*
X143860631Y-129427764D01*
X143727718Y-129589718D01*
X143565764Y-129722631D01*
X143380991Y-129821393D01*
X143180503Y-129882211D01*
X143024251Y-129897600D01*
X142919749Y-129897600D01*
X142763497Y-129882211D01*
X142563009Y-129821393D01*
X142378236Y-129722631D01*
X142216282Y-129589718D01*
X142083369Y-129427764D01*
X141984607Y-129242991D01*
X141923789Y-129042503D01*
X141903254Y-128834000D01*
X141923789Y-128625497D01*
X141984607Y-128425009D01*
X142083369Y-128240236D01*
X142216282Y-128078282D01*
X142378236Y-127945369D01*
X142563009Y-127846607D01*
X142763497Y-127785789D01*
X142919749Y-127770400D01*
X143024251Y-127770400D01*
X143180503Y-127785789D01*
X143180503Y-127785789D01*
G37*
G36*
X135560503Y-127785789D02*
X135760991Y-127846607D01*
X135945764Y-127945369D01*
X136107718Y-128078282D01*
X136240631Y-128240236D01*
X136339393Y-128425009D01*
X136400211Y-128625497D01*
X136420746Y-128834000D01*
X136400211Y-129042503D01*
X136339393Y-129242991D01*
X136240631Y-129427764D01*
X136107718Y-129589718D01*
X135945764Y-129722631D01*
X135760991Y-129821393D01*
X135560503Y-129882211D01*
X135404251Y-129897600D01*
X135299749Y-129897600D01*
X135143497Y-129882211D01*
X134943009Y-129821393D01*
X134758236Y-129722631D01*
X134596282Y-129589718D01*
X134463369Y-129427764D01*
X134364607Y-129242991D01*
X134303789Y-129042503D01*
X134283254Y-128834000D01*
X134303789Y-128625497D01*
X134364607Y-128425009D01*
X134463369Y-128240236D01*
X134596282Y-128078282D01*
X134758236Y-127945369D01*
X134943009Y-127846607D01*
X135143497Y-127785789D01*
X135299749Y-127770400D01*
X135404251Y-127770400D01*
X135560503Y-127785789D01*
X135560503Y-127785789D01*
G37*
G36*
X140640503Y-127785789D02*
X140840991Y-127846607D01*
X141025764Y-127945369D01*
X141187718Y-128078282D01*
X141320631Y-128240236D01*
X141419393Y-128425009D01*
X141480211Y-128625497D01*
X141500746Y-128834000D01*
X141480211Y-129042503D01*
X141419393Y-129242991D01*
X141320631Y-129427764D01*
X141187718Y-129589718D01*
X141025764Y-129722631D01*
X140840991Y-129821393D01*
X140640503Y-129882211D01*
X140484251Y-129897600D01*
X140379749Y-129897600D01*
X140223497Y-129882211D01*
X140023009Y-129821393D01*
X139838236Y-129722631D01*
X139676282Y-129589718D01*
X139543369Y-129427764D01*
X139444607Y-129242991D01*
X139383789Y-129042503D01*
X139363254Y-128834000D01*
X139383789Y-128625497D01*
X139444607Y-128425009D01*
X139543369Y-128240236D01*
X139676282Y-128078282D01*
X139838236Y-127945369D01*
X140023009Y-127846607D01*
X140223497Y-127785789D01*
X140379749Y-127770400D01*
X140484251Y-127770400D01*
X140640503Y-127785789D01*
X140640503Y-127785789D01*
G37*
G36*
X138100503Y-127785789D02*
X138300991Y-127846607D01*
X138485764Y-127945369D01*
X138647718Y-128078282D01*
X138780631Y-128240236D01*
X138879393Y-128425009D01*
X138940211Y-128625497D01*
X138960746Y-128834000D01*
X138940211Y-129042503D01*
X138879393Y-129242991D01*
X138780631Y-129427764D01*
X138647718Y-129589718D01*
X138485764Y-129722631D01*
X138300991Y-129821393D01*
X138100503Y-129882211D01*
X137944251Y-129897600D01*
X137839749Y-129897600D01*
X137683497Y-129882211D01*
X137483009Y-129821393D01*
X137298236Y-129722631D01*
X137136282Y-129589718D01*
X137003369Y-129427764D01*
X136904607Y-129242991D01*
X136843789Y-129042503D01*
X136823254Y-128834000D01*
X136843789Y-128625497D01*
X136904607Y-128425009D01*
X137003369Y-128240236D01*
X137136282Y-128078282D01*
X137298236Y-127945369D01*
X137483009Y-127846607D01*
X137683497Y-127785789D01*
X137839749Y-127770400D01*
X137944251Y-127770400D01*
X138100503Y-127785789D01*
X138100503Y-127785789D01*
G37*
G36*
X149947707Y-117230597D02*
X150024836Y-117238193D01*
X150156787Y-117278220D01*
X150222763Y-117298233D01*
X150405172Y-117395733D01*
X150565054Y-117526946D01*
X150696267Y-117686828D01*
X150793767Y-117869237D01*
X150793767Y-117869238D01*
X150853807Y-118067164D01*
X150874080Y-118273000D01*
X150853807Y-118478836D01*
X150813780Y-118610787D01*
X150793767Y-118676763D01*
X150696267Y-118859172D01*
X150565054Y-119019054D01*
X150405172Y-119150267D01*
X150222763Y-119247767D01*
X150156787Y-119267780D01*
X150024836Y-119307807D01*
X149947707Y-119315404D01*
X149870580Y-119323000D01*
X149767420Y-119323000D01*
X149690293Y-119315404D01*
X149613164Y-119307807D01*
X149481213Y-119267780D01*
X149415237Y-119247767D01*
X149232828Y-119150267D01*
X149072946Y-119019054D01*
X148941733Y-118859172D01*
X148844233Y-118676763D01*
X148824220Y-118610787D01*
X148784193Y-118478836D01*
X148763920Y-118273000D01*
X148784193Y-118067164D01*
X148844233Y-117869238D01*
X148844233Y-117869237D01*
X148941733Y-117686828D01*
X149072946Y-117526946D01*
X149232828Y-117395733D01*
X149415237Y-117298233D01*
X149481213Y-117278220D01*
X149613164Y-117238193D01*
X149690293Y-117230597D01*
X149767420Y-117223000D01*
X149870580Y-117223000D01*
X149947707Y-117230597D01*
X149947707Y-117230597D01*
G37*
G36*
X148329000Y-119323000D02*
X146229000Y-119323000D01*
X146229000Y-117223000D01*
X148329000Y-117223000D01*
X148329000Y-119323000D01*
X148329000Y-119323000D01*
G37*
G36*
X152487707Y-117230597D02*
X152564836Y-117238193D01*
X152696787Y-117278220D01*
X152762763Y-117298233D01*
X152945172Y-117395733D01*
X153105054Y-117526946D01*
X153236267Y-117686828D01*
X153333767Y-117869237D01*
X153333767Y-117869238D01*
X153393807Y-118067164D01*
X153414080Y-118273000D01*
X153393807Y-118478836D01*
X153353780Y-118610787D01*
X153333767Y-118676763D01*
X153236267Y-118859172D01*
X153105054Y-119019054D01*
X152945172Y-119150267D01*
X152762763Y-119247767D01*
X152696787Y-119267780D01*
X152564836Y-119307807D01*
X152487707Y-119315404D01*
X152410580Y-119323000D01*
X152307420Y-119323000D01*
X152230293Y-119315404D01*
X152153164Y-119307807D01*
X152021213Y-119267780D01*
X151955237Y-119247767D01*
X151772828Y-119150267D01*
X151612946Y-119019054D01*
X151481733Y-118859172D01*
X151384233Y-118676763D01*
X151364220Y-118610787D01*
X151324193Y-118478836D01*
X151303920Y-118273000D01*
X151324193Y-118067164D01*
X151384233Y-117869238D01*
X151384233Y-117869237D01*
X151481733Y-117686828D01*
X151612946Y-117526946D01*
X151772828Y-117395733D01*
X151955237Y-117298233D01*
X152021213Y-117278220D01*
X152153164Y-117238193D01*
X152230293Y-117230597D01*
X152307420Y-117223000D01*
X152410580Y-117223000D01*
X152487707Y-117230597D01*
X152487707Y-117230597D01*
G37*
G36*
X155027707Y-117230597D02*
X155104836Y-117238193D01*
X155236787Y-117278220D01*
X155302763Y-117298233D01*
X155485172Y-117395733D01*
X155645054Y-117526946D01*
X155776267Y-117686828D01*
X155873767Y-117869237D01*
X155873767Y-117869238D01*
X155933807Y-118067164D01*
X155954080Y-118273000D01*
X155933807Y-118478836D01*
X155893780Y-118610787D01*
X155873767Y-118676763D01*
X155776267Y-118859172D01*
X155645054Y-119019054D01*
X155485172Y-119150267D01*
X155302763Y-119247767D01*
X155236787Y-119267780D01*
X155104836Y-119307807D01*
X155027707Y-119315404D01*
X154950580Y-119323000D01*
X154847420Y-119323000D01*
X154770293Y-119315404D01*
X154693164Y-119307807D01*
X154561213Y-119267780D01*
X154495237Y-119247767D01*
X154312828Y-119150267D01*
X154152946Y-119019054D01*
X154021733Y-118859172D01*
X153924233Y-118676763D01*
X153904220Y-118610787D01*
X153864193Y-118478836D01*
X153843920Y-118273000D01*
X153864193Y-118067164D01*
X153924233Y-117869238D01*
X153924233Y-117869237D01*
X154021733Y-117686828D01*
X154152946Y-117526946D01*
X154312828Y-117395733D01*
X154495237Y-117298233D01*
X154561213Y-117278220D01*
X154693164Y-117238193D01*
X154770293Y-117230597D01*
X154847420Y-117223000D01*
X154950580Y-117223000D01*
X155027707Y-117230597D01*
X155027707Y-117230597D01*
G37*
G36*
X133727707Y-105652797D02*
X133804836Y-105660393D01*
X133936787Y-105700420D01*
X134002763Y-105720433D01*
X134185172Y-105817933D01*
X134345054Y-105949146D01*
X134476267Y-106109028D01*
X134573767Y-106291437D01*
X134573767Y-106291438D01*
X134633807Y-106489364D01*
X134654080Y-106695200D01*
X134633807Y-106901036D01*
X134593780Y-107032987D01*
X134573767Y-107098963D01*
X134476267Y-107281372D01*
X134345054Y-107441254D01*
X134185172Y-107572467D01*
X134002763Y-107669967D01*
X133936787Y-107689980D01*
X133804836Y-107730007D01*
X133727707Y-107737603D01*
X133650580Y-107745200D01*
X133547420Y-107745200D01*
X133470293Y-107737603D01*
X133393164Y-107730007D01*
X133261213Y-107689980D01*
X133195237Y-107669967D01*
X133012828Y-107572467D01*
X132852946Y-107441254D01*
X132721733Y-107281372D01*
X132624233Y-107098963D01*
X132604220Y-107032987D01*
X132564193Y-106901036D01*
X132543920Y-106695200D01*
X132564193Y-106489364D01*
X132624233Y-106291438D01*
X132624233Y-106291437D01*
X132721733Y-106109028D01*
X132852946Y-105949146D01*
X133012828Y-105817933D01*
X133195237Y-105720433D01*
X133261213Y-105700420D01*
X133393164Y-105660393D01*
X133470293Y-105652797D01*
X133547420Y-105645200D01*
X133650580Y-105645200D01*
X133727707Y-105652797D01*
X133727707Y-105652797D01*
G37*
G36*
X133727707Y-103112796D02*
X133804836Y-103120393D01*
X133936787Y-103160420D01*
X134002763Y-103180433D01*
X134185172Y-103277933D01*
X134345054Y-103409146D01*
X134476267Y-103569028D01*
X134573767Y-103751437D01*
X134573767Y-103751438D01*
X134633807Y-103949364D01*
X134654080Y-104155200D01*
X134633807Y-104361036D01*
X134593780Y-104492987D01*
X134573767Y-104558963D01*
X134476267Y-104741372D01*
X134345054Y-104901254D01*
X134185172Y-105032467D01*
X134002763Y-105129967D01*
X133936787Y-105149980D01*
X133804836Y-105190007D01*
X133727707Y-105197603D01*
X133650580Y-105205200D01*
X133547420Y-105205200D01*
X133470293Y-105197603D01*
X133393164Y-105190007D01*
X133261213Y-105149980D01*
X133195237Y-105129967D01*
X133012828Y-105032467D01*
X132852946Y-104901254D01*
X132721733Y-104741372D01*
X132624233Y-104558963D01*
X132604220Y-104492987D01*
X132564193Y-104361036D01*
X132543920Y-104155200D01*
X132564193Y-103949364D01*
X132624233Y-103751438D01*
X132624233Y-103751437D01*
X132721733Y-103569028D01*
X132852946Y-103409146D01*
X133012828Y-103277933D01*
X133195237Y-103180433D01*
X133261213Y-103160420D01*
X133393164Y-103120393D01*
X133470293Y-103112797D01*
X133547420Y-103105200D01*
X133650580Y-103105200D01*
X133727707Y-103112796D01*
X133727707Y-103112796D01*
G37*
G36*
X173646707Y-102045596D02*
X173723836Y-102053193D01*
X173855787Y-102093220D01*
X173921763Y-102113233D01*
X174104172Y-102210733D01*
X174264054Y-102341946D01*
X174395267Y-102501828D01*
X174492767Y-102684237D01*
X174492767Y-102684238D01*
X174552807Y-102882164D01*
X174573080Y-103088000D01*
X174552807Y-103293836D01*
X174517828Y-103409146D01*
X174492767Y-103491763D01*
X174395267Y-103674172D01*
X174264054Y-103834054D01*
X174104172Y-103965267D01*
X173921763Y-104062767D01*
X173855787Y-104082780D01*
X173723836Y-104122807D01*
X173646707Y-104130403D01*
X173569580Y-104138000D01*
X173466420Y-104138000D01*
X173389293Y-104130403D01*
X173312164Y-104122807D01*
X173180213Y-104082780D01*
X173114237Y-104062767D01*
X172931828Y-103965267D01*
X172771946Y-103834054D01*
X172640733Y-103674172D01*
X172543233Y-103491763D01*
X172518172Y-103409146D01*
X172483193Y-103293836D01*
X172462920Y-103088000D01*
X172483193Y-102882164D01*
X172543233Y-102684238D01*
X172543233Y-102684237D01*
X172640733Y-102501828D01*
X172771946Y-102341946D01*
X172931828Y-102210733D01*
X173114237Y-102113233D01*
X173180213Y-102093220D01*
X173312164Y-102053193D01*
X173389293Y-102045597D01*
X173466420Y-102038000D01*
X173569580Y-102038000D01*
X173646707Y-102045596D01*
X173646707Y-102045596D01*
G37*
G36*
X133727707Y-100572797D02*
X133804836Y-100580393D01*
X133936787Y-100620420D01*
X134002763Y-100640433D01*
X134185172Y-100737933D01*
X134345054Y-100869146D01*
X134476267Y-101029028D01*
X134573767Y-101211437D01*
X134573767Y-101211438D01*
X134633807Y-101409364D01*
X134654080Y-101615200D01*
X134633807Y-101821036D01*
X134593780Y-101952987D01*
X134573767Y-102018963D01*
X134476267Y-102201372D01*
X134345054Y-102361254D01*
X134185172Y-102492467D01*
X134002763Y-102589967D01*
X133936787Y-102609980D01*
X133804836Y-102650007D01*
X133727707Y-102657604D01*
X133650580Y-102665200D01*
X133547420Y-102665200D01*
X133470293Y-102657604D01*
X133393164Y-102650007D01*
X133261213Y-102609980D01*
X133195237Y-102589967D01*
X133012828Y-102492467D01*
X132852946Y-102361254D01*
X132721733Y-102201372D01*
X132624233Y-102018963D01*
X132604220Y-101952987D01*
X132564193Y-101821036D01*
X132543920Y-101615200D01*
X132564193Y-101409364D01*
X132624233Y-101211438D01*
X132624233Y-101211437D01*
X132721733Y-101029028D01*
X132852946Y-100869146D01*
X133012828Y-100737933D01*
X133195237Y-100640433D01*
X133261213Y-100620420D01*
X133393164Y-100580393D01*
X133470293Y-100572797D01*
X133547420Y-100565200D01*
X133650580Y-100565200D01*
X133727707Y-100572797D01*
X133727707Y-100572797D01*
G37*
G36*
X174568000Y-101598000D02*
X172468000Y-101598000D01*
X172468000Y-99498000D01*
X174568000Y-99498000D01*
X174568000Y-101598000D01*
X174568000Y-101598000D01*
G37*
G36*
X133727707Y-98032796D02*
X133804836Y-98040393D01*
X133936787Y-98080420D01*
X134002763Y-98100433D01*
X134185172Y-98197933D01*
X134345054Y-98329146D01*
X134476267Y-98489028D01*
X134573767Y-98671437D01*
X134573767Y-98671438D01*
X134633807Y-98869364D01*
X134654080Y-99075200D01*
X134633807Y-99281036D01*
X134593780Y-99412987D01*
X134573767Y-99478963D01*
X134476267Y-99661372D01*
X134345054Y-99821254D01*
X134185172Y-99952467D01*
X134002763Y-100049967D01*
X133936787Y-100069980D01*
X133804836Y-100110007D01*
X133727707Y-100117603D01*
X133650580Y-100125200D01*
X133547420Y-100125200D01*
X133470293Y-100117603D01*
X133393164Y-100110007D01*
X133261213Y-100069980D01*
X133195237Y-100049967D01*
X133012828Y-99952467D01*
X132852946Y-99821254D01*
X132721733Y-99661372D01*
X132624233Y-99478963D01*
X132604220Y-99412987D01*
X132564193Y-99281036D01*
X132543920Y-99075200D01*
X132564193Y-98869364D01*
X132624233Y-98671438D01*
X132624233Y-98671437D01*
X132721733Y-98489028D01*
X132852946Y-98329146D01*
X133012828Y-98197933D01*
X133195237Y-98100433D01*
X133261213Y-98080420D01*
X133393164Y-98040393D01*
X133470293Y-98032797D01*
X133547420Y-98025200D01*
X133650580Y-98025200D01*
X133727707Y-98032796D01*
X133727707Y-98032796D01*
G37*
G36*
X133727707Y-95492797D02*
X133804836Y-95500393D01*
X133936787Y-95540420D01*
X134002763Y-95560433D01*
X134185172Y-95657933D01*
X134345054Y-95789146D01*
X134476267Y-95949028D01*
X134573767Y-96131437D01*
X134573767Y-96131438D01*
X134633807Y-96329364D01*
X134654080Y-96535200D01*
X134633807Y-96741036D01*
X134593780Y-96872987D01*
X134573767Y-96938963D01*
X134476267Y-97121372D01*
X134345054Y-97281254D01*
X134185172Y-97412467D01*
X134002763Y-97509967D01*
X133936787Y-97529980D01*
X133804836Y-97570007D01*
X133727707Y-97577604D01*
X133650580Y-97585200D01*
X133547420Y-97585200D01*
X133470293Y-97577604D01*
X133393164Y-97570007D01*
X133261213Y-97529980D01*
X133195237Y-97509967D01*
X133012828Y-97412467D01*
X132852946Y-97281254D01*
X132721733Y-97121372D01*
X132624233Y-96938963D01*
X132604220Y-96872987D01*
X132564193Y-96741036D01*
X132543920Y-96535200D01*
X132564193Y-96329364D01*
X132624233Y-96131438D01*
X132624233Y-96131437D01*
X132721733Y-95949028D01*
X132852946Y-95789146D01*
X133012828Y-95657933D01*
X133195237Y-95560433D01*
X133261213Y-95540420D01*
X133393164Y-95500393D01*
X133470293Y-95492797D01*
X133547420Y-95485200D01*
X133650580Y-95485200D01*
X133727707Y-95492797D01*
X133727707Y-95492797D01*
G37*
G36*
X133727707Y-92952797D02*
X133804836Y-92960393D01*
X133936787Y-93000420D01*
X134002763Y-93020433D01*
X134185172Y-93117933D01*
X134345054Y-93249146D01*
X134476267Y-93409028D01*
X134573767Y-93591437D01*
X134573767Y-93591438D01*
X134633807Y-93789364D01*
X134654080Y-93995200D01*
X134633807Y-94201036D01*
X134593780Y-94332987D01*
X134573767Y-94398963D01*
X134476267Y-94581372D01*
X134345054Y-94741254D01*
X134185172Y-94872467D01*
X134002763Y-94969967D01*
X133936787Y-94989980D01*
X133804836Y-95030007D01*
X133727707Y-95037603D01*
X133650580Y-95045200D01*
X133547420Y-95045200D01*
X133470293Y-95037604D01*
X133393164Y-95030007D01*
X133261213Y-94989980D01*
X133195237Y-94969967D01*
X133012828Y-94872467D01*
X132852946Y-94741254D01*
X132721733Y-94581372D01*
X132624233Y-94398963D01*
X132604220Y-94332987D01*
X132564193Y-94201036D01*
X132543920Y-93995200D01*
X132564193Y-93789364D01*
X132624233Y-93591438D01*
X132624233Y-93591437D01*
X132721733Y-93409028D01*
X132852946Y-93249146D01*
X133012828Y-93117933D01*
X133195237Y-93020433D01*
X133261213Y-93000420D01*
X133393164Y-92960393D01*
X133470293Y-92952797D01*
X133547420Y-92945200D01*
X133650580Y-92945200D01*
X133727707Y-92952797D01*
X133727707Y-92952797D01*
G37*
G36*
X134649000Y-92505200D02*
X132549000Y-92505200D01*
X132549000Y-90405200D01*
X134649000Y-90405200D01*
X134649000Y-92505200D01*
X134649000Y-92505200D01*
G37*
G36*
X125252481Y-70469855D02*
X125452118Y-70509565D01*
X125640173Y-70587460D01*
X125734201Y-70626408D01*
X125988071Y-70796038D01*
X126203962Y-71011929D01*
X126373592Y-71265799D01*
X126373592Y-71265800D01*
X126490435Y-71547882D01*
X126550000Y-71847338D01*
X126550000Y-72152662D01*
X126490435Y-72452118D01*
X126412540Y-72640173D01*
X126373592Y-72734201D01*
X126203962Y-72988071D01*
X125988071Y-73203962D01*
X125734201Y-73373592D01*
X125640173Y-73412540D01*
X125452118Y-73490435D01*
X125252481Y-73530145D01*
X125152663Y-73550000D01*
X124847337Y-73550000D01*
X124747519Y-73530145D01*
X124547882Y-73490435D01*
X124359827Y-73412540D01*
X124265799Y-73373592D01*
X124011929Y-73203962D01*
X123796038Y-72988071D01*
X123626408Y-72734201D01*
X123587460Y-72640173D01*
X123509565Y-72452118D01*
X123450000Y-72152662D01*
X123450000Y-71847338D01*
X123509565Y-71547882D01*
X123626408Y-71265800D01*
X123626408Y-71265799D01*
X123796038Y-71011929D01*
X124011929Y-70796038D01*
X124265799Y-70626408D01*
X124359827Y-70587460D01*
X124547882Y-70509565D01*
X124747519Y-70469855D01*
X124847337Y-70450000D01*
X125152663Y-70450000D01*
X125252481Y-70469855D01*
X125252481Y-70469855D01*
G37*
G36*
X186002481Y-70469855D02*
X186202118Y-70509565D01*
X186390173Y-70587460D01*
X186484201Y-70626408D01*
X186738071Y-70796038D01*
X186953962Y-71011929D01*
X187123592Y-71265799D01*
X187123592Y-71265800D01*
X187240435Y-71547882D01*
X187300000Y-71847338D01*
X187300000Y-72152662D01*
X187240435Y-72452118D01*
X187162540Y-72640173D01*
X187123592Y-72734201D01*
X186953962Y-72988071D01*
X186738071Y-73203962D01*
X186484201Y-73373592D01*
X186390173Y-73412540D01*
X186202118Y-73490435D01*
X186002481Y-73530145D01*
X185902663Y-73550000D01*
X185597337Y-73550000D01*
X185497519Y-73530145D01*
X185297882Y-73490435D01*
X185109827Y-73412540D01*
X185015799Y-73373592D01*
X184761929Y-73203962D01*
X184546038Y-72988071D01*
X184376408Y-72734201D01*
X184337460Y-72640173D01*
X184259565Y-72452118D01*
X184200000Y-72152662D01*
X184200000Y-71847338D01*
X184259565Y-71547882D01*
X184376408Y-71265800D01*
X184376408Y-71265799D01*
X184546038Y-71011929D01*
X184761929Y-70796038D01*
X185015799Y-70626408D01*
X185109827Y-70587460D01*
X185297882Y-70509565D01*
X185497519Y-70469855D01*
X185597337Y-70450000D01*
X185902663Y-70450000D01*
X186002481Y-70469855D01*
X186002481Y-70469855D01*
G37*
G36*
X134176000Y-70163400D02*
X132076000Y-70163400D01*
X132076000Y-68063400D01*
X134176000Y-68063400D01*
X134176000Y-70163400D01*
X134176000Y-70163400D01*
G37*
G36*
X145954707Y-68070996D02*
X146031836Y-68078593D01*
X146163787Y-68118620D01*
X146229763Y-68138633D01*
X146412172Y-68236133D01*
X146572054Y-68367346D01*
X146703267Y-68527228D01*
X146800767Y-68709637D01*
X146800767Y-68709638D01*
X146860807Y-68907564D01*
X146881080Y-69113400D01*
X146860807Y-69319236D01*
X146820780Y-69451187D01*
X146800767Y-69517163D01*
X146703267Y-69699572D01*
X146572054Y-69859454D01*
X146412172Y-69990667D01*
X146229763Y-70088167D01*
X146163787Y-70108180D01*
X146031836Y-70148207D01*
X145954707Y-70155804D01*
X145877580Y-70163400D01*
X145774420Y-70163400D01*
X145697293Y-70155804D01*
X145620164Y-70148207D01*
X145488213Y-70108180D01*
X145422237Y-70088167D01*
X145239828Y-69990667D01*
X145079946Y-69859454D01*
X144948733Y-69699572D01*
X144851233Y-69517163D01*
X144831220Y-69451187D01*
X144791193Y-69319236D01*
X144770920Y-69113400D01*
X144791193Y-68907564D01*
X144851233Y-68709638D01*
X144851233Y-68709637D01*
X144948733Y-68527228D01*
X145079946Y-68367346D01*
X145239828Y-68236133D01*
X145422237Y-68138633D01*
X145488213Y-68118620D01*
X145620164Y-68078593D01*
X145697293Y-68070996D01*
X145774420Y-68063400D01*
X145877580Y-68063400D01*
X145954707Y-68070996D01*
X145954707Y-68070996D01*
G37*
G36*
X143414707Y-68070996D02*
X143491836Y-68078593D01*
X143623787Y-68118620D01*
X143689763Y-68138633D01*
X143872172Y-68236133D01*
X144032054Y-68367346D01*
X144163267Y-68527228D01*
X144260767Y-68709637D01*
X144260767Y-68709638D01*
X144320807Y-68907564D01*
X144341080Y-69113400D01*
X144320807Y-69319236D01*
X144280780Y-69451187D01*
X144260767Y-69517163D01*
X144163267Y-69699572D01*
X144032054Y-69859454D01*
X143872172Y-69990667D01*
X143689763Y-70088167D01*
X143623787Y-70108180D01*
X143491836Y-70148207D01*
X143414707Y-70155804D01*
X143337580Y-70163400D01*
X143234420Y-70163400D01*
X143157293Y-70155804D01*
X143080164Y-70148207D01*
X142948213Y-70108180D01*
X142882237Y-70088167D01*
X142699828Y-69990667D01*
X142539946Y-69859454D01*
X142408733Y-69699572D01*
X142311233Y-69517163D01*
X142291220Y-69451187D01*
X142251193Y-69319236D01*
X142230920Y-69113400D01*
X142251193Y-68907564D01*
X142311233Y-68709638D01*
X142311233Y-68709637D01*
X142408733Y-68527228D01*
X142539946Y-68367346D01*
X142699828Y-68236133D01*
X142882237Y-68138633D01*
X142948213Y-68118620D01*
X143080164Y-68078593D01*
X143157293Y-68070996D01*
X143234420Y-68063400D01*
X143337580Y-68063400D01*
X143414707Y-68070996D01*
X143414707Y-68070996D01*
G37*
G36*
X140874707Y-68070996D02*
X140951836Y-68078593D01*
X141083787Y-68118620D01*
X141149763Y-68138633D01*
X141332172Y-68236133D01*
X141492054Y-68367346D01*
X141623267Y-68527228D01*
X141720767Y-68709637D01*
X141720767Y-68709638D01*
X141780807Y-68907564D01*
X141801080Y-69113400D01*
X141780807Y-69319236D01*
X141740780Y-69451187D01*
X141720767Y-69517163D01*
X141623267Y-69699572D01*
X141492054Y-69859454D01*
X141332172Y-69990667D01*
X141149763Y-70088167D01*
X141083787Y-70108180D01*
X140951836Y-70148207D01*
X140874707Y-70155804D01*
X140797580Y-70163400D01*
X140694420Y-70163400D01*
X140617293Y-70155804D01*
X140540164Y-70148207D01*
X140408213Y-70108180D01*
X140342237Y-70088167D01*
X140159828Y-69990667D01*
X139999946Y-69859454D01*
X139868733Y-69699572D01*
X139771233Y-69517163D01*
X139751220Y-69451187D01*
X139711193Y-69319236D01*
X139690920Y-69113400D01*
X139711193Y-68907564D01*
X139771233Y-68709638D01*
X139771233Y-68709637D01*
X139868733Y-68527228D01*
X139999946Y-68367346D01*
X140159828Y-68236133D01*
X140342237Y-68138633D01*
X140408213Y-68118620D01*
X140540164Y-68078593D01*
X140617293Y-68070996D01*
X140694420Y-68063400D01*
X140797580Y-68063400D01*
X140874707Y-68070996D01*
X140874707Y-68070996D01*
G37*
G36*
X138334707Y-68070996D02*
X138411836Y-68078593D01*
X138543787Y-68118620D01*
X138609763Y-68138633D01*
X138792172Y-68236133D01*
X138952054Y-68367346D01*
X139083267Y-68527228D01*
X139180767Y-68709637D01*
X139180767Y-68709638D01*
X139240807Y-68907564D01*
X139261080Y-69113400D01*
X139240807Y-69319236D01*
X139200780Y-69451187D01*
X139180767Y-69517163D01*
X139083267Y-69699572D01*
X138952054Y-69859454D01*
X138792172Y-69990667D01*
X138609763Y-70088167D01*
X138543787Y-70108180D01*
X138411836Y-70148207D01*
X138334707Y-70155804D01*
X138257580Y-70163400D01*
X138154420Y-70163400D01*
X138077293Y-70155804D01*
X138000164Y-70148207D01*
X137868213Y-70108180D01*
X137802237Y-70088167D01*
X137619828Y-69990667D01*
X137459946Y-69859454D01*
X137328733Y-69699572D01*
X137231233Y-69517163D01*
X137211220Y-69451187D01*
X137171193Y-69319236D01*
X137150920Y-69113400D01*
X137171193Y-68907564D01*
X137231233Y-68709638D01*
X137231233Y-68709637D01*
X137328733Y-68527228D01*
X137459946Y-68367346D01*
X137619828Y-68236133D01*
X137802237Y-68138633D01*
X137868213Y-68118620D01*
X138000164Y-68078593D01*
X138077293Y-68070996D01*
X138154420Y-68063400D01*
X138257580Y-68063400D01*
X138334707Y-68070996D01*
X138334707Y-68070996D01*
G37*
G36*
X135794707Y-68070996D02*
X135871836Y-68078593D01*
X136003787Y-68118620D01*
X136069763Y-68138633D01*
X136252172Y-68236133D01*
X136412054Y-68367346D01*
X136543267Y-68527228D01*
X136640767Y-68709637D01*
X136640767Y-68709638D01*
X136700807Y-68907564D01*
X136721080Y-69113400D01*
X136700807Y-69319236D01*
X136660780Y-69451187D01*
X136640767Y-69517163D01*
X136543267Y-69699572D01*
X136412054Y-69859454D01*
X136252172Y-69990667D01*
X136069763Y-70088167D01*
X136003787Y-70108180D01*
X135871836Y-70148207D01*
X135794707Y-70155804D01*
X135717580Y-70163400D01*
X135614420Y-70163400D01*
X135537293Y-70155804D01*
X135460164Y-70148207D01*
X135328213Y-70108180D01*
X135262237Y-70088167D01*
X135079828Y-69990667D01*
X134919946Y-69859454D01*
X134788733Y-69699572D01*
X134691233Y-69517163D01*
X134671220Y-69451187D01*
X134631193Y-69319236D01*
X134610920Y-69113400D01*
X134631193Y-68907564D01*
X134691233Y-68709638D01*
X134691233Y-68709637D01*
X134788733Y-68527228D01*
X134919946Y-68367346D01*
X135079828Y-68236133D01*
X135262237Y-68138633D01*
X135328213Y-68118620D01*
X135460164Y-68078593D01*
X135537293Y-68070996D01*
X135614420Y-68063400D01*
X135717580Y-68063400D01*
X135794707Y-68070996D01*
X135794707Y-68070996D01*
G37*
M02*
