G04 #@! TF.GenerationSoftware,KiCad,Pcbnew,5.0.2-bee76a0~70~ubuntu18.10.1*
G04 #@! TF.CreationDate,2019-07-18T11:33:01-04:00*
G04 #@! TF.ProjectId,Bonaire,426f6e61-6972-4652-9e6b-696361645f70,rev?*
G04 #@! TF.SameCoordinates,Original*
G04 #@! TF.FileFunction,Legend,Top*
G04 #@! TF.FilePolarity,Positive*
%FSLAX46Y46*%
G04 Gerber Fmt 4.6, Leading zero omitted, Abs format (unit mm)*
G04 Created by KiCad (PCBNEW 5.0.2-bee76a0~70~ubuntu18.10.1) date Thu 18 Jul 2019 11:33:01 AM EDT*
%MOMM*%
%LPD*%
G01*
G04 APERTURE LIST*
%ADD10C,0.300000*%
%ADD11C,0.250000*%
%ADD12C,0.120000*%
%ADD13C,0.150000*%
G04 APERTURE END LIST*
D10*
X157522702Y-120255291D02*
X156379845Y-120255291D01*
X156379845Y-120255291D02*
X155236988Y-120255291D01*
X155236988Y-120255291D02*
X154094131Y-120255291D01*
X154094131Y-120255291D02*
X152951274Y-120255291D01*
X152808417Y-121398148D02*
X152236988Y-121398148D01*
X152594131Y-121898148D02*
X152594131Y-120612434D01*
X152522702Y-120469577D01*
X152379845Y-120398148D01*
X152236988Y-120398148D01*
X151094131Y-120398148D02*
X151094131Y-121183862D01*
X151165560Y-121326720D01*
X151308417Y-121398148D01*
X151594131Y-121398148D01*
X151736988Y-121326720D01*
X151094131Y-120469577D02*
X151236988Y-120398148D01*
X151594131Y-120398148D01*
X151736988Y-120469577D01*
X151808417Y-120612434D01*
X151808417Y-120755291D01*
X151736988Y-120898148D01*
X151594131Y-120969577D01*
X151236988Y-120969577D01*
X151094131Y-121041005D01*
X150379845Y-120398148D02*
X150379845Y-121898148D01*
X150379845Y-121326720D02*
X150236988Y-121398148D01*
X149951274Y-121398148D01*
X149808417Y-121326720D01*
X149736988Y-121255291D01*
X149665560Y-121112434D01*
X149665560Y-120683862D01*
X149736988Y-120541005D01*
X149808417Y-120469577D01*
X149951274Y-120398148D01*
X150236988Y-120398148D01*
X150379845Y-120469577D01*
X149379845Y-120255291D02*
X148236988Y-120255291D01*
X148236988Y-120255291D02*
X147094131Y-120255291D01*
X147094131Y-120255291D02*
X145951274Y-120255291D01*
X145951274Y-120255291D02*
X144808417Y-120255291D01*
D11*
X176652222Y-107537211D02*
X176699841Y-107584830D01*
X176747460Y-107727687D01*
X176747460Y-107822925D01*
X176699841Y-107965782D01*
X176604603Y-108061020D01*
X176509365Y-108108640D01*
X176318889Y-108156259D01*
X176176032Y-108156259D01*
X175985556Y-108108640D01*
X175890318Y-108061020D01*
X175795080Y-107965782D01*
X175747460Y-107822925D01*
X175747460Y-107727687D01*
X175795080Y-107584830D01*
X175842699Y-107537211D01*
X176747460Y-106965782D02*
X176699841Y-107061020D01*
X176652222Y-107108640D01*
X176556984Y-107156259D01*
X176271270Y-107156259D01*
X176176032Y-107108640D01*
X176128413Y-107061020D01*
X176080794Y-106965782D01*
X176080794Y-106822925D01*
X176128413Y-106727687D01*
X176176032Y-106680068D01*
X176271270Y-106632449D01*
X176556984Y-106632449D01*
X176652222Y-106680068D01*
X176699841Y-106727687D01*
X176747460Y-106822925D01*
X176747460Y-106965782D01*
X176080794Y-106203878D02*
X176747460Y-106203878D01*
X176176032Y-106203878D02*
X176128413Y-106156259D01*
X176080794Y-106061020D01*
X176080794Y-105918163D01*
X176128413Y-105822925D01*
X176223651Y-105775306D01*
X176747460Y-105775306D01*
X176080794Y-105299116D02*
X176747460Y-105299116D01*
X176176032Y-105299116D02*
X176128413Y-105251497D01*
X176080794Y-105156259D01*
X176080794Y-105013401D01*
X176128413Y-104918163D01*
X176223651Y-104870544D01*
X176747460Y-104870544D01*
X176699841Y-104013401D02*
X176747460Y-104108640D01*
X176747460Y-104299116D01*
X176699841Y-104394354D01*
X176604603Y-104441973D01*
X176223651Y-104441973D01*
X176128413Y-104394354D01*
X176080794Y-104299116D01*
X176080794Y-104108640D01*
X176128413Y-104013401D01*
X176223651Y-103965782D01*
X176318889Y-103965782D01*
X176414127Y-104441973D01*
X176699841Y-103108640D02*
X176747460Y-103203878D01*
X176747460Y-103394354D01*
X176699841Y-103489592D01*
X176652222Y-103537211D01*
X176556984Y-103584830D01*
X176271270Y-103584830D01*
X176176032Y-103537211D01*
X176128413Y-103489592D01*
X176080794Y-103394354D01*
X176080794Y-103203878D01*
X176128413Y-103108640D01*
X176080794Y-102822925D02*
X176080794Y-102441973D01*
X175747460Y-102680068D02*
X176604603Y-102680068D01*
X176699841Y-102632449D01*
X176747460Y-102537211D01*
X176747460Y-102441973D01*
X176699841Y-102156259D02*
X176747460Y-102061020D01*
X176747460Y-101870544D01*
X176699841Y-101775306D01*
X176604603Y-101727687D01*
X176556984Y-101727687D01*
X176461746Y-101775306D01*
X176414127Y-101870544D01*
X176414127Y-102013401D01*
X176366508Y-102108640D01*
X176271270Y-102156259D01*
X176223651Y-102156259D01*
X176128413Y-102108640D01*
X176080794Y-102013401D01*
X176080794Y-101870544D01*
X176128413Y-101775306D01*
X175842699Y-100584830D02*
X175795080Y-100537211D01*
X175747460Y-100441973D01*
X175747460Y-100203878D01*
X175795080Y-100108640D01*
X175842699Y-100061020D01*
X175937937Y-100013401D01*
X176033175Y-100013401D01*
X176176032Y-100061020D01*
X176747460Y-100632449D01*
X176747460Y-100013401D01*
X176080794Y-99156259D02*
X176747460Y-99156259D01*
X175699841Y-99394354D02*
X176414127Y-99632449D01*
X176414127Y-99013401D01*
X176080794Y-98727687D02*
X176747460Y-98489592D01*
X176080794Y-98251497D01*
X176747460Y-96299116D02*
X176747460Y-96346735D01*
X176699841Y-96441973D01*
X176556984Y-96584830D01*
X176271270Y-96822925D01*
X176128413Y-96918163D01*
X175985556Y-96965782D01*
X175890318Y-96965782D01*
X175795080Y-96918163D01*
X175747460Y-96822925D01*
X175747460Y-96775306D01*
X175795080Y-96680068D01*
X175890318Y-96632449D01*
X175937937Y-96632449D01*
X176033175Y-96680068D01*
X176080794Y-96727687D01*
X176271270Y-97013401D01*
X176318889Y-97061020D01*
X176414127Y-97108640D01*
X176556984Y-97108640D01*
X176652222Y-97061020D01*
X176699841Y-97013401D01*
X176747460Y-96918163D01*
X176747460Y-96775306D01*
X176699841Y-96680068D01*
X176652222Y-96632449D01*
X176461746Y-96489592D01*
X176318889Y-96441973D01*
X176223651Y-96441973D01*
X175747460Y-94632449D02*
X175747460Y-95108640D01*
X176223651Y-95156259D01*
X176176032Y-95108640D01*
X176128413Y-95013401D01*
X176128413Y-94775306D01*
X176176032Y-94680068D01*
X176223651Y-94632449D01*
X176318889Y-94584830D01*
X176556984Y-94584830D01*
X176652222Y-94632449D01*
X176699841Y-94680068D01*
X176747460Y-94775306D01*
X176747460Y-95013401D01*
X176699841Y-95108640D01*
X176652222Y-95156259D01*
X176080794Y-94251497D02*
X176747460Y-94013401D01*
X176080794Y-93775306D01*
X176366508Y-92632449D02*
X176366508Y-91870544D01*
X177497460Y-107584830D02*
X178306984Y-107584830D01*
X178402222Y-107537211D01*
X178449841Y-107489592D01*
X178497460Y-107394354D01*
X178497460Y-107203878D01*
X178449841Y-107108640D01*
X178402222Y-107061020D01*
X178306984Y-107013401D01*
X177497460Y-107013401D01*
X178449841Y-106584830D02*
X178497460Y-106489592D01*
X178497460Y-106299116D01*
X178449841Y-106203878D01*
X178354603Y-106156259D01*
X178306984Y-106156259D01*
X178211746Y-106203878D01*
X178164127Y-106299116D01*
X178164127Y-106441973D01*
X178116508Y-106537211D01*
X178021270Y-106584830D01*
X177973651Y-106584830D01*
X177878413Y-106537211D01*
X177830794Y-106441973D01*
X177830794Y-106299116D01*
X177878413Y-106203878D01*
X178449841Y-105346735D02*
X178497460Y-105441973D01*
X178497460Y-105632449D01*
X178449841Y-105727687D01*
X178354603Y-105775306D01*
X177973651Y-105775306D01*
X177878413Y-105727687D01*
X177830794Y-105632449D01*
X177830794Y-105441973D01*
X177878413Y-105346735D01*
X177973651Y-105299116D01*
X178068889Y-105299116D01*
X178164127Y-105775306D01*
X177830794Y-104251497D02*
X177830794Y-103870544D01*
X178497460Y-104108640D02*
X177640318Y-104108640D01*
X177545080Y-104061020D01*
X177497460Y-103965782D01*
X177497460Y-103870544D01*
X178497460Y-103394354D02*
X178449841Y-103489592D01*
X178402222Y-103537211D01*
X178306984Y-103584830D01*
X178021270Y-103584830D01*
X177926032Y-103537211D01*
X177878413Y-103489592D01*
X177830794Y-103394354D01*
X177830794Y-103251497D01*
X177878413Y-103156259D01*
X177926032Y-103108640D01*
X178021270Y-103061020D01*
X178306984Y-103061020D01*
X178402222Y-103108640D01*
X178449841Y-103156259D01*
X178497460Y-103251497D01*
X178497460Y-103394354D01*
X178497460Y-102632449D02*
X177830794Y-102632449D01*
X178021270Y-102632449D02*
X177926032Y-102584830D01*
X177878413Y-102537211D01*
X177830794Y-102441973D01*
X177830794Y-102346735D01*
X177497460Y-101394354D02*
X177497460Y-100822925D01*
X178497460Y-101108640D02*
X177497460Y-101108640D01*
X178449841Y-100108640D02*
X178497460Y-100203878D01*
X178497460Y-100394354D01*
X178449841Y-100489592D01*
X178354603Y-100537211D01*
X177973651Y-100537211D01*
X177878413Y-100489592D01*
X177830794Y-100394354D01*
X177830794Y-100203878D01*
X177878413Y-100108640D01*
X177973651Y-100061020D01*
X178068889Y-100061020D01*
X178164127Y-100537211D01*
X178449841Y-99680068D02*
X178497460Y-99584830D01*
X178497460Y-99394354D01*
X178449841Y-99299116D01*
X178354603Y-99251497D01*
X178306984Y-99251497D01*
X178211746Y-99299116D01*
X178164127Y-99394354D01*
X178164127Y-99537211D01*
X178116508Y-99632449D01*
X178021270Y-99680068D01*
X177973651Y-99680068D01*
X177878413Y-99632449D01*
X177830794Y-99537211D01*
X177830794Y-99394354D01*
X177878413Y-99299116D01*
X177830794Y-98965782D02*
X177830794Y-98584830D01*
X177497460Y-98822925D02*
X178354603Y-98822925D01*
X178449841Y-98775306D01*
X178497460Y-98680068D01*
X178497460Y-98584830D01*
X178497460Y-98251497D02*
X177830794Y-98251497D01*
X177497460Y-98251497D02*
X177545080Y-98299116D01*
X177592699Y-98251497D01*
X177545080Y-98203878D01*
X177497460Y-98251497D01*
X177592699Y-98251497D01*
X177830794Y-97775306D02*
X178497460Y-97775306D01*
X177926032Y-97775306D02*
X177878413Y-97727687D01*
X177830794Y-97632449D01*
X177830794Y-97489592D01*
X177878413Y-97394354D01*
X177973651Y-97346735D01*
X178497460Y-97346735D01*
X177830794Y-96441973D02*
X178640318Y-96441973D01*
X178735556Y-96489592D01*
X178783175Y-96537211D01*
X178830794Y-96632449D01*
X178830794Y-96775306D01*
X178783175Y-96870544D01*
X178449841Y-96441973D02*
X178497460Y-96537211D01*
X178497460Y-96727687D01*
X178449841Y-96822925D01*
X178402222Y-96870544D01*
X178306984Y-96918163D01*
X178021270Y-96918163D01*
X177926032Y-96870544D01*
X177878413Y-96822925D01*
X177830794Y-96727687D01*
X177830794Y-96537211D01*
X177878413Y-96441973D01*
X178497460Y-95061020D02*
X178449841Y-95156259D01*
X178402222Y-95203878D01*
X178306984Y-95251497D01*
X178021270Y-95251497D01*
X177926032Y-95203878D01*
X177878413Y-95156259D01*
X177830794Y-95061020D01*
X177830794Y-94918163D01*
X177878413Y-94822925D01*
X177926032Y-94775306D01*
X178021270Y-94727687D01*
X178306984Y-94727687D01*
X178402222Y-94775306D01*
X178449841Y-94822925D01*
X178497460Y-94918163D01*
X178497460Y-95061020D01*
X177830794Y-94299116D02*
X178497460Y-94299116D01*
X177926032Y-94299116D02*
X177878413Y-94251497D01*
X177830794Y-94156259D01*
X177830794Y-94013401D01*
X177878413Y-93918163D01*
X177973651Y-93870544D01*
X178497460Y-93870544D01*
X178497460Y-93251497D02*
X178449841Y-93346735D01*
X178354603Y-93394354D01*
X177497460Y-93394354D01*
X177830794Y-92965782D02*
X178497460Y-92727687D01*
X177830794Y-92489592D02*
X178497460Y-92727687D01*
X178735556Y-92822925D01*
X178783175Y-92870544D01*
X178830794Y-92965782D01*
X178402222Y-92108640D02*
X178449841Y-92061020D01*
X178497460Y-92108640D01*
X178449841Y-92156259D01*
X178402222Y-92108640D01*
X178497460Y-92108640D01*
X178116508Y-92108640D02*
X177545080Y-92156259D01*
X177497460Y-92108640D01*
X177545080Y-92061020D01*
X178116508Y-92108640D01*
X177497460Y-92108640D01*
X178402222Y-91632449D02*
X178449841Y-91584830D01*
X178497460Y-91632449D01*
X178449841Y-91680068D01*
X178402222Y-91632449D01*
X178497460Y-91632449D01*
X178116508Y-91632449D02*
X177545080Y-91680068D01*
X177497460Y-91632449D01*
X177545080Y-91584830D01*
X178116508Y-91632449D01*
X177497460Y-91632449D01*
D10*
X163275274Y-68183297D02*
X163489560Y-68254725D01*
X163560988Y-68326154D01*
X163632417Y-68469011D01*
X163632417Y-68683297D01*
X163560988Y-68826154D01*
X163489560Y-68897582D01*
X163346702Y-68969011D01*
X162775274Y-68969011D01*
X162775274Y-67469011D01*
X163275274Y-67469011D01*
X163418131Y-67540440D01*
X163489560Y-67611868D01*
X163560988Y-67754725D01*
X163560988Y-67897582D01*
X163489560Y-68040440D01*
X163418131Y-68111868D01*
X163275274Y-68183297D01*
X162775274Y-68183297D01*
X164489560Y-68969011D02*
X164346702Y-68897582D01*
X164275274Y-68826154D01*
X164203845Y-68683297D01*
X164203845Y-68254725D01*
X164275274Y-68111868D01*
X164346702Y-68040440D01*
X164489560Y-67969011D01*
X164703845Y-67969011D01*
X164846702Y-68040440D01*
X164918131Y-68111868D01*
X164989560Y-68254725D01*
X164989560Y-68683297D01*
X164918131Y-68826154D01*
X164846702Y-68897582D01*
X164703845Y-68969011D01*
X164489560Y-68969011D01*
X165632417Y-67969011D02*
X165632417Y-68969011D01*
X165632417Y-68111868D02*
X165703845Y-68040440D01*
X165846702Y-67969011D01*
X166060988Y-67969011D01*
X166203845Y-68040440D01*
X166275274Y-68183297D01*
X166275274Y-68969011D01*
X167632417Y-68969011D02*
X167632417Y-68183297D01*
X167560988Y-68040440D01*
X167418131Y-67969011D01*
X167132417Y-67969011D01*
X166989560Y-68040440D01*
X167632417Y-68897582D02*
X167489560Y-68969011D01*
X167132417Y-68969011D01*
X166989560Y-68897582D01*
X166918131Y-68754725D01*
X166918131Y-68611868D01*
X166989560Y-68469011D01*
X167132417Y-68397582D01*
X167489560Y-68397582D01*
X167632417Y-68326154D01*
X168346702Y-68969011D02*
X168346702Y-67969011D01*
X168346702Y-67469011D02*
X168275274Y-67540440D01*
X168346702Y-67611868D01*
X168418131Y-67540440D01*
X168346702Y-67469011D01*
X168346702Y-67611868D01*
X169060988Y-68969011D02*
X169060988Y-67969011D01*
X169060988Y-68254725D02*
X169132417Y-68111868D01*
X169203845Y-68040440D01*
X169346702Y-67969011D01*
X169489560Y-67969011D01*
X170560988Y-68897582D02*
X170418131Y-68969011D01*
X170132417Y-68969011D01*
X169989560Y-68897582D01*
X169918131Y-68754725D01*
X169918131Y-68183297D01*
X169989560Y-68040440D01*
X170132417Y-67969011D01*
X170418131Y-67969011D01*
X170560988Y-68040440D01*
X170632417Y-68183297D01*
X170632417Y-68326154D01*
X169918131Y-68469011D01*
X172418131Y-68397582D02*
X173560988Y-68397582D01*
X175203845Y-67469011D02*
X175703845Y-68969011D01*
X176203845Y-67469011D01*
X178632417Y-68969011D02*
X177775274Y-68969011D01*
X178203845Y-68969011D02*
X178203845Y-67469011D01*
X178060988Y-67683297D01*
X177918131Y-67826154D01*
X177775274Y-67897582D01*
X179275274Y-68826154D02*
X179346702Y-68897582D01*
X179275274Y-68969011D01*
X179203845Y-68897582D01*
X179275274Y-68826154D01*
X179275274Y-68969011D01*
X180275274Y-67469011D02*
X180418131Y-67469011D01*
X180560988Y-67540440D01*
X180632417Y-67611868D01*
X180703845Y-67754725D01*
X180775274Y-68040440D01*
X180775274Y-68397582D01*
X180703845Y-68683297D01*
X180632417Y-68826154D01*
X180560988Y-68897582D01*
X180418131Y-68969011D01*
X180275274Y-68969011D01*
X180132417Y-68897582D01*
X180060988Y-68826154D01*
X179989560Y-68683297D01*
X179918131Y-68397582D01*
X179918131Y-68040440D01*
X179989560Y-67754725D01*
X180060988Y-67611868D01*
X180132417Y-67540440D01*
X180275274Y-67469011D01*
X147660662Y-126645491D02*
X147603520Y-126588348D01*
X147546377Y-126474062D01*
X147546377Y-126188348D01*
X147603520Y-126074062D01*
X147660662Y-126016920D01*
X147774948Y-125959777D01*
X147889234Y-125959777D01*
X148060662Y-126016920D01*
X148746377Y-126702634D01*
X148746377Y-125959777D01*
X147946377Y-124931205D02*
X148746377Y-124931205D01*
X147489234Y-125216920D02*
X148346377Y-125502634D01*
X148346377Y-124759777D01*
X147546377Y-124474062D02*
X148746377Y-124074062D01*
X147546377Y-123674062D01*
X150046377Y-127474062D02*
X150846377Y-127474062D01*
X149589234Y-127759777D02*
X150446377Y-128045491D01*
X150446377Y-127302634D01*
X150160662Y-126674062D02*
X150103520Y-126788348D01*
X150046377Y-126845491D01*
X149932091Y-126902634D01*
X149874948Y-126902634D01*
X149760662Y-126845491D01*
X149703520Y-126788348D01*
X149646377Y-126674062D01*
X149646377Y-126445491D01*
X149703520Y-126331205D01*
X149760662Y-126274062D01*
X149874948Y-126216920D01*
X149932091Y-126216920D01*
X150046377Y-126274062D01*
X150103520Y-126331205D01*
X150160662Y-126445491D01*
X150160662Y-126674062D01*
X150217805Y-126788348D01*
X150274948Y-126845491D01*
X150389234Y-126902634D01*
X150617805Y-126902634D01*
X150732091Y-126845491D01*
X150789234Y-126788348D01*
X150846377Y-126674062D01*
X150846377Y-126445491D01*
X150789234Y-126331205D01*
X150732091Y-126274062D01*
X150617805Y-126216920D01*
X150389234Y-126216920D01*
X150274948Y-126274062D01*
X150217805Y-126331205D01*
X150160662Y-126445491D01*
X149646377Y-125131205D02*
X149646377Y-125702634D01*
X150217805Y-125759777D01*
X150160662Y-125702634D01*
X150103520Y-125588348D01*
X150103520Y-125302634D01*
X150160662Y-125188348D01*
X150217805Y-125131205D01*
X150332091Y-125074062D01*
X150617805Y-125074062D01*
X150732091Y-125131205D01*
X150789234Y-125188348D01*
X150846377Y-125302634D01*
X150846377Y-125588348D01*
X150789234Y-125702634D01*
X150732091Y-125759777D01*
X150217805Y-124159777D02*
X150274948Y-123988348D01*
X150332091Y-123931205D01*
X150446377Y-123874062D01*
X150617805Y-123874062D01*
X150732091Y-123931205D01*
X150789234Y-123988348D01*
X150846377Y-124102634D01*
X150846377Y-124559777D01*
X149646377Y-124559777D01*
X149646377Y-124159777D01*
X149703520Y-124045491D01*
X149760662Y-123988348D01*
X149874948Y-123931205D01*
X149989234Y-123931205D01*
X150103520Y-123988348D01*
X150160662Y-124045491D01*
X150217805Y-124159777D01*
X150217805Y-124559777D01*
X150389234Y-123359777D02*
X150389234Y-122445491D01*
X150846377Y-122902634D02*
X149932091Y-122902634D01*
X152146377Y-127388348D02*
X152946377Y-127388348D01*
X151689234Y-127674062D02*
X152546377Y-127959777D01*
X152546377Y-127216920D01*
X152260662Y-126588348D02*
X152203520Y-126702634D01*
X152146377Y-126759777D01*
X152032091Y-126816920D01*
X151974948Y-126816920D01*
X151860662Y-126759777D01*
X151803520Y-126702634D01*
X151746377Y-126588348D01*
X151746377Y-126359777D01*
X151803520Y-126245491D01*
X151860662Y-126188348D01*
X151974948Y-126131205D01*
X152032091Y-126131205D01*
X152146377Y-126188348D01*
X152203520Y-126245491D01*
X152260662Y-126359777D01*
X152260662Y-126588348D01*
X152317805Y-126702634D01*
X152374948Y-126759777D01*
X152489234Y-126816920D01*
X152717805Y-126816920D01*
X152832091Y-126759777D01*
X152889234Y-126702634D01*
X152946377Y-126588348D01*
X152946377Y-126359777D01*
X152889234Y-126245491D01*
X152832091Y-126188348D01*
X152717805Y-126131205D01*
X152489234Y-126131205D01*
X152374948Y-126188348D01*
X152317805Y-126245491D01*
X152260662Y-126359777D01*
X151746377Y-125045491D02*
X151746377Y-125616920D01*
X152317805Y-125674062D01*
X152260662Y-125616920D01*
X152203520Y-125502634D01*
X152203520Y-125216920D01*
X152260662Y-125102634D01*
X152317805Y-125045491D01*
X152432091Y-124988348D01*
X152717805Y-124988348D01*
X152832091Y-125045491D01*
X152889234Y-125102634D01*
X152946377Y-125216920D01*
X152946377Y-125502634D01*
X152889234Y-125616920D01*
X152832091Y-125674062D01*
X152603520Y-124531205D02*
X152603520Y-123959777D01*
X152946377Y-124645491D02*
X151746377Y-124245491D01*
X152946377Y-123845491D01*
X152489234Y-123445491D02*
X152489234Y-122531205D01*
X153903520Y-126131205D02*
X153846377Y-126245491D01*
X153846377Y-126416920D01*
X153903520Y-126588348D01*
X154017805Y-126702634D01*
X154132091Y-126759777D01*
X154360662Y-126816920D01*
X154532091Y-126816920D01*
X154760662Y-126759777D01*
X154874948Y-126702634D01*
X154989234Y-126588348D01*
X155046377Y-126416920D01*
X155046377Y-126302634D01*
X154989234Y-126131205D01*
X154932091Y-126074062D01*
X154532091Y-126074062D01*
X154532091Y-126302634D01*
X155046377Y-125559777D02*
X153846377Y-125559777D01*
X155046377Y-124874062D01*
X153846377Y-124874062D01*
X155046377Y-124302634D02*
X153846377Y-124302634D01*
X153846377Y-124016920D01*
X153903520Y-123845491D01*
X154017805Y-123731205D01*
X154132091Y-123674062D01*
X154360662Y-123616920D01*
X154532091Y-123616920D01*
X154760662Y-123674062D01*
X154874948Y-123731205D01*
X154989234Y-123845491D01*
X155046377Y-124016920D01*
X155046377Y-124302634D01*
X146737571Y-116269520D02*
X148237571Y-115912377D01*
X147166142Y-115626662D01*
X148237571Y-115340948D01*
X146737571Y-114983805D01*
X148237571Y-114412377D02*
X146737571Y-114412377D01*
X147451857Y-114412377D02*
X147451857Y-113555234D01*
X148237571Y-113555234D02*
X146737571Y-113555234D01*
X146737571Y-113055234D02*
X146737571Y-112198091D01*
X148237571Y-112626662D02*
X146737571Y-112626662D01*
X150001857Y-115555234D02*
X150073285Y-115340948D01*
X150144714Y-115269520D01*
X150287571Y-115198091D01*
X150501857Y-115198091D01*
X150644714Y-115269520D01*
X150716142Y-115340948D01*
X150787571Y-115483805D01*
X150787571Y-116055234D01*
X149287571Y-116055234D01*
X149287571Y-115555234D01*
X149359000Y-115412377D01*
X149430428Y-115340948D01*
X149573285Y-115269520D01*
X149716142Y-115269520D01*
X149859000Y-115340948D01*
X149930428Y-115412377D01*
X150001857Y-115555234D01*
X150001857Y-116055234D01*
X150787571Y-113840948D02*
X150787571Y-114555234D01*
X149287571Y-114555234D01*
X149287571Y-113340948D02*
X150501857Y-113340948D01*
X150644714Y-113269520D01*
X150716142Y-113198091D01*
X150787571Y-113055234D01*
X150787571Y-112769520D01*
X150716142Y-112626662D01*
X150644714Y-112555234D01*
X150501857Y-112483805D01*
X149287571Y-112483805D01*
X152551857Y-115698091D02*
X152623285Y-115483805D01*
X152694714Y-115412377D01*
X152837571Y-115340948D01*
X153051857Y-115340948D01*
X153194714Y-115412377D01*
X153266142Y-115483805D01*
X153337571Y-115626662D01*
X153337571Y-116198091D01*
X151837571Y-116198091D01*
X151837571Y-115698091D01*
X151909000Y-115555234D01*
X151980428Y-115483805D01*
X152123285Y-115412377D01*
X152266142Y-115412377D01*
X152409000Y-115483805D01*
X152480428Y-115555234D01*
X152551857Y-115698091D01*
X152551857Y-116198091D01*
X153337571Y-113840948D02*
X152623285Y-114340948D01*
X153337571Y-114698091D02*
X151837571Y-114698091D01*
X151837571Y-114126662D01*
X151909000Y-113983805D01*
X151980428Y-113912377D01*
X152123285Y-113840948D01*
X152337571Y-113840948D01*
X152480428Y-113912377D01*
X152551857Y-113983805D01*
X152623285Y-114126662D01*
X152623285Y-114698091D01*
X153337571Y-113198091D02*
X151837571Y-113198091D01*
X153337571Y-112340948D01*
X151837571Y-112340948D01*
X155101857Y-115519520D02*
X155173285Y-115305234D01*
X155244714Y-115233805D01*
X155387571Y-115162377D01*
X155601857Y-115162377D01*
X155744714Y-115233805D01*
X155816142Y-115305234D01*
X155887571Y-115448091D01*
X155887571Y-116019520D01*
X154387571Y-116019520D01*
X154387571Y-115519520D01*
X154459000Y-115376662D01*
X154530428Y-115305234D01*
X154673285Y-115233805D01*
X154816142Y-115233805D01*
X154959000Y-115305234D01*
X155030428Y-115376662D01*
X155101857Y-115519520D01*
X155101857Y-116019520D01*
X155887571Y-113805234D02*
X155887571Y-114519520D01*
X154387571Y-114519520D01*
X155887571Y-113305234D02*
X154387571Y-113305234D01*
X155887571Y-112448091D02*
X155030428Y-113090948D01*
X154387571Y-112448091D02*
X155244714Y-113305234D01*
D11*
X180749106Y-82328980D02*
X181082440Y-83328980D01*
X181415773Y-82328980D01*
X182320535Y-83233742D02*
X182272916Y-83281361D01*
X182130059Y-83328980D01*
X182034820Y-83328980D01*
X181891963Y-83281361D01*
X181796725Y-83186123D01*
X181749106Y-83090885D01*
X181701487Y-82900409D01*
X181701487Y-82757552D01*
X181749106Y-82567076D01*
X181796725Y-82471838D01*
X181891963Y-82376600D01*
X182034820Y-82328980D01*
X182130059Y-82328980D01*
X182272916Y-82376600D01*
X182320535Y-82424219D01*
X183320535Y-83233742D02*
X183272916Y-83281361D01*
X183130059Y-83328980D01*
X183034820Y-83328980D01*
X182891963Y-83281361D01*
X182796725Y-83186123D01*
X182749106Y-83090885D01*
X182701487Y-82900409D01*
X182701487Y-82757552D01*
X182749106Y-82567076D01*
X182796725Y-82471838D01*
X182891963Y-82376600D01*
X183034820Y-82328980D01*
X183130059Y-82328980D01*
X183272916Y-82376600D01*
X183320535Y-82424219D01*
X181320535Y-84126600D02*
X181225297Y-84078980D01*
X181082440Y-84078980D01*
X180939582Y-84126600D01*
X180844344Y-84221838D01*
X180796725Y-84317076D01*
X180749106Y-84507552D01*
X180749106Y-84650409D01*
X180796725Y-84840885D01*
X180844344Y-84936123D01*
X180939582Y-85031361D01*
X181082440Y-85078980D01*
X181177678Y-85078980D01*
X181320535Y-85031361D01*
X181368154Y-84983742D01*
X181368154Y-84650409D01*
X181177678Y-84650409D01*
X181796725Y-85078980D02*
X181796725Y-84078980D01*
X182368154Y-85078980D01*
X182368154Y-84078980D01*
X182844344Y-85078980D02*
X182844344Y-84078980D01*
X183082440Y-84078980D01*
X183225297Y-84126600D01*
X183320535Y-84221838D01*
X183368154Y-84317076D01*
X183415773Y-84507552D01*
X183415773Y-84650409D01*
X183368154Y-84840885D01*
X183320535Y-84936123D01*
X183225297Y-85031361D01*
X183082440Y-85078980D01*
X182844344Y-85078980D01*
X180963392Y-86781361D02*
X181106249Y-86828980D01*
X181344344Y-86828980D01*
X181439582Y-86781361D01*
X181487201Y-86733742D01*
X181534820Y-86638504D01*
X181534820Y-86543266D01*
X181487201Y-86448028D01*
X181439582Y-86400409D01*
X181344344Y-86352790D01*
X181153868Y-86305171D01*
X181058630Y-86257552D01*
X181011011Y-86209933D01*
X180963392Y-86114695D01*
X180963392Y-86019457D01*
X181011011Y-85924219D01*
X181058630Y-85876600D01*
X181153868Y-85828980D01*
X181391963Y-85828980D01*
X181534820Y-85876600D01*
X181963392Y-86305171D02*
X182296725Y-86305171D01*
X182439582Y-86828980D02*
X181963392Y-86828980D01*
X181963392Y-85828980D01*
X182439582Y-85828980D01*
X182725297Y-85828980D02*
X183296725Y-85828980D01*
X183011011Y-86828980D02*
X183011011Y-85828980D01*
X181415773Y-88578980D02*
X181082440Y-88102790D01*
X180844344Y-88578980D02*
X180844344Y-87578980D01*
X181225297Y-87578980D01*
X181320535Y-87626600D01*
X181368154Y-87674219D01*
X181415773Y-87769457D01*
X181415773Y-87912314D01*
X181368154Y-88007552D01*
X181320535Y-88055171D01*
X181225297Y-88102790D01*
X180844344Y-88102790D01*
X181749106Y-87578980D02*
X182415773Y-88578980D01*
X182415773Y-87578980D02*
X181749106Y-88578980D01*
X182796725Y-88578980D02*
X182796725Y-87578980D01*
X183034820Y-87578980D01*
X183177678Y-87626600D01*
X183272916Y-87721838D01*
X183320535Y-87817076D01*
X183368154Y-88007552D01*
X183368154Y-88150409D01*
X183320535Y-88340885D01*
X183272916Y-88436123D01*
X183177678Y-88531361D01*
X183034820Y-88578980D01*
X182796725Y-88578980D01*
X180820535Y-89328980D02*
X181391963Y-89328980D01*
X181106249Y-90328980D02*
X181106249Y-89328980D01*
X181630059Y-89328980D02*
X182296725Y-90328980D01*
X182296725Y-89328980D02*
X181630059Y-90328980D01*
X182677678Y-90328980D02*
X182677678Y-89328980D01*
X182915773Y-89328980D01*
X183058630Y-89376600D01*
X183153868Y-89471838D01*
X183201487Y-89567076D01*
X183249106Y-89757552D01*
X183249106Y-89900409D01*
X183201487Y-90090885D01*
X183153868Y-90186123D01*
X183058630Y-90281361D01*
X182915773Y-90328980D01*
X182677678Y-90328980D01*
X181534820Y-92078980D02*
X181201487Y-91602790D01*
X180963392Y-92078980D02*
X180963392Y-91078980D01*
X181344344Y-91078980D01*
X181439582Y-91126600D01*
X181487201Y-91174219D01*
X181534820Y-91269457D01*
X181534820Y-91412314D01*
X181487201Y-91507552D01*
X181439582Y-91555171D01*
X181344344Y-91602790D01*
X180963392Y-91602790D01*
X181915773Y-92031361D02*
X182058630Y-92078980D01*
X182296725Y-92078980D01*
X182391963Y-92031361D01*
X182439582Y-91983742D01*
X182487201Y-91888504D01*
X182487201Y-91793266D01*
X182439582Y-91698028D01*
X182391963Y-91650409D01*
X182296725Y-91602790D01*
X182106249Y-91555171D01*
X182011011Y-91507552D01*
X181963392Y-91459933D01*
X181915773Y-91364695D01*
X181915773Y-91269457D01*
X181963392Y-91174219D01*
X182011011Y-91126600D01*
X182106249Y-91078980D01*
X182344344Y-91078980D01*
X182487201Y-91126600D01*
X182772916Y-91078980D02*
X183344344Y-91078980D01*
X183058630Y-92078980D02*
X183058630Y-91078980D01*
X181296725Y-93828980D02*
X181296725Y-92828980D01*
X181868154Y-93828980D01*
X181868154Y-92828980D01*
X182915773Y-93733742D02*
X182868154Y-93781361D01*
X182725297Y-93828980D01*
X182630059Y-93828980D01*
X182487201Y-93781361D01*
X182391963Y-93686123D01*
X182344344Y-93590885D01*
X182296725Y-93400409D01*
X182296725Y-93257552D01*
X182344344Y-93067076D01*
X182391963Y-92971838D01*
X182487201Y-92876600D01*
X182630059Y-92828980D01*
X182725297Y-92828980D01*
X182868154Y-92876600D01*
X182915773Y-92924219D01*
X181296725Y-95578980D02*
X181296725Y-94578980D01*
X181868154Y-95578980D01*
X181868154Y-94578980D01*
X182915773Y-95483742D02*
X182868154Y-95531361D01*
X182725297Y-95578980D01*
X182630059Y-95578980D01*
X182487201Y-95531361D01*
X182391963Y-95436123D01*
X182344344Y-95340885D01*
X182296725Y-95150409D01*
X182296725Y-95007552D01*
X182344344Y-94817076D01*
X182391963Y-94721838D01*
X182487201Y-94626600D01*
X182630059Y-94578980D01*
X182725297Y-94578980D01*
X182868154Y-94626600D01*
X182915773Y-94674219D01*
X180708466Y-108247140D02*
X181041800Y-109247140D01*
X181375133Y-108247140D01*
X182279895Y-109151902D02*
X182232276Y-109199521D01*
X182089419Y-109247140D01*
X181994180Y-109247140D01*
X181851323Y-109199521D01*
X181756085Y-109104283D01*
X181708466Y-109009045D01*
X181660847Y-108818569D01*
X181660847Y-108675712D01*
X181708466Y-108485236D01*
X181756085Y-108389998D01*
X181851323Y-108294760D01*
X181994180Y-108247140D01*
X182089419Y-108247140D01*
X182232276Y-108294760D01*
X182279895Y-108342379D01*
X183279895Y-109151902D02*
X183232276Y-109199521D01*
X183089419Y-109247140D01*
X182994180Y-109247140D01*
X182851323Y-109199521D01*
X182756085Y-109104283D01*
X182708466Y-109009045D01*
X182660847Y-108818569D01*
X182660847Y-108675712D01*
X182708466Y-108485236D01*
X182756085Y-108389998D01*
X182851323Y-108294760D01*
X182994180Y-108247140D01*
X183089419Y-108247140D01*
X183232276Y-108294760D01*
X183279895Y-108342379D01*
X181279895Y-110044760D02*
X181184657Y-109997140D01*
X181041800Y-109997140D01*
X180898942Y-110044760D01*
X180803704Y-110139998D01*
X180756085Y-110235236D01*
X180708466Y-110425712D01*
X180708466Y-110568569D01*
X180756085Y-110759045D01*
X180803704Y-110854283D01*
X180898942Y-110949521D01*
X181041800Y-110997140D01*
X181137038Y-110997140D01*
X181279895Y-110949521D01*
X181327514Y-110901902D01*
X181327514Y-110568569D01*
X181137038Y-110568569D01*
X181756085Y-110997140D02*
X181756085Y-109997140D01*
X182327514Y-110997140D01*
X182327514Y-109997140D01*
X182803704Y-110997140D02*
X182803704Y-109997140D01*
X183041800Y-109997140D01*
X183184657Y-110044760D01*
X183279895Y-110139998D01*
X183327514Y-110235236D01*
X183375133Y-110425712D01*
X183375133Y-110568569D01*
X183327514Y-110759045D01*
X183279895Y-110854283D01*
X183184657Y-110949521D01*
X183041800Y-110997140D01*
X182803704Y-110997140D01*
X180922752Y-112699521D02*
X181065609Y-112747140D01*
X181303704Y-112747140D01*
X181398942Y-112699521D01*
X181446561Y-112651902D01*
X181494180Y-112556664D01*
X181494180Y-112461426D01*
X181446561Y-112366188D01*
X181398942Y-112318569D01*
X181303704Y-112270950D01*
X181113228Y-112223331D01*
X181017990Y-112175712D01*
X180970371Y-112128093D01*
X180922752Y-112032855D01*
X180922752Y-111937617D01*
X180970371Y-111842379D01*
X181017990Y-111794760D01*
X181113228Y-111747140D01*
X181351323Y-111747140D01*
X181494180Y-111794760D01*
X181922752Y-112223331D02*
X182256085Y-112223331D01*
X182398942Y-112747140D02*
X181922752Y-112747140D01*
X181922752Y-111747140D01*
X182398942Y-111747140D01*
X182684657Y-111747140D02*
X183256085Y-111747140D01*
X182970371Y-112747140D02*
X182970371Y-111747140D01*
X181375133Y-114497140D02*
X181041800Y-114020950D01*
X180803704Y-114497140D02*
X180803704Y-113497140D01*
X181184657Y-113497140D01*
X181279895Y-113544760D01*
X181327514Y-113592379D01*
X181375133Y-113687617D01*
X181375133Y-113830474D01*
X181327514Y-113925712D01*
X181279895Y-113973331D01*
X181184657Y-114020950D01*
X180803704Y-114020950D01*
X181708466Y-113497140D02*
X182375133Y-114497140D01*
X182375133Y-113497140D02*
X181708466Y-114497140D01*
X182756085Y-114497140D02*
X182756085Y-113497140D01*
X182994180Y-113497140D01*
X183137038Y-113544760D01*
X183232276Y-113639998D01*
X183279895Y-113735236D01*
X183327514Y-113925712D01*
X183327514Y-114068569D01*
X183279895Y-114259045D01*
X183232276Y-114354283D01*
X183137038Y-114449521D01*
X182994180Y-114497140D01*
X182756085Y-114497140D01*
X180779895Y-115247140D02*
X181351323Y-115247140D01*
X181065609Y-116247140D02*
X181065609Y-115247140D01*
X181589419Y-115247140D02*
X182256085Y-116247140D01*
X182256085Y-115247140D02*
X181589419Y-116247140D01*
X182637038Y-116247140D02*
X182637038Y-115247140D01*
X182875133Y-115247140D01*
X183017990Y-115294760D01*
X183113228Y-115389998D01*
X183160847Y-115485236D01*
X183208466Y-115675712D01*
X183208466Y-115818569D01*
X183160847Y-116009045D01*
X183113228Y-116104283D01*
X183017990Y-116199521D01*
X182875133Y-116247140D01*
X182637038Y-116247140D01*
X181494180Y-117997140D02*
X181160847Y-117520950D01*
X180922752Y-117997140D02*
X180922752Y-116997140D01*
X181303704Y-116997140D01*
X181398942Y-117044760D01*
X181446561Y-117092379D01*
X181494180Y-117187617D01*
X181494180Y-117330474D01*
X181446561Y-117425712D01*
X181398942Y-117473331D01*
X181303704Y-117520950D01*
X180922752Y-117520950D01*
X181875133Y-117949521D02*
X182017990Y-117997140D01*
X182256085Y-117997140D01*
X182351323Y-117949521D01*
X182398942Y-117901902D01*
X182446561Y-117806664D01*
X182446561Y-117711426D01*
X182398942Y-117616188D01*
X182351323Y-117568569D01*
X182256085Y-117520950D01*
X182065609Y-117473331D01*
X181970371Y-117425712D01*
X181922752Y-117378093D01*
X181875133Y-117282855D01*
X181875133Y-117187617D01*
X181922752Y-117092379D01*
X181970371Y-117044760D01*
X182065609Y-116997140D01*
X182303704Y-116997140D01*
X182446561Y-117044760D01*
X182732276Y-116997140D02*
X183303704Y-116997140D01*
X183017990Y-117997140D02*
X183017990Y-116997140D01*
X181256085Y-119747140D02*
X181256085Y-118747140D01*
X181827514Y-119747140D01*
X181827514Y-118747140D01*
X182875133Y-119651902D02*
X182827514Y-119699521D01*
X182684657Y-119747140D01*
X182589419Y-119747140D01*
X182446561Y-119699521D01*
X182351323Y-119604283D01*
X182303704Y-119509045D01*
X182256085Y-119318569D01*
X182256085Y-119175712D01*
X182303704Y-118985236D01*
X182351323Y-118889998D01*
X182446561Y-118794760D01*
X182589419Y-118747140D01*
X182684657Y-118747140D01*
X182827514Y-118794760D01*
X182875133Y-118842379D01*
X181256085Y-121497140D02*
X181256085Y-120497140D01*
X181827514Y-121497140D01*
X181827514Y-120497140D01*
X182875133Y-121401902D02*
X182827514Y-121449521D01*
X182684657Y-121497140D01*
X182589419Y-121497140D01*
X182446561Y-121449521D01*
X182351323Y-121354283D01*
X182303704Y-121259045D01*
X182256085Y-121068569D01*
X182256085Y-120925712D01*
X182303704Y-120735236D01*
X182351323Y-120639998D01*
X182446561Y-120544760D01*
X182589419Y-120497140D01*
X182684657Y-120497140D01*
X182827514Y-120544760D01*
X182875133Y-120592379D01*
D10*
X128319720Y-92270834D02*
X128248291Y-92342262D01*
X128034005Y-92413691D01*
X127891148Y-92413691D01*
X127676862Y-92342262D01*
X127534005Y-92199405D01*
X127462577Y-92056548D01*
X127391148Y-91770834D01*
X127391148Y-91556548D01*
X127462577Y-91270834D01*
X127534005Y-91127977D01*
X127676862Y-90985120D01*
X127891148Y-90913691D01*
X128034005Y-90913691D01*
X128248291Y-90985120D01*
X128319720Y-91056548D01*
X128891148Y-92342262D02*
X129105434Y-92413691D01*
X129462577Y-92413691D01*
X129605434Y-92342262D01*
X129676862Y-92270834D01*
X129748291Y-92127977D01*
X129748291Y-91985120D01*
X129676862Y-91842262D01*
X129605434Y-91770834D01*
X129462577Y-91699405D01*
X129176862Y-91627977D01*
X129034005Y-91556548D01*
X128962577Y-91485120D01*
X128891148Y-91342262D01*
X128891148Y-91199405D01*
X128962577Y-91056548D01*
X129034005Y-90985120D01*
X129176862Y-90913691D01*
X129534005Y-90913691D01*
X129748291Y-90985120D01*
X127034005Y-94892262D02*
X127248291Y-94963691D01*
X127605434Y-94963691D01*
X127748291Y-94892262D01*
X127819720Y-94820834D01*
X127891148Y-94677977D01*
X127891148Y-94535120D01*
X127819720Y-94392262D01*
X127748291Y-94320834D01*
X127605434Y-94249405D01*
X127319720Y-94177977D01*
X127176862Y-94106548D01*
X127105434Y-94035120D01*
X127034005Y-93892262D01*
X127034005Y-93749405D01*
X127105434Y-93606548D01*
X127176862Y-93535120D01*
X127319720Y-93463691D01*
X127676862Y-93463691D01*
X127891148Y-93535120D01*
X128534005Y-94963691D02*
X128534005Y-93463691D01*
X128891148Y-93463691D01*
X129105434Y-93535120D01*
X129248291Y-93677977D01*
X129319720Y-93820834D01*
X129391148Y-94106548D01*
X129391148Y-94320834D01*
X129319720Y-94606548D01*
X129248291Y-94749405D01*
X129105434Y-94892262D01*
X128891148Y-94963691D01*
X128534005Y-94963691D01*
X130034005Y-94963691D02*
X130034005Y-93463691D01*
X126605434Y-97442262D02*
X126819720Y-97513691D01*
X127176862Y-97513691D01*
X127319720Y-97442262D01*
X127391148Y-97370834D01*
X127462577Y-97227977D01*
X127462577Y-97085120D01*
X127391148Y-96942262D01*
X127319720Y-96870834D01*
X127176862Y-96799405D01*
X126891148Y-96727977D01*
X126748291Y-96656548D01*
X126676862Y-96585120D01*
X126605434Y-96442262D01*
X126605434Y-96299405D01*
X126676862Y-96156548D01*
X126748291Y-96085120D01*
X126891148Y-96013691D01*
X127248291Y-96013691D01*
X127462577Y-96085120D01*
X128105434Y-97513691D02*
X128105434Y-96013691D01*
X128462577Y-96013691D01*
X128676862Y-96085120D01*
X128819720Y-96227977D01*
X128891148Y-96370834D01*
X128962577Y-96656548D01*
X128962577Y-96870834D01*
X128891148Y-97156548D01*
X128819720Y-97299405D01*
X128676862Y-97442262D01*
X128462577Y-97513691D01*
X128105434Y-97513691D01*
X129891148Y-96013691D02*
X130176862Y-96013691D01*
X130319720Y-96085120D01*
X130462577Y-96227977D01*
X130534005Y-96513691D01*
X130534005Y-97013691D01*
X130462577Y-97299405D01*
X130319720Y-97442262D01*
X130176862Y-97513691D01*
X129891148Y-97513691D01*
X129748291Y-97442262D01*
X129605434Y-97299405D01*
X129534005Y-97013691D01*
X129534005Y-96513691D01*
X129605434Y-96227977D01*
X129748291Y-96085120D01*
X129891148Y-96013691D01*
X126641148Y-99992262D02*
X126855434Y-100063691D01*
X127212577Y-100063691D01*
X127355434Y-99992262D01*
X127426862Y-99920834D01*
X127498291Y-99777977D01*
X127498291Y-99635120D01*
X127426862Y-99492262D01*
X127355434Y-99420834D01*
X127212577Y-99349405D01*
X126926862Y-99277977D01*
X126784005Y-99206548D01*
X126712577Y-99135120D01*
X126641148Y-98992262D01*
X126641148Y-98849405D01*
X126712577Y-98706548D01*
X126784005Y-98635120D01*
X126926862Y-98563691D01*
X127284005Y-98563691D01*
X127498291Y-98635120D01*
X128998291Y-99920834D02*
X128926862Y-99992262D01*
X128712577Y-100063691D01*
X128569720Y-100063691D01*
X128355434Y-99992262D01*
X128212577Y-99849405D01*
X128141148Y-99706548D01*
X128069720Y-99420834D01*
X128069720Y-99206548D01*
X128141148Y-98920834D01*
X128212577Y-98777977D01*
X128355434Y-98635120D01*
X128569720Y-98563691D01*
X128712577Y-98563691D01*
X128926862Y-98635120D01*
X128998291Y-98706548D01*
X129641148Y-100063691D02*
X129641148Y-98563691D01*
X130498291Y-100063691D02*
X129855434Y-99206548D01*
X130498291Y-98563691D02*
X129641148Y-99420834D01*
X127426862Y-101185120D02*
X127284005Y-101113691D01*
X127069720Y-101113691D01*
X126855434Y-101185120D01*
X126712577Y-101327977D01*
X126641148Y-101470834D01*
X126569720Y-101756548D01*
X126569720Y-101970834D01*
X126641148Y-102256548D01*
X126712577Y-102399405D01*
X126855434Y-102542262D01*
X127069720Y-102613691D01*
X127212577Y-102613691D01*
X127426862Y-102542262D01*
X127498291Y-102470834D01*
X127498291Y-101970834D01*
X127212577Y-101970834D01*
X128141148Y-102613691D02*
X128141148Y-101113691D01*
X128998291Y-102613691D01*
X128998291Y-101113691D01*
X129712577Y-102613691D02*
X129712577Y-101113691D01*
X130069720Y-101113691D01*
X130284005Y-101185120D01*
X130426862Y-101327977D01*
X130498291Y-101470834D01*
X130569720Y-101756548D01*
X130569720Y-101970834D01*
X130498291Y-102256548D01*
X130426862Y-102399405D01*
X130284005Y-102542262D01*
X130069720Y-102613691D01*
X129712577Y-102613691D01*
X126748291Y-103663691D02*
X127676862Y-103663691D01*
X127176862Y-104235120D01*
X127391148Y-104235120D01*
X127534005Y-104306548D01*
X127605434Y-104377977D01*
X127676862Y-104520834D01*
X127676862Y-104877977D01*
X127605434Y-105020834D01*
X127534005Y-105092262D01*
X127391148Y-105163691D01*
X126962577Y-105163691D01*
X126819720Y-105092262D01*
X126748291Y-105020834D01*
X128105434Y-103663691D02*
X128605434Y-105163691D01*
X129105434Y-103663691D01*
X129819720Y-105163691D02*
X129676862Y-105092262D01*
X129605434Y-105020834D01*
X129534005Y-104877977D01*
X129534005Y-104449405D01*
X129605434Y-104306548D01*
X129676862Y-104235120D01*
X129819720Y-104163691D01*
X130034005Y-104163691D01*
X130176862Y-104235120D01*
X130248291Y-104306548D01*
X130319720Y-104449405D01*
X130319720Y-104877977D01*
X130248291Y-105020834D01*
X130176862Y-105092262D01*
X130034005Y-105163691D01*
X129819720Y-105163691D01*
X126926862Y-106213691D02*
X127426862Y-107713691D01*
X127926862Y-106213691D01*
X128426862Y-107713691D02*
X128426862Y-106213691D01*
X129141148Y-107713691D02*
X129141148Y-106213691D01*
X129998291Y-107713691D01*
X129998291Y-106213691D01*
D12*
G04 #@! TO.C,C8*
X167177000Y-99074864D02*
X167177000Y-97870736D01*
X168997000Y-99074864D02*
X168997000Y-97870736D01*
G04 #@! TO.C,C7*
X168936000Y-89837364D02*
X168936000Y-88633236D01*
X167116000Y-89837364D02*
X167116000Y-88633236D01*
G04 #@! TO.C,C6*
X150306936Y-108300000D02*
X151511064Y-108300000D01*
X150306936Y-110120000D02*
X151511064Y-110120000D01*
G04 #@! TO.C,C5*
X161562064Y-83397700D02*
X160357936Y-83397700D01*
X161562064Y-85217700D02*
X160357936Y-85217700D01*
D13*
G04 #@! TO.C,U4*
X131519000Y-79690400D02*
X131519000Y-80345400D01*
X137019000Y-79690400D02*
X137019000Y-80440400D01*
X137019000Y-86100400D02*
X137019000Y-85350400D01*
X131519000Y-86100400D02*
X131519000Y-85350400D01*
X131519000Y-79690400D02*
X137019000Y-79690400D01*
X131519000Y-86100400D02*
X137019000Y-86100400D01*
X131519000Y-80345400D02*
X129769000Y-80345400D01*
D12*
G04 #@! TO.C,U3*
X176146000Y-128287000D02*
X176146000Y-129797000D01*
X172445000Y-128287000D02*
X172445000Y-129797000D01*
X169175000Y-129797000D02*
X179415000Y-129797000D01*
X179415000Y-128287000D02*
X179415000Y-132928000D01*
X169175000Y-128287000D02*
X169175000Y-132928000D01*
X169175000Y-132928000D02*
X179415000Y-132928000D01*
X169175000Y-128287000D02*
X179415000Y-128287000D01*
G04 #@! TO.C,RV2*
X172193000Y-74172764D02*
X172193000Y-72968636D01*
X174913000Y-74172764D02*
X174913000Y-72968636D01*
G04 #@! TO.C,JP1*
X172188000Y-101818000D02*
X174848000Y-101818000D01*
X172188000Y-101818000D02*
X172188000Y-104418000D01*
X172188000Y-104418000D02*
X174848000Y-104418000D01*
X174848000Y-101818000D02*
X174848000Y-104418000D01*
X174848000Y-99218000D02*
X174848000Y-100548000D01*
X173518000Y-99218000D02*
X174848000Y-99218000D01*
G04 #@! TO.C,J1*
X148549000Y-119603000D02*
X148549000Y-116943000D01*
X148549000Y-119603000D02*
X156229000Y-119603000D01*
X156229000Y-119603000D02*
X156229000Y-116943000D01*
X148549000Y-116943000D02*
X156229000Y-116943000D01*
X145949000Y-116943000D02*
X147279000Y-116943000D01*
X145949000Y-118273000D02*
X145949000Y-116943000D01*
G04 #@! TO.C,CON1*
X130002000Y-125429000D02*
X150862000Y-125429000D01*
X150862000Y-125429000D02*
X150862000Y-134779000D01*
X150862000Y-134779000D02*
X130002000Y-134779000D01*
X130002000Y-134779000D02*
X130002000Y-125429000D01*
X129752000Y-135029000D02*
X132292000Y-135029000D01*
X129752000Y-135029000D02*
X129752000Y-132489000D01*
G04 #@! TO.C,C10*
X169426000Y-109701000D02*
X169426000Y-111401000D01*
X169426000Y-115221000D02*
X169426000Y-113521000D01*
X173881563Y-115221000D02*
X169426000Y-115221000D01*
X173881563Y-109701000D02*
X169426000Y-109701000D01*
X174946000Y-110765437D02*
X174946000Y-111401000D01*
X174946000Y-114156563D02*
X174946000Y-113521000D01*
X174946000Y-114156563D02*
X173881563Y-115221000D01*
X174946000Y-110765437D02*
X173881563Y-109701000D01*
X175811000Y-114146000D02*
X175186000Y-114146000D01*
X175498500Y-114458500D02*
X175498500Y-113833500D01*
G04 #@! TO.C,C1*
X175132500Y-123541500D02*
X175132500Y-122916500D01*
X175445000Y-123229000D02*
X174820000Y-123229000D01*
X174580000Y-119848437D02*
X173515563Y-118784000D01*
X174580000Y-123239563D02*
X173515563Y-124304000D01*
X174580000Y-123239563D02*
X174580000Y-122604000D01*
X174580000Y-119848437D02*
X174580000Y-120484000D01*
X173515563Y-118784000D02*
X169060000Y-118784000D01*
X173515563Y-124304000D02*
X169060000Y-124304000D01*
X169060000Y-124304000D02*
X169060000Y-122604000D01*
X169060000Y-118784000D02*
X169060000Y-120484000D01*
G04 #@! TO.C,RV1*
X172137000Y-79685236D02*
X172137000Y-80889364D01*
X174857000Y-79685236D02*
X174857000Y-80889364D01*
G04 #@! TO.C,U1*
X156358000Y-128104000D02*
X166598000Y-128104000D01*
X156358000Y-132745000D02*
X166598000Y-132745000D01*
X156358000Y-128104000D02*
X156358000Y-132745000D01*
X166598000Y-128104000D02*
X166598000Y-132745000D01*
X156358000Y-129614000D02*
X166598000Y-129614000D01*
X159628000Y-128104000D02*
X159628000Y-129614000D01*
X163329000Y-128104000D02*
X163329000Y-129614000D01*
D13*
G04 #@! TO.C,U2*
X147358000Y-88399300D02*
X147358000Y-89049300D01*
X161608000Y-88399300D02*
X161608000Y-89159300D01*
X161608000Y-102649300D02*
X161608000Y-101889300D01*
X147358000Y-102649300D02*
X147358000Y-101889300D01*
X147358000Y-88399300D02*
X148118000Y-88399300D01*
X147358000Y-102649300D02*
X148118000Y-102649300D01*
X161608000Y-102649300D02*
X160848000Y-102649300D01*
X161608000Y-88399300D02*
X160848000Y-88399300D01*
X147358000Y-89049300D02*
X145833000Y-89049300D01*
D12*
G04 #@! TO.C,C4*
X140487000Y-99593964D02*
X140487000Y-98389836D01*
X142307000Y-99593964D02*
X142307000Y-98389836D01*
G04 #@! TO.C,R3*
X133400936Y-119122000D02*
X134605064Y-119122000D01*
X133400936Y-117302000D02*
X134605064Y-117302000D01*
G04 #@! TO.C,D2*
X127871000Y-117351000D02*
X123986000Y-117351000D01*
X127871000Y-119621000D02*
X127871000Y-117351000D01*
X123986000Y-119621000D02*
X127871000Y-119621000D01*
G04 #@! TO.C,C9*
X134184000Y-75706864D02*
X134184000Y-74502736D01*
X132364000Y-75706864D02*
X132364000Y-74502736D01*
G04 #@! TO.C,J3*
X134396000Y-70443400D02*
X134396000Y-67783400D01*
X134396000Y-70443400D02*
X147156000Y-70443400D01*
X147156000Y-70443400D02*
X147156000Y-67783400D01*
X134396000Y-67783400D02*
X147156000Y-67783400D01*
X131796000Y-67783400D02*
X133126000Y-67783400D01*
X131796000Y-69113400D02*
X131796000Y-67783400D01*
G04 #@! TO.C,F1*
X168305252Y-78183200D02*
X165532748Y-78183200D01*
X168305252Y-81603200D02*
X165532748Y-81603200D01*
G04 #@! TO.C,D1*
X161622000Y-77439700D02*
X161622000Y-76509700D01*
X161622000Y-74279700D02*
X161622000Y-75209700D01*
X161622000Y-74279700D02*
X159462000Y-74279700D01*
X161622000Y-77439700D02*
X160162000Y-77439700D01*
G04 #@! TO.C,F2*
X168244252Y-75878000D02*
X165471748Y-75878000D01*
X168244252Y-72458000D02*
X165471748Y-72458000D01*
G04 #@! TO.C,J2*
X132269000Y-92725200D02*
X134929000Y-92725200D01*
X132269000Y-92725200D02*
X132269000Y-108025200D01*
X132269000Y-108025200D02*
X134929000Y-108025200D01*
X134929000Y-92725200D02*
X134929000Y-108025200D01*
X134929000Y-90125200D02*
X134929000Y-91455200D01*
X133599000Y-90125200D02*
X134929000Y-90125200D01*
G04 #@! TO.C,R4*
X133456936Y-112979000D02*
X134661064Y-112979000D01*
X133456936Y-114799000D02*
X134661064Y-114799000D01*
G04 #@! TO.C,C11*
X159029936Y-108066000D02*
X160234064Y-108066000D01*
X159029936Y-109886000D02*
X160234064Y-109886000D01*
G04 #@! TO.C,C3*
X142281000Y-91968864D02*
X142281000Y-90764736D01*
X140461000Y-91968864D02*
X140461000Y-90764736D01*
G04 #@! TO.C,C2*
X151404064Y-85121200D02*
X150199936Y-85121200D01*
X151404064Y-83301200D02*
X150199936Y-83301200D01*
G04 #@! TO.C,D3*
X124042000Y-115079000D02*
X127927000Y-115079000D01*
X127927000Y-115079000D02*
X127927000Y-112809000D01*
X127927000Y-112809000D02*
X124042000Y-112809000D01*
G04 #@! TO.C,J4*
X190764000Y-83417000D02*
X190314000Y-83417000D01*
X190764000Y-95387000D02*
X190764000Y-83417000D01*
X190314000Y-95387000D02*
X190764000Y-95387000D01*
X186344000Y-83417000D02*
X186344000Y-84367000D01*
X186794000Y-83417000D02*
X186344000Y-83417000D01*
X186344000Y-94437000D02*
X184854000Y-94437000D01*
X186344000Y-95387000D02*
X186344000Y-94437000D01*
X186794000Y-95387000D02*
X186344000Y-95387000D01*
G04 #@! TO.C,J5*
X187226000Y-120447000D02*
X186776000Y-120447000D01*
X186776000Y-120447000D02*
X186776000Y-119497000D01*
X186776000Y-119497000D02*
X185286000Y-119497000D01*
X187226000Y-108477000D02*
X186776000Y-108477000D01*
X186776000Y-108477000D02*
X186776000Y-109427000D01*
X190746000Y-120447000D02*
X191196000Y-120447000D01*
X191196000Y-120447000D02*
X191196000Y-108477000D01*
X191196000Y-108477000D02*
X190746000Y-108477000D01*
G04 #@! TO.C,R1*
X151720369Y-71643000D02*
X150125631Y-71643000D01*
X151720369Y-76063000D02*
X150125631Y-76063000D01*
G04 #@! TO.C,R2*
X151623369Y-81808500D02*
X150028631Y-81808500D01*
X151623369Y-77388500D02*
X150028631Y-77388500D01*
G04 #@! TO.C,H2*
D13*
X184988095Y-68752380D02*
X184988095Y-67752380D01*
X184988095Y-68228571D02*
X185559523Y-68228571D01*
X185559523Y-68752380D02*
X185559523Y-67752380D01*
X185988095Y-67847619D02*
X186035714Y-67800000D01*
X186130952Y-67752380D01*
X186369047Y-67752380D01*
X186464285Y-67800000D01*
X186511904Y-67847619D01*
X186559523Y-67942857D01*
X186559523Y-68038095D01*
X186511904Y-68180952D01*
X185940476Y-68752380D01*
X186559523Y-68752380D01*
G04 #@! TO.C,C8*
X166624142Y-98639466D02*
X166671761Y-98687085D01*
X166719380Y-98829942D01*
X166719380Y-98925180D01*
X166671761Y-99068038D01*
X166576523Y-99163276D01*
X166481285Y-99210895D01*
X166290809Y-99258514D01*
X166147952Y-99258514D01*
X165957476Y-99210895D01*
X165862238Y-99163276D01*
X165767000Y-99068038D01*
X165719380Y-98925180D01*
X165719380Y-98829942D01*
X165767000Y-98687085D01*
X165814619Y-98639466D01*
X166147952Y-98068038D02*
X166100333Y-98163276D01*
X166052714Y-98210895D01*
X165957476Y-98258514D01*
X165909857Y-98258514D01*
X165814619Y-98210895D01*
X165767000Y-98163276D01*
X165719380Y-98068038D01*
X165719380Y-97877561D01*
X165767000Y-97782323D01*
X165814619Y-97734704D01*
X165909857Y-97687085D01*
X165957476Y-97687085D01*
X166052714Y-97734704D01*
X166100333Y-97782323D01*
X166147952Y-97877561D01*
X166147952Y-98068038D01*
X166195571Y-98163276D01*
X166243190Y-98210895D01*
X166338428Y-98258514D01*
X166528904Y-98258514D01*
X166624142Y-98210895D01*
X166671761Y-98163276D01*
X166719380Y-98068038D01*
X166719380Y-97877561D01*
X166671761Y-97782323D01*
X166624142Y-97734704D01*
X166528904Y-97687085D01*
X166338428Y-97687085D01*
X166243190Y-97734704D01*
X166195571Y-97782323D01*
X166147952Y-97877561D01*
X170359380Y-99068038D02*
X170359380Y-99639466D01*
X170359380Y-99353752D02*
X169359380Y-99353752D01*
X169502238Y-99448990D01*
X169597476Y-99544228D01*
X169645095Y-99639466D01*
X169692714Y-98210895D02*
X170359380Y-98210895D01*
X169692714Y-98639466D02*
X170216523Y-98639466D01*
X170311761Y-98591847D01*
X170359380Y-98496609D01*
X170359380Y-98353752D01*
X170311761Y-98258514D01*
X170264142Y-98210895D01*
X169835571Y-97401371D02*
X169835571Y-97734704D01*
X170359380Y-97734704D02*
X169359380Y-97734704D01*
X169359380Y-97258514D01*
G04 #@! TO.C,C7*
X166563142Y-89401966D02*
X166610761Y-89449585D01*
X166658380Y-89592442D01*
X166658380Y-89687680D01*
X166610761Y-89830538D01*
X166515523Y-89925776D01*
X166420285Y-89973395D01*
X166229809Y-90021014D01*
X166086952Y-90021014D01*
X165896476Y-89973395D01*
X165801238Y-89925776D01*
X165706000Y-89830538D01*
X165658380Y-89687680D01*
X165658380Y-89592442D01*
X165706000Y-89449585D01*
X165753619Y-89401966D01*
X165658380Y-89068633D02*
X165658380Y-88401966D01*
X166658380Y-88830538D01*
X170203142Y-90592442D02*
X170250761Y-90544823D01*
X170298380Y-90592442D01*
X170250761Y-90640061D01*
X170203142Y-90592442D01*
X170298380Y-90592442D01*
X170298380Y-89592442D02*
X170298380Y-90163871D01*
X170298380Y-89878157D02*
X169298380Y-89878157D01*
X169441238Y-89973395D01*
X169536476Y-90068633D01*
X169584095Y-90163871D01*
X169631714Y-88735300D02*
X170298380Y-88735300D01*
X169631714Y-89163871D02*
X170155523Y-89163871D01*
X170250761Y-89116252D01*
X170298380Y-89021014D01*
X170298380Y-88878157D01*
X170250761Y-88782919D01*
X170203142Y-88735300D01*
X169774571Y-87925776D02*
X169774571Y-88259109D01*
X170298380Y-88259109D02*
X169298380Y-88259109D01*
X169298380Y-87782919D01*
G04 #@! TO.C,C6*
X150742333Y-107747142D02*
X150694714Y-107794761D01*
X150551857Y-107842380D01*
X150456619Y-107842380D01*
X150313761Y-107794761D01*
X150218523Y-107699523D01*
X150170904Y-107604285D01*
X150123285Y-107413809D01*
X150123285Y-107270952D01*
X150170904Y-107080476D01*
X150218523Y-106985238D01*
X150313761Y-106890000D01*
X150456619Y-106842380D01*
X150551857Y-106842380D01*
X150694714Y-106890000D01*
X150742333Y-106937619D01*
X151599476Y-106842380D02*
X151409000Y-106842380D01*
X151313761Y-106890000D01*
X151266142Y-106937619D01*
X151170904Y-107080476D01*
X151123285Y-107270952D01*
X151123285Y-107651904D01*
X151170904Y-107747142D01*
X151218523Y-107794761D01*
X151313761Y-107842380D01*
X151504238Y-107842380D01*
X151599476Y-107794761D01*
X151647095Y-107747142D01*
X151694714Y-107651904D01*
X151694714Y-107413809D01*
X151647095Y-107318571D01*
X151599476Y-107270952D01*
X151504238Y-107223333D01*
X151313761Y-107223333D01*
X151218523Y-107270952D01*
X151170904Y-107318571D01*
X151123285Y-107413809D01*
X150313761Y-111482380D02*
X149742333Y-111482380D01*
X150028047Y-111482380D02*
X150028047Y-110482380D01*
X149932809Y-110625238D01*
X149837571Y-110720476D01*
X149742333Y-110768095D01*
X151170904Y-110815714D02*
X151170904Y-111482380D01*
X150742333Y-110815714D02*
X150742333Y-111339523D01*
X150789952Y-111434761D01*
X150885190Y-111482380D01*
X151028047Y-111482380D01*
X151123285Y-111434761D01*
X151170904Y-111387142D01*
X151980428Y-110958571D02*
X151647095Y-110958571D01*
X151647095Y-111482380D02*
X151647095Y-110482380D01*
X152123285Y-110482380D01*
G04 #@! TO.C,C5*
X160793333Y-86484842D02*
X160745714Y-86532461D01*
X160602857Y-86580080D01*
X160507619Y-86580080D01*
X160364761Y-86532461D01*
X160269523Y-86437223D01*
X160221904Y-86341985D01*
X160174285Y-86151509D01*
X160174285Y-86008652D01*
X160221904Y-85818176D01*
X160269523Y-85722938D01*
X160364761Y-85627700D01*
X160507619Y-85580080D01*
X160602857Y-85580080D01*
X160745714Y-85627700D01*
X160793333Y-85675319D01*
X161698095Y-85580080D02*
X161221904Y-85580080D01*
X161174285Y-86056271D01*
X161221904Y-86008652D01*
X161317142Y-85961033D01*
X161555238Y-85961033D01*
X161650476Y-86008652D01*
X161698095Y-86056271D01*
X161745714Y-86151509D01*
X161745714Y-86389604D01*
X161698095Y-86484842D01*
X161650476Y-86532461D01*
X161555238Y-86580080D01*
X161317142Y-86580080D01*
X161221904Y-86532461D01*
X161174285Y-86484842D01*
G04 #@! TO.C,H1*
X124238095Y-68752380D02*
X124238095Y-67752380D01*
X124238095Y-68228571D02*
X124809523Y-68228571D01*
X124809523Y-68752380D02*
X124809523Y-67752380D01*
X125809523Y-68752380D02*
X125238095Y-68752380D01*
X125523809Y-68752380D02*
X125523809Y-67752380D01*
X125428571Y-67895238D01*
X125333333Y-67990476D01*
X125238095Y-68038095D01*
G04 #@! TO.C,U4*
X133507095Y-78217780D02*
X133507095Y-79027304D01*
X133554714Y-79122542D01*
X133602333Y-79170161D01*
X133697571Y-79217780D01*
X133888047Y-79217780D01*
X133983285Y-79170161D01*
X134030904Y-79122542D01*
X134078523Y-79027304D01*
X134078523Y-78217780D01*
X134983285Y-78551114D02*
X134983285Y-79217780D01*
X134745190Y-78170161D02*
X134507095Y-78884447D01*
X135126142Y-78884447D01*
G04 #@! TO.C,U3*
X173533095Y-126739380D02*
X173533095Y-127548904D01*
X173580714Y-127644142D01*
X173628333Y-127691761D01*
X173723571Y-127739380D01*
X173914047Y-127739380D01*
X174009285Y-127691761D01*
X174056904Y-127644142D01*
X174104523Y-127548904D01*
X174104523Y-126739380D01*
X174485476Y-126739380D02*
X175104523Y-126739380D01*
X174771190Y-127120333D01*
X174914047Y-127120333D01*
X175009285Y-127167952D01*
X175056904Y-127215571D01*
X175104523Y-127310809D01*
X175104523Y-127548904D01*
X175056904Y-127644142D01*
X175009285Y-127691761D01*
X174914047Y-127739380D01*
X174628333Y-127739380D01*
X174533095Y-127691761D01*
X174485476Y-127644142D01*
G04 #@! TO.C,RV2*
X176697780Y-73965738D02*
X176221590Y-74299071D01*
X176697780Y-74537166D02*
X175697780Y-74537166D01*
X175697780Y-74156214D01*
X175745400Y-74060976D01*
X175793019Y-74013357D01*
X175888257Y-73965738D01*
X176031114Y-73965738D01*
X176126352Y-74013357D01*
X176173971Y-74060976D01*
X176221590Y-74156214D01*
X176221590Y-74537166D01*
X175697780Y-73680023D02*
X176697780Y-73346690D01*
X175697780Y-73013357D01*
X175793019Y-72727642D02*
X175745400Y-72680023D01*
X175697780Y-72584785D01*
X175697780Y-72346690D01*
X175745400Y-72251452D01*
X175793019Y-72203833D01*
X175888257Y-72156214D01*
X175983495Y-72156214D01*
X176126352Y-72203833D01*
X176697780Y-72775261D01*
X176697780Y-72156214D01*
G04 #@! TO.C,JP1*
X172684666Y-97230380D02*
X172684666Y-97944666D01*
X172637047Y-98087523D01*
X172541809Y-98182761D01*
X172398952Y-98230380D01*
X172303714Y-98230380D01*
X173160857Y-98230380D02*
X173160857Y-97230380D01*
X173541809Y-97230380D01*
X173637047Y-97278000D01*
X173684666Y-97325619D01*
X173732285Y-97420857D01*
X173732285Y-97563714D01*
X173684666Y-97658952D01*
X173637047Y-97706571D01*
X173541809Y-97754190D01*
X173160857Y-97754190D01*
X174684666Y-98230380D02*
X174113238Y-98230380D01*
X174398952Y-98230380D02*
X174398952Y-97230380D01*
X174303714Y-97373238D01*
X174208476Y-97468476D01*
X174113238Y-97516095D01*
G04 #@! TO.C,J1*
X143961380Y-118606333D02*
X144675666Y-118606333D01*
X144818523Y-118653952D01*
X144913761Y-118749190D01*
X144961380Y-118892047D01*
X144961380Y-118987285D01*
X144961380Y-117606333D02*
X144961380Y-118177761D01*
X144961380Y-117892047D02*
X143961380Y-117892047D01*
X144104238Y-117987285D01*
X144199476Y-118082523D01*
X144247095Y-118177761D01*
G04 #@! TO.C,CON1*
X129105142Y-131318285D02*
X129152761Y-131365904D01*
X129200380Y-131508761D01*
X129200380Y-131604000D01*
X129152761Y-131746857D01*
X129057523Y-131842095D01*
X128962285Y-131889714D01*
X128771809Y-131937333D01*
X128628952Y-131937333D01*
X128438476Y-131889714D01*
X128343238Y-131842095D01*
X128248000Y-131746857D01*
X128200380Y-131604000D01*
X128200380Y-131508761D01*
X128248000Y-131365904D01*
X128295619Y-131318285D01*
X128200380Y-130699238D02*
X128200380Y-130508761D01*
X128248000Y-130413523D01*
X128343238Y-130318285D01*
X128533714Y-130270666D01*
X128867047Y-130270666D01*
X129057523Y-130318285D01*
X129152761Y-130413523D01*
X129200380Y-130508761D01*
X129200380Y-130699238D01*
X129152761Y-130794476D01*
X129057523Y-130889714D01*
X128867047Y-130937333D01*
X128533714Y-130937333D01*
X128343238Y-130889714D01*
X128248000Y-130794476D01*
X128200380Y-130699238D01*
X129200380Y-129842095D02*
X128200380Y-129842095D01*
X129200380Y-129270666D01*
X128200380Y-129270666D01*
X129200380Y-128270666D02*
X129200380Y-128842095D01*
X129200380Y-128556380D02*
X128200380Y-128556380D01*
X128343238Y-128651619D01*
X128438476Y-128746857D01*
X128486095Y-128842095D01*
G04 #@! TO.C,H4*
X124238095Y-126752380D02*
X124238095Y-125752380D01*
X124238095Y-126228571D02*
X124809523Y-126228571D01*
X124809523Y-126752380D02*
X124809523Y-125752380D01*
X125714285Y-126085714D02*
X125714285Y-126752380D01*
X125476190Y-125704761D02*
X125238095Y-126419047D01*
X125857142Y-126419047D01*
G04 #@! TO.C,C10*
X171543142Y-116518142D02*
X171495523Y-116565761D01*
X171352666Y-116613380D01*
X171257428Y-116613380D01*
X171114571Y-116565761D01*
X171019333Y-116470523D01*
X170971714Y-116375285D01*
X170924095Y-116184809D01*
X170924095Y-116041952D01*
X170971714Y-115851476D01*
X171019333Y-115756238D01*
X171114571Y-115661000D01*
X171257428Y-115613380D01*
X171352666Y-115613380D01*
X171495523Y-115661000D01*
X171543142Y-115708619D01*
X172495523Y-116613380D02*
X171924095Y-116613380D01*
X172209809Y-116613380D02*
X172209809Y-115613380D01*
X172114571Y-115756238D01*
X172019333Y-115851476D01*
X171924095Y-115899095D01*
X173114571Y-115613380D02*
X173209809Y-115613380D01*
X173305047Y-115661000D01*
X173352666Y-115708619D01*
X173400285Y-115803857D01*
X173447904Y-115994333D01*
X173447904Y-116232428D01*
X173400285Y-116422904D01*
X173352666Y-116518142D01*
X173305047Y-116565761D01*
X173209809Y-116613380D01*
X173114571Y-116613380D01*
X173019333Y-116565761D01*
X172971714Y-116518142D01*
X172924095Y-116422904D01*
X172876476Y-116232428D01*
X172876476Y-115994333D01*
X172924095Y-115803857D01*
X172971714Y-115708619D01*
X173019333Y-115661000D01*
X173114571Y-115613380D01*
G04 #@! TO.C,C1*
X171653333Y-125601142D02*
X171605714Y-125648761D01*
X171462857Y-125696380D01*
X171367619Y-125696380D01*
X171224761Y-125648761D01*
X171129523Y-125553523D01*
X171081904Y-125458285D01*
X171034285Y-125267809D01*
X171034285Y-125124952D01*
X171081904Y-124934476D01*
X171129523Y-124839238D01*
X171224761Y-124744000D01*
X171367619Y-124696380D01*
X171462857Y-124696380D01*
X171605714Y-124744000D01*
X171653333Y-124791619D01*
X172605714Y-125696380D02*
X172034285Y-125696380D01*
X172320000Y-125696380D02*
X172320000Y-124696380D01*
X172224761Y-124839238D01*
X172129523Y-124934476D01*
X172034285Y-124982095D01*
G04 #@! TO.C,RV1*
X176229380Y-80882538D02*
X175753190Y-81215871D01*
X176229380Y-81453966D02*
X175229380Y-81453966D01*
X175229380Y-81073014D01*
X175277000Y-80977776D01*
X175324619Y-80930157D01*
X175419857Y-80882538D01*
X175562714Y-80882538D01*
X175657952Y-80930157D01*
X175705571Y-80977776D01*
X175753190Y-81073014D01*
X175753190Y-81453966D01*
X175229380Y-80596823D02*
X176229380Y-80263490D01*
X175229380Y-79930157D01*
X176229380Y-79073014D02*
X176229380Y-79644442D01*
X176229380Y-79358728D02*
X175229380Y-79358728D01*
X175372238Y-79453966D01*
X175467476Y-79549204D01*
X175515095Y-79644442D01*
G04 #@! TO.C,U1*
X160716095Y-126556380D02*
X160716095Y-127365904D01*
X160763714Y-127461142D01*
X160811333Y-127508761D01*
X160906571Y-127556380D01*
X161097047Y-127556380D01*
X161192285Y-127508761D01*
X161239904Y-127461142D01*
X161287523Y-127365904D01*
X161287523Y-126556380D01*
X162287523Y-127556380D02*
X161716095Y-127556380D01*
X162001809Y-127556380D02*
X162001809Y-126556380D01*
X161906571Y-126699238D01*
X161811333Y-126794476D01*
X161716095Y-126842095D01*
G04 #@! TO.C,U2*
X153721095Y-85326680D02*
X153721095Y-86136204D01*
X153768714Y-86231442D01*
X153816333Y-86279061D01*
X153911571Y-86326680D01*
X154102047Y-86326680D01*
X154197285Y-86279061D01*
X154244904Y-86231442D01*
X154292523Y-86136204D01*
X154292523Y-85326680D01*
X154721095Y-85421919D02*
X154768714Y-85374300D01*
X154863952Y-85326680D01*
X155102047Y-85326680D01*
X155197285Y-85374300D01*
X155244904Y-85421919D01*
X155292523Y-85517157D01*
X155292523Y-85612395D01*
X155244904Y-85755252D01*
X154673476Y-86326680D01*
X155292523Y-86326680D01*
G04 #@! TO.C,C4*
X139934142Y-99158566D02*
X139981761Y-99206185D01*
X140029380Y-99349042D01*
X140029380Y-99444280D01*
X139981761Y-99587138D01*
X139886523Y-99682376D01*
X139791285Y-99729995D01*
X139600809Y-99777614D01*
X139457952Y-99777614D01*
X139267476Y-99729995D01*
X139172238Y-99682376D01*
X139077000Y-99587138D01*
X139029380Y-99444280D01*
X139029380Y-99349042D01*
X139077000Y-99206185D01*
X139124619Y-99158566D01*
X139362714Y-98301423D02*
X140029380Y-98301423D01*
X138981761Y-98539519D02*
X139696047Y-98777614D01*
X139696047Y-98158566D01*
X143669380Y-99587138D02*
X143669380Y-100158566D01*
X143669380Y-99872852D02*
X142669380Y-99872852D01*
X142812238Y-99968090D01*
X142907476Y-100063328D01*
X142955095Y-100158566D01*
X143002714Y-98729995D02*
X143669380Y-98729995D01*
X143002714Y-99158566D02*
X143526523Y-99158566D01*
X143621761Y-99110947D01*
X143669380Y-99015709D01*
X143669380Y-98872852D01*
X143621761Y-98777614D01*
X143574142Y-98729995D01*
X143145571Y-97920471D02*
X143145571Y-98253804D01*
X143669380Y-98253804D02*
X142669380Y-98253804D01*
X142669380Y-97777614D01*
G04 #@! TO.C,R3*
X133836333Y-116844380D02*
X133503000Y-116368190D01*
X133264904Y-116844380D02*
X133264904Y-115844380D01*
X133645857Y-115844380D01*
X133741095Y-115892000D01*
X133788714Y-115939619D01*
X133836333Y-116034857D01*
X133836333Y-116177714D01*
X133788714Y-116272952D01*
X133741095Y-116320571D01*
X133645857Y-116368190D01*
X133264904Y-116368190D01*
X134169666Y-115844380D02*
X134788714Y-115844380D01*
X134455380Y-116225333D01*
X134598238Y-116225333D01*
X134693476Y-116272952D01*
X134741095Y-116320571D01*
X134788714Y-116415809D01*
X134788714Y-116653904D01*
X134741095Y-116749142D01*
X134693476Y-116796761D01*
X134598238Y-116844380D01*
X134312523Y-116844380D01*
X134217285Y-116796761D01*
X134169666Y-116749142D01*
X136844325Y-117674540D02*
X137463373Y-117674540D01*
X137130040Y-118055493D01*
X137272897Y-118055493D01*
X137368135Y-118103112D01*
X137415754Y-118150731D01*
X137463373Y-118245969D01*
X137463373Y-118484064D01*
X137415754Y-118579302D01*
X137368135Y-118626921D01*
X137272897Y-118674540D01*
X136987182Y-118674540D01*
X136891944Y-118626921D01*
X136844325Y-118579302D01*
X137796706Y-117674540D02*
X138415754Y-117674540D01*
X138082420Y-118055493D01*
X138225278Y-118055493D01*
X138320516Y-118103112D01*
X138368135Y-118150731D01*
X138415754Y-118245969D01*
X138415754Y-118484064D01*
X138368135Y-118579302D01*
X138320516Y-118626921D01*
X138225278Y-118674540D01*
X137939563Y-118674540D01*
X137844325Y-118626921D01*
X137796706Y-118579302D01*
X139034801Y-117674540D02*
X139130040Y-117674540D01*
X139225278Y-117722160D01*
X139272897Y-117769779D01*
X139320516Y-117865017D01*
X139368135Y-118055493D01*
X139368135Y-118293588D01*
X139320516Y-118484064D01*
X139272897Y-118579302D01*
X139225278Y-118626921D01*
X139130040Y-118674540D01*
X139034801Y-118674540D01*
X138939563Y-118626921D01*
X138891944Y-118579302D01*
X138844325Y-118484064D01*
X138796706Y-118293588D01*
X138796706Y-118055493D01*
X138844325Y-117865017D01*
X138891944Y-117769779D01*
X138939563Y-117722160D01*
X139034801Y-117674540D01*
G04 #@! TO.C,H3*
X184988095Y-126752380D02*
X184988095Y-125752380D01*
X184988095Y-126228571D02*
X185559523Y-126228571D01*
X185559523Y-126752380D02*
X185559523Y-125752380D01*
X185940476Y-125752380D02*
X186559523Y-125752380D01*
X186226190Y-126133333D01*
X186369047Y-126133333D01*
X186464285Y-126180952D01*
X186511904Y-126228571D01*
X186559523Y-126323809D01*
X186559523Y-126561904D01*
X186511904Y-126657142D01*
X186464285Y-126704761D01*
X186369047Y-126752380D01*
X186083333Y-126752380D01*
X185988095Y-126704761D01*
X185940476Y-126657142D01*
G04 #@! TO.C,D2*
X124847904Y-120758380D02*
X124847904Y-119758380D01*
X125086000Y-119758380D01*
X125228857Y-119806000D01*
X125324095Y-119901238D01*
X125371714Y-119996476D01*
X125419333Y-120186952D01*
X125419333Y-120329809D01*
X125371714Y-120520285D01*
X125324095Y-120615523D01*
X125228857Y-120710761D01*
X125086000Y-120758380D01*
X124847904Y-120758380D01*
X125800285Y-119853619D02*
X125847904Y-119806000D01*
X125943142Y-119758380D01*
X126181238Y-119758380D01*
X126276476Y-119806000D01*
X126324095Y-119853619D01*
X126371714Y-119948857D01*
X126371714Y-120044095D01*
X126324095Y-120186952D01*
X125752666Y-120758380D01*
X126371714Y-120758380D01*
G04 #@! TO.C,C9*
X131811142Y-75271466D02*
X131858761Y-75319085D01*
X131906380Y-75461942D01*
X131906380Y-75557180D01*
X131858761Y-75700038D01*
X131763523Y-75795276D01*
X131668285Y-75842895D01*
X131477809Y-75890514D01*
X131334952Y-75890514D01*
X131144476Y-75842895D01*
X131049238Y-75795276D01*
X130954000Y-75700038D01*
X130906380Y-75557180D01*
X130906380Y-75461942D01*
X130954000Y-75319085D01*
X131001619Y-75271466D01*
X131906380Y-74795276D02*
X131906380Y-74604800D01*
X131858761Y-74509561D01*
X131811142Y-74461942D01*
X131668285Y-74366704D01*
X131477809Y-74319085D01*
X131096857Y-74319085D01*
X131001619Y-74366704D01*
X130954000Y-74414323D01*
X130906380Y-74509561D01*
X130906380Y-74700038D01*
X130954000Y-74795276D01*
X131001619Y-74842895D01*
X131096857Y-74890514D01*
X131334952Y-74890514D01*
X131430190Y-74842895D01*
X131477809Y-74795276D01*
X131525428Y-74700038D01*
X131525428Y-74509561D01*
X131477809Y-74414323D01*
X131430190Y-74366704D01*
X131334952Y-74319085D01*
X135451142Y-76461942D02*
X135498761Y-76414323D01*
X135546380Y-76461942D01*
X135498761Y-76509561D01*
X135451142Y-76461942D01*
X135546380Y-76461942D01*
X135546380Y-75461942D02*
X135546380Y-76033371D01*
X135546380Y-75747657D02*
X134546380Y-75747657D01*
X134689238Y-75842895D01*
X134784476Y-75938133D01*
X134832095Y-76033371D01*
X134879714Y-74604800D02*
X135546380Y-74604800D01*
X134879714Y-75033371D02*
X135403523Y-75033371D01*
X135498761Y-74985752D01*
X135546380Y-74890514D01*
X135546380Y-74747657D01*
X135498761Y-74652419D01*
X135451142Y-74604800D01*
X135022571Y-73795276D02*
X135022571Y-74128609D01*
X135546380Y-74128609D02*
X134546380Y-74128609D01*
X134546380Y-73652419D01*
G04 #@! TO.C,J3*
X129808380Y-69446733D02*
X130522666Y-69446733D01*
X130665523Y-69494352D01*
X130760761Y-69589590D01*
X130808380Y-69732447D01*
X130808380Y-69827685D01*
X129808380Y-69065780D02*
X129808380Y-68446733D01*
X130189333Y-68780066D01*
X130189333Y-68637209D01*
X130236952Y-68541971D01*
X130284571Y-68494352D01*
X130379809Y-68446733D01*
X130617904Y-68446733D01*
X130713142Y-68494352D01*
X130760761Y-68541971D01*
X130808380Y-68637209D01*
X130808380Y-68922923D01*
X130760761Y-69018161D01*
X130713142Y-69065780D01*
G04 #@! TO.C,F1*
X166672026Y-80014811D02*
X166338693Y-80014811D01*
X166338693Y-80538620D02*
X166338693Y-79538620D01*
X166814883Y-79538620D01*
X167719645Y-80538620D02*
X167148217Y-80538620D01*
X167433931Y-80538620D02*
X167433931Y-79538620D01*
X167338693Y-79681478D01*
X167243455Y-79776716D01*
X167148217Y-79824335D01*
G04 #@! TO.C,D1*
X160123904Y-73812080D02*
X160123904Y-72812080D01*
X160362000Y-72812080D01*
X160504857Y-72859700D01*
X160600095Y-72954938D01*
X160647714Y-73050176D01*
X160695333Y-73240652D01*
X160695333Y-73383509D01*
X160647714Y-73573985D01*
X160600095Y-73669223D01*
X160504857Y-73764461D01*
X160362000Y-73812080D01*
X160123904Y-73812080D01*
X161647714Y-73812080D02*
X161076285Y-73812080D01*
X161362000Y-73812080D02*
X161362000Y-72812080D01*
X161266761Y-72954938D01*
X161171523Y-73050176D01*
X161076285Y-73097795D01*
G04 #@! TO.C,F2*
X166697386Y-74213411D02*
X166364053Y-74213411D01*
X166364053Y-74737220D02*
X166364053Y-73737220D01*
X166840243Y-73737220D01*
X167173577Y-73832459D02*
X167221196Y-73784840D01*
X167316434Y-73737220D01*
X167554529Y-73737220D01*
X167649767Y-73784840D01*
X167697386Y-73832459D01*
X167745005Y-73927697D01*
X167745005Y-74022935D01*
X167697386Y-74165792D01*
X167125958Y-74737220D01*
X167745005Y-74737220D01*
G04 #@! TO.C,J2*
X133265666Y-88137580D02*
X133265666Y-88851866D01*
X133218047Y-88994723D01*
X133122809Y-89089961D01*
X132979952Y-89137580D01*
X132884714Y-89137580D01*
X133694238Y-88232819D02*
X133741857Y-88185200D01*
X133837095Y-88137580D01*
X134075190Y-88137580D01*
X134170428Y-88185200D01*
X134218047Y-88232819D01*
X134265666Y-88328057D01*
X134265666Y-88423295D01*
X134218047Y-88566152D01*
X133646619Y-89137580D01*
X134265666Y-89137580D01*
G04 #@! TO.C,R4*
X133892333Y-112521380D02*
X133559000Y-112045190D01*
X133320904Y-112521380D02*
X133320904Y-111521380D01*
X133701857Y-111521380D01*
X133797095Y-111569000D01*
X133844714Y-111616619D01*
X133892333Y-111711857D01*
X133892333Y-111854714D01*
X133844714Y-111949952D01*
X133797095Y-111997571D01*
X133701857Y-112045190D01*
X133320904Y-112045190D01*
X134749476Y-111854714D02*
X134749476Y-112521380D01*
X134511380Y-111473761D02*
X134273285Y-112188047D01*
X134892333Y-112188047D01*
X136844445Y-113442980D02*
X137463493Y-113442980D01*
X137130160Y-113823933D01*
X137273017Y-113823933D01*
X137368255Y-113871552D01*
X137415874Y-113919171D01*
X137463493Y-114014409D01*
X137463493Y-114252504D01*
X137415874Y-114347742D01*
X137368255Y-114395361D01*
X137273017Y-114442980D01*
X136987302Y-114442980D01*
X136892064Y-114395361D01*
X136844445Y-114347742D01*
X137796826Y-113442980D02*
X138415874Y-113442980D01*
X138082540Y-113823933D01*
X138225398Y-113823933D01*
X138320636Y-113871552D01*
X138368255Y-113919171D01*
X138415874Y-114014409D01*
X138415874Y-114252504D01*
X138368255Y-114347742D01*
X138320636Y-114395361D01*
X138225398Y-114442980D01*
X137939683Y-114442980D01*
X137844445Y-114395361D01*
X137796826Y-114347742D01*
X139034921Y-113442980D02*
X139130160Y-113442980D01*
X139225398Y-113490600D01*
X139273017Y-113538219D01*
X139320636Y-113633457D01*
X139368255Y-113823933D01*
X139368255Y-114062028D01*
X139320636Y-114252504D01*
X139273017Y-114347742D01*
X139225398Y-114395361D01*
X139130160Y-114442980D01*
X139034921Y-114442980D01*
X138939683Y-114395361D01*
X138892064Y-114347742D01*
X138844445Y-114252504D01*
X138796826Y-114062028D01*
X138796826Y-113823933D01*
X138844445Y-113633457D01*
X138892064Y-113538219D01*
X138939683Y-113490600D01*
X139034921Y-113442980D01*
G04 #@! TO.C,C11*
X158989142Y-107513142D02*
X158941523Y-107560761D01*
X158798666Y-107608380D01*
X158703428Y-107608380D01*
X158560571Y-107560761D01*
X158465333Y-107465523D01*
X158417714Y-107370285D01*
X158370095Y-107179809D01*
X158370095Y-107036952D01*
X158417714Y-106846476D01*
X158465333Y-106751238D01*
X158560571Y-106656000D01*
X158703428Y-106608380D01*
X158798666Y-106608380D01*
X158941523Y-106656000D01*
X158989142Y-106703619D01*
X159941523Y-107608380D02*
X159370095Y-107608380D01*
X159655809Y-107608380D02*
X159655809Y-106608380D01*
X159560571Y-106751238D01*
X159465333Y-106846476D01*
X159370095Y-106894095D01*
X160893904Y-107608380D02*
X160322476Y-107608380D01*
X160608190Y-107608380D02*
X160608190Y-106608380D01*
X160512952Y-106751238D01*
X160417714Y-106846476D01*
X160322476Y-106894095D01*
X158703428Y-111153142D02*
X158751047Y-111200761D01*
X158703428Y-111248380D01*
X158655809Y-111200761D01*
X158703428Y-111153142D01*
X158703428Y-111248380D01*
X159703428Y-111248380D02*
X159132000Y-111248380D01*
X159417714Y-111248380D02*
X159417714Y-110248380D01*
X159322476Y-110391238D01*
X159227238Y-110486476D01*
X159132000Y-110534095D01*
X160560571Y-110581714D02*
X160560571Y-111248380D01*
X160132000Y-110581714D02*
X160132000Y-111105523D01*
X160179619Y-111200761D01*
X160274857Y-111248380D01*
X160417714Y-111248380D01*
X160512952Y-111200761D01*
X160560571Y-111153142D01*
G04 #@! TO.C,C3*
X139908142Y-91533466D02*
X139955761Y-91581085D01*
X140003380Y-91723942D01*
X140003380Y-91819180D01*
X139955761Y-91962038D01*
X139860523Y-92057276D01*
X139765285Y-92104895D01*
X139574809Y-92152514D01*
X139431952Y-92152514D01*
X139241476Y-92104895D01*
X139146238Y-92057276D01*
X139051000Y-91962038D01*
X139003380Y-91819180D01*
X139003380Y-91723942D01*
X139051000Y-91581085D01*
X139098619Y-91533466D01*
X139003380Y-91200133D02*
X139003380Y-90581085D01*
X139384333Y-90914419D01*
X139384333Y-90771561D01*
X139431952Y-90676323D01*
X139479571Y-90628704D01*
X139574809Y-90581085D01*
X139812904Y-90581085D01*
X139908142Y-90628704D01*
X139955761Y-90676323D01*
X140003380Y-90771561D01*
X140003380Y-91057276D01*
X139955761Y-91152514D01*
X139908142Y-91200133D01*
X143548142Y-92723942D02*
X143595761Y-92676323D01*
X143643380Y-92723942D01*
X143595761Y-92771561D01*
X143548142Y-92723942D01*
X143643380Y-92723942D01*
X143643380Y-91723942D02*
X143643380Y-92295371D01*
X143643380Y-92009657D02*
X142643380Y-92009657D01*
X142786238Y-92104895D01*
X142881476Y-92200133D01*
X142929095Y-92295371D01*
X142976714Y-90866800D02*
X143643380Y-90866800D01*
X142976714Y-91295371D02*
X143500523Y-91295371D01*
X143595761Y-91247752D01*
X143643380Y-91152514D01*
X143643380Y-91009657D01*
X143595761Y-90914419D01*
X143548142Y-90866800D01*
X143119571Y-90057276D02*
X143119571Y-90390609D01*
X143643380Y-90390609D02*
X142643380Y-90390609D01*
X142643380Y-89914419D01*
G04 #@! TO.C,C2*
X150635333Y-86388342D02*
X150587714Y-86435961D01*
X150444857Y-86483580D01*
X150349619Y-86483580D01*
X150206761Y-86435961D01*
X150111523Y-86340723D01*
X150063904Y-86245485D01*
X150016285Y-86055009D01*
X150016285Y-85912152D01*
X150063904Y-85721676D01*
X150111523Y-85626438D01*
X150206761Y-85531200D01*
X150349619Y-85483580D01*
X150444857Y-85483580D01*
X150587714Y-85531200D01*
X150635333Y-85578819D01*
X151016285Y-85578819D02*
X151063904Y-85531200D01*
X151159142Y-85483580D01*
X151397238Y-85483580D01*
X151492476Y-85531200D01*
X151540095Y-85578819D01*
X151587714Y-85674057D01*
X151587714Y-85769295D01*
X151540095Y-85912152D01*
X150968666Y-86483580D01*
X151587714Y-86483580D01*
G04 #@! TO.C,D3*
X124903904Y-116216380D02*
X124903904Y-115216380D01*
X125142000Y-115216380D01*
X125284857Y-115264000D01*
X125380095Y-115359238D01*
X125427714Y-115454476D01*
X125475333Y-115644952D01*
X125475333Y-115787809D01*
X125427714Y-115978285D01*
X125380095Y-116073523D01*
X125284857Y-116168761D01*
X125142000Y-116216380D01*
X124903904Y-116216380D01*
X125808666Y-115216380D02*
X126427714Y-115216380D01*
X126094380Y-115597333D01*
X126237238Y-115597333D01*
X126332476Y-115644952D01*
X126380095Y-115692571D01*
X126427714Y-115787809D01*
X126427714Y-116025904D01*
X126380095Y-116121142D01*
X126332476Y-116168761D01*
X126237238Y-116216380D01*
X125951523Y-116216380D01*
X125856285Y-116168761D01*
X125808666Y-116121142D01*
G04 #@! TO.C,J4*
X183106380Y-89735333D02*
X183820666Y-89735333D01*
X183963523Y-89782952D01*
X184058761Y-89878190D01*
X184106380Y-90021047D01*
X184106380Y-90116285D01*
X183439714Y-88830571D02*
X184106380Y-88830571D01*
X183058761Y-89068666D02*
X183773047Y-89306761D01*
X183773047Y-88687714D01*
G04 #@! TO.C,J5*
X183538380Y-114795333D02*
X184252666Y-114795333D01*
X184395523Y-114842952D01*
X184490761Y-114938190D01*
X184538380Y-115081047D01*
X184538380Y-115176285D01*
X183538380Y-113842952D02*
X183538380Y-114319142D01*
X184014571Y-114366761D01*
X183966952Y-114319142D01*
X183919333Y-114223904D01*
X183919333Y-113985809D01*
X183966952Y-113890571D01*
X184014571Y-113842952D01*
X184109809Y-113795333D01*
X184347904Y-113795333D01*
X184443142Y-113842952D01*
X184490761Y-113890571D01*
X184538380Y-113985809D01*
X184538380Y-114223904D01*
X184490761Y-114319142D01*
X184443142Y-114366761D01*
G04 #@! TO.C,R1*
X150756333Y-77485380D02*
X150423000Y-77009190D01*
X150184904Y-77485380D02*
X150184904Y-76485380D01*
X150565857Y-76485380D01*
X150661095Y-76533000D01*
X150708714Y-76580619D01*
X150756333Y-76675857D01*
X150756333Y-76818714D01*
X150708714Y-76913952D01*
X150661095Y-76961571D01*
X150565857Y-77009190D01*
X150184904Y-77009190D01*
X151708714Y-77485380D02*
X151137285Y-77485380D01*
X151423000Y-77485380D02*
X151423000Y-76485380D01*
X151327761Y-76628238D01*
X151232523Y-76723476D01*
X151137285Y-76771095D01*
G04 #@! TO.C,R2*
X150659333Y-83230880D02*
X150326000Y-82754690D01*
X150087904Y-83230880D02*
X150087904Y-82230880D01*
X150468857Y-82230880D01*
X150564095Y-82278500D01*
X150611714Y-82326119D01*
X150659333Y-82421357D01*
X150659333Y-82564214D01*
X150611714Y-82659452D01*
X150564095Y-82707071D01*
X150468857Y-82754690D01*
X150087904Y-82754690D01*
X151040285Y-82326119D02*
X151087904Y-82278500D01*
X151183142Y-82230880D01*
X151421238Y-82230880D01*
X151516476Y-82278500D01*
X151564095Y-82326119D01*
X151611714Y-82421357D01*
X151611714Y-82516595D01*
X151564095Y-82659452D01*
X150992666Y-83230880D01*
X151611714Y-83230880D01*
G04 #@! TD*
M02*
