M48
;DRILL file {KiCad 5.0.2-bee76a0~70~ubuntu18.10.1} date Thu 18 Jul 2019 11:33:06 AM EDT
;FORMAT={-:-/ absolute / inch / decimal}
FMAT,2
INCH,TZ
T1C0.0157
T2C0.0394
T3C0.0400
T4C0.0433
T5C0.1063
%
G90
G05
T1
X5.4288Y-4.4104
X5.944Y-3.3825
X5.9883Y-3.8298
X6.052Y-3.3698
X6.2823Y-3.9045
X6.3061Y-3.9616
X6.3254Y-3.9124
X6.3503Y-3.4498
X6.3686Y-4.1246
X6.451Y-3.5836
X6.4546Y-3.5497
X6.5208Y-3.4822
X6.5298Y-3.3684
X6.5597Y-3.922
X6.6285Y-3.0074
X6.6547Y-3.2322
X6.8882Y-4.2127
X7.0153Y-4.3239
X7.1934Y-4.5189
X7.2488Y-4.5155
T2
X6.8314Y-3.9586
X6.8314Y-4.0586
X5.2598Y-3.6006
X5.2598Y-3.7006
X5.2598Y-3.8006
X5.2598Y-3.9006
X5.2598Y-4.0006
X5.2598Y-4.1006
X5.2598Y-4.2006
X5.2412Y-2.721
X5.3412Y-2.721
X5.4412Y-2.721
X5.5412Y-2.721
X5.6412Y-2.721
X5.7412Y-2.721
X5.7984Y-4.6564
X5.8984Y-4.6564
X5.9984Y-4.6564
X6.0984Y-4.6564
T3
X5.3288Y-5.0722
X5.3288Y-5.1722
X5.4288Y-5.0722
X5.4288Y-5.1722
X5.5288Y-5.0722
X5.5288Y-5.1722
X5.6288Y-5.0722
X5.6288Y-5.1722
X5.7288Y-5.0722
X5.7288Y-5.1722
T4
X6.2574Y-5.1722
X6.3574Y-5.1722
X6.4574Y-5.1722
X6.762Y-5.1794
X6.862Y-5.1794
X6.962Y-5.1794
T5
X7.313Y-5.1181
X7.313Y-2.8346
X4.9213Y-5.1181
X4.9213Y-2.8346
T0
M30
