G04 #@! TF.GenerationSoftware,KiCad,Pcbnew,5.0.2-bee76a0~70~ubuntu18.10.1*
G04 #@! TF.CreationDate,2019-07-02T09:20:29-04:00*
G04 #@! TF.ProjectId,Bonaire,426f6e61-6972-4652-9e6b-696361645f70,rev?*
G04 #@! TF.SameCoordinates,Original*
G04 #@! TF.FileFunction,Copper,L2,Bot*
G04 #@! TF.FilePolarity,Positive*
%FSLAX46Y46*%
G04 Gerber Fmt 4.6, Leading zero omitted, Abs format (unit mm)*
G04 Created by KiCad (PCBNEW 5.0.2-bee76a0~70~ubuntu18.10.1) date Tue 02 Jul 2019 09:20:29 AM EDT*
%MOMM*%
%LPD*%
G01*
G04 APERTURE LIST*
G04 #@! TA.AperFunction,ComponentPad*
%ADD10R,1.700000X1.700000*%
G04 #@! TD*
G04 #@! TA.AperFunction,ComponentPad*
%ADD11O,1.700000X1.700000*%
G04 #@! TD*
G04 #@! TA.AperFunction,ComponentPad*
%ADD12R,1.905000X2.000000*%
G04 #@! TD*
G04 #@! TA.AperFunction,ComponentPad*
%ADD13O,1.905000X2.000000*%
G04 #@! TD*
G04 #@! TA.AperFunction,ComponentPad*
%ADD14R,1.727200X1.727200*%
G04 #@! TD*
G04 #@! TA.AperFunction,ComponentPad*
%ADD15O,1.727200X1.727200*%
G04 #@! TD*
G04 #@! TA.AperFunction,ViaPad*
%ADD16C,0.600000*%
G04 #@! TD*
G04 #@! TA.AperFunction,Conductor*
%ADD17C,0.250000*%
G04 #@! TD*
G04 #@! TA.AperFunction,Conductor*
%ADD18C,0.254000*%
G04 #@! TD*
G04 APERTURE END LIST*
D10*
G04 #@! TO.P,J2,1*
G04 #@! TO.N,/GPIOB/~CS*
X133599000Y-91455200D03*
D11*
G04 #@! TO.P,J2,2*
G04 #@! TO.N,/GPIOB/MOSI*
X133599000Y-93995200D03*
G04 #@! TO.P,J2,3*
G04 #@! TO.N,/GPIOB/MISO*
X133599000Y-96535200D03*
G04 #@! TO.P,J2,4*
G04 #@! TO.N,/GPIOB/SCK*
X133599000Y-99075200D03*
G04 #@! TO.P,J2,5*
G04 #@! TO.N,GND*
X133599000Y-101615200D03*
G04 #@! TO.P,J2,6*
G04 #@! TO.N,Net-(J2-Pad6)*
X133599000Y-104155200D03*
G04 #@! TO.P,J2,7*
G04 #@! TO.N,+3V3*
X133599000Y-106695200D03*
G04 #@! TD*
D10*
G04 #@! TO.P,J3,1*
G04 #@! TO.N,GND*
X133126000Y-69113400D03*
D11*
G04 #@! TO.P,J3,2*
G04 #@! TO.N,Net-(J3-Pad2)*
X135666000Y-69113400D03*
G04 #@! TO.P,J3,3*
G04 #@! TO.N,+5V*
X138206000Y-69113400D03*
G04 #@! TO.P,J3,4*
G04 #@! TO.N,/GPIOB/UART1_RX*
X140746000Y-69113400D03*
G04 #@! TO.P,J3,5*
G04 #@! TO.N,/GPIOB/UART1_TX*
X143286000Y-69113400D03*
G04 #@! TO.P,J3,6*
G04 #@! TO.N,Net-(J3-Pad6)*
X145826000Y-69113400D03*
G04 #@! TD*
D10*
G04 #@! TO.P,J4,1*
G04 #@! TO.N,GND*
X186385000Y-105913000D03*
D11*
G04 #@! TO.P,J4,2*
G04 #@! TO.N,+5V*
X186385000Y-108453000D03*
G04 #@! TO.P,J4,3*
G04 #@! TO.N,Net-(J4-Pad3)*
X186385000Y-110993000D03*
G04 #@! TO.P,J4,4*
G04 #@! TO.N,Net-(J4-Pad4)*
X186385000Y-113533000D03*
G04 #@! TO.P,J4,5*
G04 #@! TO.N,Net-(J4-Pad5)*
X186385000Y-116073000D03*
G04 #@! TO.P,J4,6*
G04 #@! TO.N,Net-(J4-Pad6)*
X186385000Y-118613000D03*
G04 #@! TO.P,J4,7*
G04 #@! TO.N,Net-(J4-Pad7)*
X186385000Y-121153000D03*
G04 #@! TO.P,J4,8*
G04 #@! TO.N,Net-(J4-Pad8)*
X186385000Y-123693000D03*
G04 #@! TD*
G04 #@! TO.P,J5,8*
G04 #@! TO.N,Net-(J5-Pad8)*
X186263000Y-96128800D03*
G04 #@! TO.P,J5,7*
G04 #@! TO.N,Net-(J5-Pad7)*
X186263000Y-93588800D03*
G04 #@! TO.P,J5,6*
G04 #@! TO.N,Net-(J5-Pad6)*
X186263000Y-91048800D03*
G04 #@! TO.P,J5,5*
G04 #@! TO.N,Net-(J5-Pad5)*
X186263000Y-88508800D03*
G04 #@! TO.P,J5,4*
G04 #@! TO.N,Net-(J5-Pad4)*
X186263000Y-85968800D03*
G04 #@! TO.P,J5,3*
G04 #@! TO.N,Net-(J5-Pad3)*
X186263000Y-83428800D03*
G04 #@! TO.P,J5,2*
G04 #@! TO.N,+5V*
X186263000Y-80888800D03*
D10*
G04 #@! TO.P,J5,1*
G04 #@! TO.N,GND*
X186263000Y-78348800D03*
G04 #@! TD*
D12*
G04 #@! TO.P,U1,1*
G04 #@! TO.N,+24V*
X158938000Y-131374000D03*
D13*
G04 #@! TO.P,U1,2*
G04 #@! TO.N,GND*
X161478000Y-131374000D03*
G04 #@! TO.P,U1,3*
G04 #@! TO.N,+3V3*
X164018000Y-131374000D03*
G04 #@! TD*
G04 #@! TO.P,U3,3*
G04 #@! TO.N,+5V*
X176835000Y-131557000D03*
G04 #@! TO.P,U3,2*
G04 #@! TO.N,GND*
X174295000Y-131557000D03*
D12*
G04 #@! TO.P,U3,1*
G04 #@! TO.N,+24V*
X171755000Y-131557000D03*
G04 #@! TD*
D14*
G04 #@! TO.P,CON1,1*
G04 #@! TO.N,Net-(CON1-Pad1)*
X135352000Y-131374000D03*
D15*
G04 #@! TO.P,CON1,2*
G04 #@! TO.N,GND*
X135352000Y-128834000D03*
G04 #@! TO.P,CON1,3*
G04 #@! TO.N,Net-(CON1-Pad3)*
X137892000Y-131374000D03*
G04 #@! TO.P,CON1,4*
G04 #@! TO.N,+3V3*
X137892000Y-128834000D03*
G04 #@! TO.P,CON1,5*
G04 #@! TO.N,Net-(CON1-Pad5)*
X140432000Y-131374000D03*
G04 #@! TO.P,CON1,6*
G04 #@! TO.N,Net-(CON1-Pad6)*
X140432000Y-128834000D03*
G04 #@! TO.P,CON1,7*
G04 #@! TO.N,Net-(CON1-Pad7)*
X142972000Y-131374000D03*
G04 #@! TO.P,CON1,8*
G04 #@! TO.N,Net-(CON1-Pad8)*
X142972000Y-128834000D03*
G04 #@! TO.P,CON1,9*
G04 #@! TO.N,Net-(CON1-Pad9)*
X145512000Y-131374000D03*
G04 #@! TO.P,CON1,10*
G04 #@! TO.N,Net-(CON1-Pad10)*
X145512000Y-128834000D03*
G04 #@! TD*
D10*
G04 #@! TO.P,J1,1*
G04 #@! TO.N,+24V*
X147279000Y-118273000D03*
D11*
G04 #@! TO.P,J1,2*
G04 #@! TO.N,/RS485A*
X149819000Y-118273000D03*
G04 #@! TO.P,J1,3*
G04 #@! TO.N,/RS485B*
X152359000Y-118273000D03*
G04 #@! TO.P,J1,4*
G04 #@! TO.N,GND*
X154899000Y-118273000D03*
G04 #@! TD*
D10*
G04 #@! TO.P,JP1,1*
G04 #@! TO.N,+24V*
X173518000Y-100548000D03*
D11*
G04 #@! TO.P,JP1,2*
G04 #@! TO.N,+5V*
X173518000Y-103088000D03*
G04 #@! TD*
D16*
G04 #@! TO.N,GND*
X139679700Y-97610300D03*
G04 #@! TO.N,Net-(D2-Pad2)*
X148285700Y-98060600D03*
X125530300Y-116659700D03*
G04 #@! TO.N,Net-(D3-Pad2)*
X127341700Y-110534700D03*
X149134600Y-97610300D03*
G04 #@! TO.N,/RS485B*
X160192500Y-84263600D03*
G04 #@! TO.N,/RS485A*
X163214700Y-76853300D03*
G04 #@! TO.N,/GPIOB/MOSI*
X153663600Y-98455600D03*
G04 #@! TO.N,/GPIOB/MISO*
X151632900Y-98669100D03*
G04 #@! TO.N,/GPIOB/SCK*
X150818700Y-99132200D03*
G04 #@! TO.N,/GPIOB/UART1_RX*
X152161600Y-85929400D03*
G04 #@! TO.N,/GPIOB/UART1_TX*
X152657500Y-85251600D03*
G04 #@! TO.N,Net-(J4-Pad3)*
X161128500Y-94337300D03*
G04 #@! TO.N,Net-(J4-Pad4)*
X166579400Y-90232900D03*
G04 #@! TO.N,Net-(J4-Pad5)*
X165689900Y-90224000D03*
G04 #@! TO.N,Net-(J4-Pad6)*
X159512300Y-90129800D03*
G04 #@! TO.N,Net-(J5-Pad4)*
X160782600Y-93428400D03*
G04 #@! TO.N,Net-(CON1-Pad5)*
X152524600Y-98662900D03*
G04 #@! TO.N,Net-(CON1-Pad1)*
X161126400Y-87631400D03*
G04 #@! TD*
D17*
G04 #@! TO.N,+3V3*
X133599000Y-106695200D02*
X133599000Y-107870500D01*
X137892000Y-128834000D02*
X137892000Y-112163500D01*
X137892000Y-112163500D02*
X133599000Y-107870500D01*
G04 #@! TO.N,GND*
X134774300Y-101615200D02*
X138779200Y-97610300D01*
X138779200Y-97610300D02*
X139679700Y-97610300D01*
X161478000Y-131374000D02*
X162986400Y-132882400D01*
X162986400Y-132882400D02*
X172969600Y-132882400D01*
X172969600Y-132882400D02*
X174295000Y-131557000D01*
X133599000Y-101615200D02*
X134774300Y-101615200D01*
G04 #@! TO.N,Net-(D2-Pad2)*
X125530300Y-116659700D02*
X127967000Y-114223000D01*
X127967000Y-114223000D02*
X127967000Y-110610600D01*
X127967000Y-110610600D02*
X133152400Y-105425200D01*
X133152400Y-105425200D02*
X140921100Y-105425200D01*
X140921100Y-105425200D02*
X148285700Y-98060600D01*
G04 #@! TO.N,Net-(D3-Pad2)*
X127341700Y-110534700D02*
X127341700Y-108680500D01*
X127341700Y-108680500D02*
X133231600Y-102790600D01*
X133231600Y-102790600D02*
X135383800Y-102790600D01*
X135383800Y-102790600D02*
X140739200Y-97435200D01*
X140739200Y-97435200D02*
X148959500Y-97435200D01*
X148959500Y-97435200D02*
X149134600Y-97610300D01*
G04 #@! TO.N,/RS485B*
X152359000Y-118273000D02*
X152359000Y-117097700D01*
X152359000Y-117097700D02*
X155987400Y-113469300D01*
X155987400Y-113469300D02*
X155987400Y-88468700D01*
X155987400Y-88468700D02*
X160192500Y-84263600D01*
G04 #@! TO.N,/RS485A*
X163214700Y-76853300D02*
X154288900Y-85779100D01*
X154288900Y-85779100D02*
X154288900Y-112627800D01*
X154288900Y-112627800D02*
X149819000Y-117097700D01*
X149819000Y-118273000D02*
X149819000Y-117097700D01*
G04 #@! TO.N,/GPIOB/MOSI*
X153663600Y-98455600D02*
X149203200Y-93995200D01*
X149203200Y-93995200D02*
X133599000Y-93995200D01*
G04 #@! TO.N,/GPIOB/MISO*
X134774300Y-96535200D02*
X134859000Y-96450500D01*
X134859000Y-96450500D02*
X149546500Y-96450500D01*
X149546500Y-96450500D02*
X151632900Y-98536900D01*
X151632900Y-98536900D02*
X151632900Y-98669100D01*
X133599000Y-96535200D02*
X134774300Y-96535200D01*
G04 #@! TO.N,/GPIOB/SCK*
X134774300Y-99075200D02*
X136864700Y-96984800D01*
X136864700Y-96984800D02*
X149442600Y-96984800D01*
X149442600Y-96984800D02*
X150818700Y-98360900D01*
X150818700Y-98360900D02*
X150818700Y-99132200D01*
X133599000Y-99075200D02*
X134774300Y-99075200D01*
G04 #@! TO.N,/GPIOB/UART1_RX*
X140746000Y-70288700D02*
X140746000Y-74513800D01*
X140746000Y-74513800D02*
X152161600Y-85929400D01*
X140746000Y-69113400D02*
X140746000Y-70288700D01*
G04 #@! TO.N,/GPIOB/UART1_TX*
X143286000Y-70288700D02*
X152657500Y-79660200D01*
X152657500Y-79660200D02*
X152657500Y-85251600D01*
X143286000Y-69113400D02*
X143286000Y-70288700D01*
G04 #@! TO.N,+5V*
X138206000Y-69113400D02*
X139381300Y-69113400D01*
X186263000Y-81476400D02*
X172724700Y-67938100D01*
X172724700Y-67938100D02*
X140189200Y-67938100D01*
X140189200Y-67938100D02*
X139381300Y-68746000D01*
X139381300Y-68746000D02*
X139381300Y-69113400D01*
X186263000Y-81476400D02*
X186263000Y-82064100D01*
X186263000Y-80888800D02*
X186263000Y-81476400D01*
X186385000Y-108453000D02*
X186385000Y-107277700D01*
X186385000Y-107277700D02*
X187193000Y-107277700D01*
X187193000Y-107277700D02*
X187573300Y-106897400D01*
X187573300Y-106897400D02*
X187573300Y-83007100D01*
X187573300Y-83007100D02*
X186630300Y-82064100D01*
X186630300Y-82064100D02*
X186263000Y-82064100D01*
G04 #@! TO.N,Net-(J4-Pad3)*
X186385000Y-109817700D02*
X186017600Y-109817700D01*
X186017600Y-109817700D02*
X177531800Y-101331900D01*
X177531800Y-101331900D02*
X177531800Y-100267100D01*
X177531800Y-100267100D02*
X166863400Y-89598700D01*
X166863400Y-89598700D02*
X165420000Y-89598700D01*
X165420000Y-89598700D02*
X164947700Y-90071000D01*
X164947700Y-90071000D02*
X164947700Y-90518100D01*
X164947700Y-90518100D02*
X161128500Y-94337300D01*
X186385000Y-110993000D02*
X186385000Y-109817700D01*
G04 #@! TO.N,Net-(J4-Pad4)*
X186385000Y-112357700D02*
X186017700Y-112357700D01*
X186017700Y-112357700D02*
X176181100Y-102521100D01*
X176181100Y-102521100D02*
X176181100Y-99697000D01*
X176181100Y-99697000D02*
X166717000Y-90232900D01*
X166717000Y-90232900D02*
X166579400Y-90232900D01*
X186385000Y-113533000D02*
X186385000Y-112357700D01*
G04 #@! TO.N,Net-(J4-Pad5)*
X186385000Y-114897700D02*
X186017700Y-114897700D01*
X186017700Y-114897700D02*
X175730700Y-104610700D01*
X175730700Y-104610700D02*
X175730700Y-99883600D01*
X175730700Y-99883600D02*
X166733000Y-90885900D01*
X166733000Y-90885900D02*
X166348100Y-90885900D01*
X166348100Y-90885900D02*
X165689900Y-90227700D01*
X165689900Y-90227700D02*
X165689900Y-90224000D01*
X186385000Y-116073000D02*
X186385000Y-114897700D01*
G04 #@! TO.N,Net-(J4-Pad6)*
X186385000Y-118613000D02*
X186385000Y-117437700D01*
X159512300Y-90129800D02*
X159512300Y-93610800D01*
X159512300Y-93610800D02*
X165170100Y-99268600D01*
X165170100Y-99268600D02*
X174404900Y-99268600D01*
X174404900Y-99268600D02*
X174693400Y-99557100D01*
X174693400Y-99557100D02*
X174693400Y-106113400D01*
X174693400Y-106113400D02*
X186017700Y-117437700D01*
X186017700Y-117437700D02*
X186385000Y-117437700D01*
G04 #@! TO.N,Net-(J5-Pad4)*
X186263000Y-85968800D02*
X168242200Y-85968800D01*
X168242200Y-85968800D02*
X160782600Y-93428400D01*
G04 #@! TO.N,+24V*
X173518000Y-101723300D02*
X173150700Y-101723300D01*
X173150700Y-101723300D02*
X171755000Y-103119000D01*
X171755000Y-103119000D02*
X171755000Y-131557000D01*
X173518000Y-100548000D02*
X173518000Y-101723300D01*
G04 #@! TO.N,Net-(CON1-Pad5)*
X140432000Y-130185100D02*
X140803600Y-130185100D01*
X140803600Y-130185100D02*
X141620900Y-129367800D01*
X141620900Y-129367800D02*
X141620900Y-109566600D01*
X141620900Y-109566600D02*
X152524600Y-98662900D01*
X140432000Y-131374000D02*
X140432000Y-130185100D01*
G04 #@! TO.N,Net-(CON1-Pad1)*
X161126400Y-87631400D02*
X158219500Y-90538300D01*
X158219500Y-90538300D02*
X158219500Y-112507100D01*
X158219500Y-112507100D02*
X153629000Y-117097600D01*
X153629000Y-117097600D02*
X153629000Y-118948300D01*
X153629000Y-118948300D02*
X144242000Y-128335300D01*
X144242000Y-128335300D02*
X144242000Y-131849500D01*
X144242000Y-131849500D02*
X143477000Y-132614500D01*
X143477000Y-132614500D02*
X137409900Y-132614500D01*
X137409900Y-132614500D02*
X136540900Y-131745500D01*
X136540900Y-131745500D02*
X136540900Y-131374000D01*
X135352000Y-131374000D02*
X136540900Y-131374000D01*
G04 #@! TD*
D18*
G04 #@! TO.N,GND*
G36*
X190069800Y-135238440D02*
X121539800Y-135238440D01*
X121539800Y-129546159D01*
X123842000Y-129546159D01*
X123842000Y-130335841D01*
X124144199Y-131065412D01*
X124702588Y-131623801D01*
X125432159Y-131926000D01*
X126221841Y-131926000D01*
X126951412Y-131623801D01*
X127509801Y-131065412D01*
X127812000Y-130335841D01*
X127812000Y-129546159D01*
X127509801Y-128816588D01*
X127168186Y-128474973D01*
X133897032Y-128474973D01*
X134017531Y-128707000D01*
X135225000Y-128707000D01*
X135225000Y-127500183D01*
X134992974Y-127379042D01*
X134577053Y-127551312D01*
X134145179Y-127945510D01*
X133897032Y-128474973D01*
X127168186Y-128474973D01*
X126951412Y-128258199D01*
X126221841Y-127956000D01*
X125432159Y-127956000D01*
X124702588Y-128258199D01*
X124144199Y-128816588D01*
X123842000Y-129546159D01*
X121539800Y-129546159D01*
X121539800Y-116473717D01*
X124595300Y-116473717D01*
X124595300Y-116845683D01*
X124737645Y-117189335D01*
X125000665Y-117452355D01*
X125344317Y-117594700D01*
X125716283Y-117594700D01*
X126059935Y-117452355D01*
X126322955Y-117189335D01*
X126465300Y-116845683D01*
X126465300Y-116799501D01*
X128451473Y-114813329D01*
X128514929Y-114770929D01*
X128682904Y-114519537D01*
X128727000Y-114297852D01*
X128727000Y-114297848D01*
X128741888Y-114223001D01*
X128727000Y-114148154D01*
X128727000Y-110925401D01*
X132271307Y-107381095D01*
X132528375Y-107765825D01*
X132845430Y-107977675D01*
X132883097Y-108167037D01*
X133051072Y-108418429D01*
X133114528Y-108460829D01*
X137132001Y-112478303D01*
X137132000Y-127539465D01*
X136811570Y-127753570D01*
X136610146Y-128055021D01*
X136558821Y-127945510D01*
X136126947Y-127551312D01*
X135711026Y-127379042D01*
X135479000Y-127500183D01*
X135479000Y-128707000D01*
X135499000Y-128707000D01*
X135499000Y-128961000D01*
X135479000Y-128961000D01*
X135479000Y-128981000D01*
X135225000Y-128981000D01*
X135225000Y-128961000D01*
X134017531Y-128961000D01*
X133897032Y-129193027D01*
X134145179Y-129722490D01*
X134332950Y-129893881D01*
X134240635Y-129912243D01*
X134030591Y-130052591D01*
X133890243Y-130262635D01*
X133840960Y-130510400D01*
X133840960Y-132237600D01*
X133890243Y-132485365D01*
X134030591Y-132695409D01*
X134240635Y-132835757D01*
X134488400Y-132885040D01*
X136215600Y-132885040D01*
X136463365Y-132835757D01*
X136519109Y-132798510D01*
X136819571Y-133098973D01*
X136861971Y-133162429D01*
X137113363Y-133330404D01*
X137335048Y-133374500D01*
X137335052Y-133374500D01*
X137409900Y-133389388D01*
X137484748Y-133374500D01*
X143402153Y-133374500D01*
X143477000Y-133389388D01*
X143551847Y-133374500D01*
X143551852Y-133374500D01*
X143773537Y-133330404D01*
X144024929Y-133162429D01*
X144067331Y-133098971D01*
X144599599Y-132566704D01*
X144927275Y-132785650D01*
X145364402Y-132872600D01*
X145659598Y-132872600D01*
X146096725Y-132785650D01*
X146592430Y-132454430D01*
X146923650Y-131958725D01*
X147039959Y-131374000D01*
X146923650Y-130789275D01*
X146646172Y-130374000D01*
X157338060Y-130374000D01*
X157338060Y-132374000D01*
X157387343Y-132621765D01*
X157527691Y-132831809D01*
X157737735Y-132972157D01*
X157985500Y-133021440D01*
X159890500Y-133021440D01*
X160138265Y-132972157D01*
X160348309Y-132831809D01*
X160485255Y-132626857D01*
X160611076Y-132749973D01*
X161105020Y-132964563D01*
X161351000Y-132844594D01*
X161351000Y-131501000D01*
X161331000Y-131501000D01*
X161331000Y-131247000D01*
X161351000Y-131247000D01*
X161351000Y-129903406D01*
X161605000Y-129903406D01*
X161605000Y-131247000D01*
X161625000Y-131247000D01*
X161625000Y-131501000D01*
X161605000Y-131501000D01*
X161605000Y-132844594D01*
X161850980Y-132964563D01*
X162344924Y-132749973D01*
X162738841Y-132364526D01*
X162873477Y-132566023D01*
X163398590Y-132916891D01*
X164018000Y-133040100D01*
X164637411Y-132916891D01*
X165162523Y-132566023D01*
X165513391Y-132040910D01*
X165605500Y-131577849D01*
X165605500Y-131170150D01*
X165513391Y-130707089D01*
X165162523Y-130181977D01*
X164637410Y-129831109D01*
X164018000Y-129707900D01*
X163398589Y-129831109D01*
X162873477Y-130181977D01*
X162738841Y-130383474D01*
X162344924Y-129998027D01*
X161850980Y-129783437D01*
X161605000Y-129903406D01*
X161351000Y-129903406D01*
X161105020Y-129783437D01*
X160611076Y-129998027D01*
X160485255Y-130121143D01*
X160348309Y-129916191D01*
X160138265Y-129775843D01*
X159890500Y-129726560D01*
X157985500Y-129726560D01*
X157737735Y-129775843D01*
X157527691Y-129916191D01*
X157387343Y-130126235D01*
X157338060Y-130374000D01*
X146646172Y-130374000D01*
X146592430Y-130293570D01*
X146308719Y-130104000D01*
X146592430Y-129914430D01*
X146923650Y-129418725D01*
X147039959Y-128834000D01*
X146923650Y-128249275D01*
X146592430Y-127753570D01*
X146176468Y-127475633D01*
X154113473Y-119538629D01*
X154120398Y-119534002D01*
X154132076Y-119544645D01*
X154542110Y-119714476D01*
X154772000Y-119593155D01*
X154772000Y-118400000D01*
X155026000Y-118400000D01*
X155026000Y-119593155D01*
X155255890Y-119714476D01*
X155665924Y-119544645D01*
X156094183Y-119154358D01*
X156340486Y-118629892D01*
X156219819Y-118400000D01*
X155026000Y-118400000D01*
X154772000Y-118400000D01*
X154752000Y-118400000D01*
X154752000Y-118146000D01*
X154772000Y-118146000D01*
X154772000Y-118126000D01*
X155026000Y-118126000D01*
X155026000Y-118146000D01*
X156219819Y-118146000D01*
X156340486Y-117916108D01*
X156094183Y-117391642D01*
X155665924Y-117001355D01*
X155255890Y-116831524D01*
X155026002Y-116952844D01*
X155026002Y-116788000D01*
X155013401Y-116788000D01*
X158703976Y-113097427D01*
X158767429Y-113055029D01*
X158809827Y-112991576D01*
X158809829Y-112991574D01*
X158935403Y-112803638D01*
X158935404Y-112803637D01*
X158979500Y-112581952D01*
X158979500Y-112581948D01*
X158994388Y-112507101D01*
X158979500Y-112432254D01*
X158979500Y-94168837D01*
X159027828Y-94201129D01*
X164579773Y-99753076D01*
X164622171Y-99816529D01*
X164685624Y-99858927D01*
X164685626Y-99858929D01*
X164722548Y-99883599D01*
X164873563Y-99984504D01*
X165095248Y-100028600D01*
X165095252Y-100028600D01*
X165170099Y-100043488D01*
X165244946Y-100028600D01*
X172020560Y-100028600D01*
X172020560Y-101398000D01*
X172069843Y-101645765D01*
X172103325Y-101695874D01*
X171270530Y-102528669D01*
X171207071Y-102571071D01*
X171039096Y-102822464D01*
X170995000Y-103044149D01*
X170995000Y-103044153D01*
X170980112Y-103119000D01*
X170995000Y-103193847D01*
X170995001Y-129909560D01*
X170802500Y-129909560D01*
X170554735Y-129958843D01*
X170344691Y-130099191D01*
X170204343Y-130309235D01*
X170155060Y-130557000D01*
X170155060Y-132557000D01*
X170204343Y-132804765D01*
X170344691Y-133014809D01*
X170554735Y-133155157D01*
X170802500Y-133204440D01*
X172707500Y-133204440D01*
X172955265Y-133155157D01*
X173165309Y-133014809D01*
X173302255Y-132809857D01*
X173428076Y-132932973D01*
X173922020Y-133147563D01*
X174168000Y-133027594D01*
X174168000Y-131684000D01*
X174148000Y-131684000D01*
X174148000Y-131430000D01*
X174168000Y-131430000D01*
X174168000Y-130086406D01*
X174422000Y-130086406D01*
X174422000Y-131430000D01*
X174442000Y-131430000D01*
X174442000Y-131684000D01*
X174422000Y-131684000D01*
X174422000Y-133027594D01*
X174667980Y-133147563D01*
X175161924Y-132932973D01*
X175555841Y-132547526D01*
X175690477Y-132749023D01*
X176215590Y-133099891D01*
X176835000Y-133223100D01*
X177454411Y-133099891D01*
X177979523Y-132749023D01*
X178330391Y-132223910D01*
X178422500Y-131760849D01*
X178422500Y-131353150D01*
X178330391Y-130890089D01*
X177979523Y-130364977D01*
X177454410Y-130014109D01*
X176835000Y-129890900D01*
X176215589Y-130014109D01*
X175690477Y-130364977D01*
X175555841Y-130566474D01*
X175161924Y-130181027D01*
X174667980Y-129966437D01*
X174422000Y-130086406D01*
X174168000Y-130086406D01*
X173922020Y-129966437D01*
X173428076Y-130181027D01*
X173302255Y-130304143D01*
X173165309Y-130099191D01*
X172955265Y-129958843D01*
X172707500Y-129909560D01*
X172515000Y-129909560D01*
X172515000Y-129587159D01*
X183816000Y-129587159D01*
X183816000Y-130376841D01*
X184118199Y-131106412D01*
X184676588Y-131664801D01*
X185406159Y-131967000D01*
X186195841Y-131967000D01*
X186925412Y-131664801D01*
X187483801Y-131106412D01*
X187786000Y-130376841D01*
X187786000Y-129587159D01*
X187483801Y-128857588D01*
X186925412Y-128299199D01*
X186195841Y-127997000D01*
X185406159Y-127997000D01*
X184676588Y-128299199D01*
X184118199Y-128857588D01*
X183816000Y-129587159D01*
X172515000Y-129587159D01*
X172515000Y-104203811D01*
X172938582Y-104486839D01*
X173371744Y-104573000D01*
X173664256Y-104573000D01*
X173933401Y-104519464D01*
X173933401Y-106038548D01*
X173918512Y-106113400D01*
X173977497Y-106409937D01*
X174039554Y-106502811D01*
X174145472Y-106661329D01*
X174208928Y-106703729D01*
X185207509Y-117702311D01*
X184986161Y-118033582D01*
X184870908Y-118613000D01*
X184986161Y-119192418D01*
X185314375Y-119683625D01*
X185612761Y-119883000D01*
X185314375Y-120082375D01*
X184986161Y-120573582D01*
X184870908Y-121153000D01*
X184986161Y-121732418D01*
X185314375Y-122223625D01*
X185612761Y-122423000D01*
X185314375Y-122622375D01*
X184986161Y-123113582D01*
X184870908Y-123693000D01*
X184986161Y-124272418D01*
X185314375Y-124763625D01*
X185805582Y-125091839D01*
X186238744Y-125178000D01*
X186531256Y-125178000D01*
X186964418Y-125091839D01*
X187455625Y-124763625D01*
X187783839Y-124272418D01*
X187899092Y-123693000D01*
X187783839Y-123113582D01*
X187455625Y-122622375D01*
X187157239Y-122423000D01*
X187455625Y-122223625D01*
X187783839Y-121732418D01*
X187899092Y-121153000D01*
X187783839Y-120573582D01*
X187455625Y-120082375D01*
X187157239Y-119883000D01*
X187455625Y-119683625D01*
X187783839Y-119192418D01*
X187899092Y-118613000D01*
X187783839Y-118033582D01*
X187455625Y-117542375D01*
X187157239Y-117343000D01*
X187455625Y-117143625D01*
X187783839Y-116652418D01*
X187899092Y-116073000D01*
X187783839Y-115493582D01*
X187455625Y-115002375D01*
X187157239Y-114803000D01*
X187455625Y-114603625D01*
X187783839Y-114112418D01*
X187899092Y-113533000D01*
X187783839Y-112953582D01*
X187455625Y-112462375D01*
X187157239Y-112263000D01*
X187455625Y-112063625D01*
X187783839Y-111572418D01*
X187899092Y-110993000D01*
X187783839Y-110413582D01*
X187455625Y-109922375D01*
X187157239Y-109723000D01*
X187455625Y-109523625D01*
X187783839Y-109032418D01*
X187899092Y-108453000D01*
X187783839Y-107873582D01*
X187746363Y-107817496D01*
X187783331Y-107762171D01*
X188057773Y-107487729D01*
X188121229Y-107445329D01*
X188289204Y-107193937D01*
X188333300Y-106972252D01*
X188333300Y-106972248D01*
X188348188Y-106897401D01*
X188333300Y-106822554D01*
X188333300Y-83081946D01*
X188348188Y-83007099D01*
X188333300Y-82932252D01*
X188333300Y-82932248D01*
X188289204Y-82710563D01*
X188180965Y-82548572D01*
X188163629Y-82522626D01*
X188163627Y-82522624D01*
X188121229Y-82459171D01*
X188057775Y-82416773D01*
X187440491Y-81799489D01*
X187661839Y-81468218D01*
X187777092Y-80888800D01*
X187661839Y-80309382D01*
X187333625Y-79818175D01*
X187311967Y-79803704D01*
X187472698Y-79737127D01*
X187651327Y-79558499D01*
X187748000Y-79325110D01*
X187748000Y-78634550D01*
X187589250Y-78475800D01*
X186390000Y-78475800D01*
X186390000Y-78495800D01*
X186136000Y-78495800D01*
X186136000Y-78475800D01*
X184936750Y-78475800D01*
X184778000Y-78634550D01*
X184778000Y-78916597D01*
X183233893Y-77372490D01*
X184778000Y-77372490D01*
X184778000Y-78063050D01*
X184936750Y-78221800D01*
X186136000Y-78221800D01*
X186136000Y-77022550D01*
X186390000Y-77022550D01*
X186390000Y-78221800D01*
X187589250Y-78221800D01*
X187748000Y-78063050D01*
X187748000Y-77372490D01*
X187651327Y-77139101D01*
X187472698Y-76960473D01*
X187239309Y-76863800D01*
X186548750Y-76863800D01*
X186390000Y-77022550D01*
X186136000Y-77022550D01*
X185977250Y-76863800D01*
X185286691Y-76863800D01*
X185053302Y-76960473D01*
X184874673Y-77139101D01*
X184778000Y-77372490D01*
X183233893Y-77372490D01*
X177455261Y-71593859D01*
X183801000Y-71593859D01*
X183801000Y-72383541D01*
X184103199Y-73113112D01*
X184661588Y-73671501D01*
X185391159Y-73973700D01*
X186180841Y-73973700D01*
X186910412Y-73671501D01*
X187468801Y-73113112D01*
X187771000Y-72383541D01*
X187771000Y-71593859D01*
X187468801Y-70864288D01*
X186910412Y-70305899D01*
X186180841Y-70003700D01*
X185391159Y-70003700D01*
X184661588Y-70305899D01*
X184103199Y-70864288D01*
X183801000Y-71593859D01*
X177455261Y-71593859D01*
X173315031Y-67453630D01*
X173272629Y-67390171D01*
X173021237Y-67222196D01*
X172799552Y-67178100D01*
X172799547Y-67178100D01*
X172724700Y-67163212D01*
X172649853Y-67178100D01*
X140264046Y-67178100D01*
X140189199Y-67163212D01*
X140114352Y-67178100D01*
X140114348Y-67178100D01*
X139892663Y-67222196D01*
X139641271Y-67390171D01*
X139598871Y-67453627D01*
X139116629Y-67935869D01*
X138785418Y-67714561D01*
X138352256Y-67628400D01*
X138059744Y-67628400D01*
X137626582Y-67714561D01*
X137135375Y-68042775D01*
X136936000Y-68341161D01*
X136736625Y-68042775D01*
X136245418Y-67714561D01*
X135812256Y-67628400D01*
X135519744Y-67628400D01*
X135086582Y-67714561D01*
X134595375Y-68042775D01*
X134580904Y-68064433D01*
X134514327Y-67903702D01*
X134335699Y-67725073D01*
X134102310Y-67628400D01*
X133411750Y-67628400D01*
X133253000Y-67787150D01*
X133253000Y-68986400D01*
X133273000Y-68986400D01*
X133273000Y-69240400D01*
X133253000Y-69240400D01*
X133253000Y-70439650D01*
X133411750Y-70598400D01*
X134102310Y-70598400D01*
X134335699Y-70501727D01*
X134514327Y-70323098D01*
X134580904Y-70162367D01*
X134595375Y-70184025D01*
X135086582Y-70512239D01*
X135519744Y-70598400D01*
X135812256Y-70598400D01*
X136245418Y-70512239D01*
X136736625Y-70184025D01*
X136936000Y-69885639D01*
X137135375Y-70184025D01*
X137626582Y-70512239D01*
X138059744Y-70598400D01*
X138352256Y-70598400D01*
X138785418Y-70512239D01*
X139276625Y-70184025D01*
X139476000Y-69885639D01*
X139675375Y-70184025D01*
X139986000Y-70391578D01*
X139986001Y-74438948D01*
X139971112Y-74513800D01*
X139986001Y-74588652D01*
X140030097Y-74810337D01*
X140198072Y-75061729D01*
X140261528Y-75104129D01*
X151226600Y-86069203D01*
X151226600Y-86115383D01*
X151368945Y-86459035D01*
X151631965Y-86722055D01*
X151975617Y-86864400D01*
X152347583Y-86864400D01*
X152691235Y-86722055D01*
X152954255Y-86459035D01*
X153096600Y-86115383D01*
X153096600Y-86081756D01*
X153187135Y-86044255D01*
X153450155Y-85781235D01*
X153572190Y-85486616D01*
X153528900Y-85704249D01*
X153528900Y-85704253D01*
X153514012Y-85779100D01*
X153528900Y-85853947D01*
X153528900Y-97246099D01*
X149793531Y-93510730D01*
X149751129Y-93447271D01*
X149499737Y-93279296D01*
X149278052Y-93235200D01*
X149278047Y-93235200D01*
X149203200Y-93220312D01*
X149128353Y-93235200D01*
X134877178Y-93235200D01*
X134669625Y-92924575D01*
X134651381Y-92912384D01*
X134696765Y-92903357D01*
X134906809Y-92763009D01*
X135047157Y-92552965D01*
X135096440Y-92305200D01*
X135096440Y-90605200D01*
X135047157Y-90357435D01*
X134906809Y-90147391D01*
X134696765Y-90007043D01*
X134449000Y-89957760D01*
X132749000Y-89957760D01*
X132501235Y-90007043D01*
X132291191Y-90147391D01*
X132150843Y-90357435D01*
X132101560Y-90605200D01*
X132101560Y-92305200D01*
X132150843Y-92552965D01*
X132291191Y-92763009D01*
X132501235Y-92903357D01*
X132546619Y-92912384D01*
X132528375Y-92924575D01*
X132200161Y-93415782D01*
X132084908Y-93995200D01*
X132200161Y-94574618D01*
X132528375Y-95065825D01*
X132826761Y-95265200D01*
X132528375Y-95464575D01*
X132200161Y-95955782D01*
X132084908Y-96535200D01*
X132200161Y-97114618D01*
X132528375Y-97605825D01*
X132826761Y-97805200D01*
X132528375Y-98004575D01*
X132200161Y-98495782D01*
X132084908Y-99075200D01*
X132200161Y-99654618D01*
X132528375Y-100145825D01*
X132847478Y-100359043D01*
X132717642Y-100420017D01*
X132327355Y-100848276D01*
X132157524Y-101258310D01*
X132278845Y-101488200D01*
X133472000Y-101488200D01*
X133472000Y-101468200D01*
X133726000Y-101468200D01*
X133726000Y-101488200D01*
X134919155Y-101488200D01*
X135040476Y-101258310D01*
X134870645Y-100848276D01*
X134480358Y-100420017D01*
X134350522Y-100359043D01*
X134669625Y-100145825D01*
X134881474Y-99828771D01*
X135070837Y-99791104D01*
X135322229Y-99623129D01*
X135364631Y-99559670D01*
X137179502Y-97744800D01*
X139354797Y-97744800D01*
X135068999Y-102030600D01*
X135016242Y-102030600D01*
X135040476Y-101972090D01*
X134919155Y-101742200D01*
X133726000Y-101742200D01*
X133726000Y-101762200D01*
X133472000Y-101762200D01*
X133472000Y-101742200D01*
X132278845Y-101742200D01*
X132157524Y-101972090D01*
X132327355Y-102382124D01*
X132440796Y-102506602D01*
X126857228Y-108090171D01*
X126793772Y-108132571D01*
X126751372Y-108196027D01*
X126751371Y-108196028D01*
X126625797Y-108383963D01*
X126566812Y-108680500D01*
X126581701Y-108755352D01*
X126581700Y-109972410D01*
X126549045Y-110005065D01*
X126406700Y-110348717D01*
X126406700Y-110720683D01*
X126549045Y-111064335D01*
X126812065Y-111327355D01*
X127155717Y-111469700D01*
X127207001Y-111469700D01*
X127207000Y-113908198D01*
X125390499Y-115724700D01*
X125344317Y-115724700D01*
X125000665Y-115867045D01*
X124737645Y-116130065D01*
X124595300Y-116473717D01*
X121539800Y-116473717D01*
X121539800Y-71578559D01*
X123806000Y-71578559D01*
X123806000Y-72368241D01*
X124108199Y-73097812D01*
X124666588Y-73656201D01*
X125396159Y-73958400D01*
X126185841Y-73958400D01*
X126915412Y-73656201D01*
X127473801Y-73097812D01*
X127776000Y-72368241D01*
X127776000Y-71578559D01*
X127473801Y-70848988D01*
X126915412Y-70290599D01*
X126185841Y-69988400D01*
X125396159Y-69988400D01*
X124666588Y-70290599D01*
X124108199Y-70848988D01*
X123806000Y-71578559D01*
X121539800Y-71578559D01*
X121539800Y-69399150D01*
X131641000Y-69399150D01*
X131641000Y-70089709D01*
X131737673Y-70323098D01*
X131916301Y-70501727D01*
X132149690Y-70598400D01*
X132840250Y-70598400D01*
X132999000Y-70439650D01*
X132999000Y-69240400D01*
X131799750Y-69240400D01*
X131641000Y-69399150D01*
X121539800Y-69399150D01*
X121539800Y-68137091D01*
X131641000Y-68137091D01*
X131641000Y-68827650D01*
X131799750Y-68986400D01*
X132999000Y-68986400D01*
X132999000Y-67787150D01*
X132840250Y-67628400D01*
X132149690Y-67628400D01*
X131916301Y-67725073D01*
X131737673Y-67903702D01*
X131641000Y-68137091D01*
X121539800Y-68137091D01*
X121539800Y-66708440D01*
X190069801Y-66708440D01*
X190069800Y-135238440D01*
X190069800Y-135238440D01*
G37*
X190069800Y-135238440D02*
X121539800Y-135238440D01*
X121539800Y-129546159D01*
X123842000Y-129546159D01*
X123842000Y-130335841D01*
X124144199Y-131065412D01*
X124702588Y-131623801D01*
X125432159Y-131926000D01*
X126221841Y-131926000D01*
X126951412Y-131623801D01*
X127509801Y-131065412D01*
X127812000Y-130335841D01*
X127812000Y-129546159D01*
X127509801Y-128816588D01*
X127168186Y-128474973D01*
X133897032Y-128474973D01*
X134017531Y-128707000D01*
X135225000Y-128707000D01*
X135225000Y-127500183D01*
X134992974Y-127379042D01*
X134577053Y-127551312D01*
X134145179Y-127945510D01*
X133897032Y-128474973D01*
X127168186Y-128474973D01*
X126951412Y-128258199D01*
X126221841Y-127956000D01*
X125432159Y-127956000D01*
X124702588Y-128258199D01*
X124144199Y-128816588D01*
X123842000Y-129546159D01*
X121539800Y-129546159D01*
X121539800Y-116473717D01*
X124595300Y-116473717D01*
X124595300Y-116845683D01*
X124737645Y-117189335D01*
X125000665Y-117452355D01*
X125344317Y-117594700D01*
X125716283Y-117594700D01*
X126059935Y-117452355D01*
X126322955Y-117189335D01*
X126465300Y-116845683D01*
X126465300Y-116799501D01*
X128451473Y-114813329D01*
X128514929Y-114770929D01*
X128682904Y-114519537D01*
X128727000Y-114297852D01*
X128727000Y-114297848D01*
X128741888Y-114223001D01*
X128727000Y-114148154D01*
X128727000Y-110925401D01*
X132271307Y-107381095D01*
X132528375Y-107765825D01*
X132845430Y-107977675D01*
X132883097Y-108167037D01*
X133051072Y-108418429D01*
X133114528Y-108460829D01*
X137132001Y-112478303D01*
X137132000Y-127539465D01*
X136811570Y-127753570D01*
X136610146Y-128055021D01*
X136558821Y-127945510D01*
X136126947Y-127551312D01*
X135711026Y-127379042D01*
X135479000Y-127500183D01*
X135479000Y-128707000D01*
X135499000Y-128707000D01*
X135499000Y-128961000D01*
X135479000Y-128961000D01*
X135479000Y-128981000D01*
X135225000Y-128981000D01*
X135225000Y-128961000D01*
X134017531Y-128961000D01*
X133897032Y-129193027D01*
X134145179Y-129722490D01*
X134332950Y-129893881D01*
X134240635Y-129912243D01*
X134030591Y-130052591D01*
X133890243Y-130262635D01*
X133840960Y-130510400D01*
X133840960Y-132237600D01*
X133890243Y-132485365D01*
X134030591Y-132695409D01*
X134240635Y-132835757D01*
X134488400Y-132885040D01*
X136215600Y-132885040D01*
X136463365Y-132835757D01*
X136519109Y-132798510D01*
X136819571Y-133098973D01*
X136861971Y-133162429D01*
X137113363Y-133330404D01*
X137335048Y-133374500D01*
X137335052Y-133374500D01*
X137409900Y-133389388D01*
X137484748Y-133374500D01*
X143402153Y-133374500D01*
X143477000Y-133389388D01*
X143551847Y-133374500D01*
X143551852Y-133374500D01*
X143773537Y-133330404D01*
X144024929Y-133162429D01*
X144067331Y-133098971D01*
X144599599Y-132566704D01*
X144927275Y-132785650D01*
X145364402Y-132872600D01*
X145659598Y-132872600D01*
X146096725Y-132785650D01*
X146592430Y-132454430D01*
X146923650Y-131958725D01*
X147039959Y-131374000D01*
X146923650Y-130789275D01*
X146646172Y-130374000D01*
X157338060Y-130374000D01*
X157338060Y-132374000D01*
X157387343Y-132621765D01*
X157527691Y-132831809D01*
X157737735Y-132972157D01*
X157985500Y-133021440D01*
X159890500Y-133021440D01*
X160138265Y-132972157D01*
X160348309Y-132831809D01*
X160485255Y-132626857D01*
X160611076Y-132749973D01*
X161105020Y-132964563D01*
X161351000Y-132844594D01*
X161351000Y-131501000D01*
X161331000Y-131501000D01*
X161331000Y-131247000D01*
X161351000Y-131247000D01*
X161351000Y-129903406D01*
X161605000Y-129903406D01*
X161605000Y-131247000D01*
X161625000Y-131247000D01*
X161625000Y-131501000D01*
X161605000Y-131501000D01*
X161605000Y-132844594D01*
X161850980Y-132964563D01*
X162344924Y-132749973D01*
X162738841Y-132364526D01*
X162873477Y-132566023D01*
X163398590Y-132916891D01*
X164018000Y-133040100D01*
X164637411Y-132916891D01*
X165162523Y-132566023D01*
X165513391Y-132040910D01*
X165605500Y-131577849D01*
X165605500Y-131170150D01*
X165513391Y-130707089D01*
X165162523Y-130181977D01*
X164637410Y-129831109D01*
X164018000Y-129707900D01*
X163398589Y-129831109D01*
X162873477Y-130181977D01*
X162738841Y-130383474D01*
X162344924Y-129998027D01*
X161850980Y-129783437D01*
X161605000Y-129903406D01*
X161351000Y-129903406D01*
X161105020Y-129783437D01*
X160611076Y-129998027D01*
X160485255Y-130121143D01*
X160348309Y-129916191D01*
X160138265Y-129775843D01*
X159890500Y-129726560D01*
X157985500Y-129726560D01*
X157737735Y-129775843D01*
X157527691Y-129916191D01*
X157387343Y-130126235D01*
X157338060Y-130374000D01*
X146646172Y-130374000D01*
X146592430Y-130293570D01*
X146308719Y-130104000D01*
X146592430Y-129914430D01*
X146923650Y-129418725D01*
X147039959Y-128834000D01*
X146923650Y-128249275D01*
X146592430Y-127753570D01*
X146176468Y-127475633D01*
X154113473Y-119538629D01*
X154120398Y-119534002D01*
X154132076Y-119544645D01*
X154542110Y-119714476D01*
X154772000Y-119593155D01*
X154772000Y-118400000D01*
X155026000Y-118400000D01*
X155026000Y-119593155D01*
X155255890Y-119714476D01*
X155665924Y-119544645D01*
X156094183Y-119154358D01*
X156340486Y-118629892D01*
X156219819Y-118400000D01*
X155026000Y-118400000D01*
X154772000Y-118400000D01*
X154752000Y-118400000D01*
X154752000Y-118146000D01*
X154772000Y-118146000D01*
X154772000Y-118126000D01*
X155026000Y-118126000D01*
X155026000Y-118146000D01*
X156219819Y-118146000D01*
X156340486Y-117916108D01*
X156094183Y-117391642D01*
X155665924Y-117001355D01*
X155255890Y-116831524D01*
X155026002Y-116952844D01*
X155026002Y-116788000D01*
X155013401Y-116788000D01*
X158703976Y-113097427D01*
X158767429Y-113055029D01*
X158809827Y-112991576D01*
X158809829Y-112991574D01*
X158935403Y-112803638D01*
X158935404Y-112803637D01*
X158979500Y-112581952D01*
X158979500Y-112581948D01*
X158994388Y-112507101D01*
X158979500Y-112432254D01*
X158979500Y-94168837D01*
X159027828Y-94201129D01*
X164579773Y-99753076D01*
X164622171Y-99816529D01*
X164685624Y-99858927D01*
X164685626Y-99858929D01*
X164722548Y-99883599D01*
X164873563Y-99984504D01*
X165095248Y-100028600D01*
X165095252Y-100028600D01*
X165170099Y-100043488D01*
X165244946Y-100028600D01*
X172020560Y-100028600D01*
X172020560Y-101398000D01*
X172069843Y-101645765D01*
X172103325Y-101695874D01*
X171270530Y-102528669D01*
X171207071Y-102571071D01*
X171039096Y-102822464D01*
X170995000Y-103044149D01*
X170995000Y-103044153D01*
X170980112Y-103119000D01*
X170995000Y-103193847D01*
X170995001Y-129909560D01*
X170802500Y-129909560D01*
X170554735Y-129958843D01*
X170344691Y-130099191D01*
X170204343Y-130309235D01*
X170155060Y-130557000D01*
X170155060Y-132557000D01*
X170204343Y-132804765D01*
X170344691Y-133014809D01*
X170554735Y-133155157D01*
X170802500Y-133204440D01*
X172707500Y-133204440D01*
X172955265Y-133155157D01*
X173165309Y-133014809D01*
X173302255Y-132809857D01*
X173428076Y-132932973D01*
X173922020Y-133147563D01*
X174168000Y-133027594D01*
X174168000Y-131684000D01*
X174148000Y-131684000D01*
X174148000Y-131430000D01*
X174168000Y-131430000D01*
X174168000Y-130086406D01*
X174422000Y-130086406D01*
X174422000Y-131430000D01*
X174442000Y-131430000D01*
X174442000Y-131684000D01*
X174422000Y-131684000D01*
X174422000Y-133027594D01*
X174667980Y-133147563D01*
X175161924Y-132932973D01*
X175555841Y-132547526D01*
X175690477Y-132749023D01*
X176215590Y-133099891D01*
X176835000Y-133223100D01*
X177454411Y-133099891D01*
X177979523Y-132749023D01*
X178330391Y-132223910D01*
X178422500Y-131760849D01*
X178422500Y-131353150D01*
X178330391Y-130890089D01*
X177979523Y-130364977D01*
X177454410Y-130014109D01*
X176835000Y-129890900D01*
X176215589Y-130014109D01*
X175690477Y-130364977D01*
X175555841Y-130566474D01*
X175161924Y-130181027D01*
X174667980Y-129966437D01*
X174422000Y-130086406D01*
X174168000Y-130086406D01*
X173922020Y-129966437D01*
X173428076Y-130181027D01*
X173302255Y-130304143D01*
X173165309Y-130099191D01*
X172955265Y-129958843D01*
X172707500Y-129909560D01*
X172515000Y-129909560D01*
X172515000Y-129587159D01*
X183816000Y-129587159D01*
X183816000Y-130376841D01*
X184118199Y-131106412D01*
X184676588Y-131664801D01*
X185406159Y-131967000D01*
X186195841Y-131967000D01*
X186925412Y-131664801D01*
X187483801Y-131106412D01*
X187786000Y-130376841D01*
X187786000Y-129587159D01*
X187483801Y-128857588D01*
X186925412Y-128299199D01*
X186195841Y-127997000D01*
X185406159Y-127997000D01*
X184676588Y-128299199D01*
X184118199Y-128857588D01*
X183816000Y-129587159D01*
X172515000Y-129587159D01*
X172515000Y-104203811D01*
X172938582Y-104486839D01*
X173371744Y-104573000D01*
X173664256Y-104573000D01*
X173933401Y-104519464D01*
X173933401Y-106038548D01*
X173918512Y-106113400D01*
X173977497Y-106409937D01*
X174039554Y-106502811D01*
X174145472Y-106661329D01*
X174208928Y-106703729D01*
X185207509Y-117702311D01*
X184986161Y-118033582D01*
X184870908Y-118613000D01*
X184986161Y-119192418D01*
X185314375Y-119683625D01*
X185612761Y-119883000D01*
X185314375Y-120082375D01*
X184986161Y-120573582D01*
X184870908Y-121153000D01*
X184986161Y-121732418D01*
X185314375Y-122223625D01*
X185612761Y-122423000D01*
X185314375Y-122622375D01*
X184986161Y-123113582D01*
X184870908Y-123693000D01*
X184986161Y-124272418D01*
X185314375Y-124763625D01*
X185805582Y-125091839D01*
X186238744Y-125178000D01*
X186531256Y-125178000D01*
X186964418Y-125091839D01*
X187455625Y-124763625D01*
X187783839Y-124272418D01*
X187899092Y-123693000D01*
X187783839Y-123113582D01*
X187455625Y-122622375D01*
X187157239Y-122423000D01*
X187455625Y-122223625D01*
X187783839Y-121732418D01*
X187899092Y-121153000D01*
X187783839Y-120573582D01*
X187455625Y-120082375D01*
X187157239Y-119883000D01*
X187455625Y-119683625D01*
X187783839Y-119192418D01*
X187899092Y-118613000D01*
X187783839Y-118033582D01*
X187455625Y-117542375D01*
X187157239Y-117343000D01*
X187455625Y-117143625D01*
X187783839Y-116652418D01*
X187899092Y-116073000D01*
X187783839Y-115493582D01*
X187455625Y-115002375D01*
X187157239Y-114803000D01*
X187455625Y-114603625D01*
X187783839Y-114112418D01*
X187899092Y-113533000D01*
X187783839Y-112953582D01*
X187455625Y-112462375D01*
X187157239Y-112263000D01*
X187455625Y-112063625D01*
X187783839Y-111572418D01*
X187899092Y-110993000D01*
X187783839Y-110413582D01*
X187455625Y-109922375D01*
X187157239Y-109723000D01*
X187455625Y-109523625D01*
X187783839Y-109032418D01*
X187899092Y-108453000D01*
X187783839Y-107873582D01*
X187746363Y-107817496D01*
X187783331Y-107762171D01*
X188057773Y-107487729D01*
X188121229Y-107445329D01*
X188289204Y-107193937D01*
X188333300Y-106972252D01*
X188333300Y-106972248D01*
X188348188Y-106897401D01*
X188333300Y-106822554D01*
X188333300Y-83081946D01*
X188348188Y-83007099D01*
X188333300Y-82932252D01*
X188333300Y-82932248D01*
X188289204Y-82710563D01*
X188180965Y-82548572D01*
X188163629Y-82522626D01*
X188163627Y-82522624D01*
X188121229Y-82459171D01*
X188057775Y-82416773D01*
X187440491Y-81799489D01*
X187661839Y-81468218D01*
X187777092Y-80888800D01*
X187661839Y-80309382D01*
X187333625Y-79818175D01*
X187311967Y-79803704D01*
X187472698Y-79737127D01*
X187651327Y-79558499D01*
X187748000Y-79325110D01*
X187748000Y-78634550D01*
X187589250Y-78475800D01*
X186390000Y-78475800D01*
X186390000Y-78495800D01*
X186136000Y-78495800D01*
X186136000Y-78475800D01*
X184936750Y-78475800D01*
X184778000Y-78634550D01*
X184778000Y-78916597D01*
X183233893Y-77372490D01*
X184778000Y-77372490D01*
X184778000Y-78063050D01*
X184936750Y-78221800D01*
X186136000Y-78221800D01*
X186136000Y-77022550D01*
X186390000Y-77022550D01*
X186390000Y-78221800D01*
X187589250Y-78221800D01*
X187748000Y-78063050D01*
X187748000Y-77372490D01*
X187651327Y-77139101D01*
X187472698Y-76960473D01*
X187239309Y-76863800D01*
X186548750Y-76863800D01*
X186390000Y-77022550D01*
X186136000Y-77022550D01*
X185977250Y-76863800D01*
X185286691Y-76863800D01*
X185053302Y-76960473D01*
X184874673Y-77139101D01*
X184778000Y-77372490D01*
X183233893Y-77372490D01*
X177455261Y-71593859D01*
X183801000Y-71593859D01*
X183801000Y-72383541D01*
X184103199Y-73113112D01*
X184661588Y-73671501D01*
X185391159Y-73973700D01*
X186180841Y-73973700D01*
X186910412Y-73671501D01*
X187468801Y-73113112D01*
X187771000Y-72383541D01*
X187771000Y-71593859D01*
X187468801Y-70864288D01*
X186910412Y-70305899D01*
X186180841Y-70003700D01*
X185391159Y-70003700D01*
X184661588Y-70305899D01*
X184103199Y-70864288D01*
X183801000Y-71593859D01*
X177455261Y-71593859D01*
X173315031Y-67453630D01*
X173272629Y-67390171D01*
X173021237Y-67222196D01*
X172799552Y-67178100D01*
X172799547Y-67178100D01*
X172724700Y-67163212D01*
X172649853Y-67178100D01*
X140264046Y-67178100D01*
X140189199Y-67163212D01*
X140114352Y-67178100D01*
X140114348Y-67178100D01*
X139892663Y-67222196D01*
X139641271Y-67390171D01*
X139598871Y-67453627D01*
X139116629Y-67935869D01*
X138785418Y-67714561D01*
X138352256Y-67628400D01*
X138059744Y-67628400D01*
X137626582Y-67714561D01*
X137135375Y-68042775D01*
X136936000Y-68341161D01*
X136736625Y-68042775D01*
X136245418Y-67714561D01*
X135812256Y-67628400D01*
X135519744Y-67628400D01*
X135086582Y-67714561D01*
X134595375Y-68042775D01*
X134580904Y-68064433D01*
X134514327Y-67903702D01*
X134335699Y-67725073D01*
X134102310Y-67628400D01*
X133411750Y-67628400D01*
X133253000Y-67787150D01*
X133253000Y-68986400D01*
X133273000Y-68986400D01*
X133273000Y-69240400D01*
X133253000Y-69240400D01*
X133253000Y-70439650D01*
X133411750Y-70598400D01*
X134102310Y-70598400D01*
X134335699Y-70501727D01*
X134514327Y-70323098D01*
X134580904Y-70162367D01*
X134595375Y-70184025D01*
X135086582Y-70512239D01*
X135519744Y-70598400D01*
X135812256Y-70598400D01*
X136245418Y-70512239D01*
X136736625Y-70184025D01*
X136936000Y-69885639D01*
X137135375Y-70184025D01*
X137626582Y-70512239D01*
X138059744Y-70598400D01*
X138352256Y-70598400D01*
X138785418Y-70512239D01*
X139276625Y-70184025D01*
X139476000Y-69885639D01*
X139675375Y-70184025D01*
X139986000Y-70391578D01*
X139986001Y-74438948D01*
X139971112Y-74513800D01*
X139986001Y-74588652D01*
X140030097Y-74810337D01*
X140198072Y-75061729D01*
X140261528Y-75104129D01*
X151226600Y-86069203D01*
X151226600Y-86115383D01*
X151368945Y-86459035D01*
X151631965Y-86722055D01*
X151975617Y-86864400D01*
X152347583Y-86864400D01*
X152691235Y-86722055D01*
X152954255Y-86459035D01*
X153096600Y-86115383D01*
X153096600Y-86081756D01*
X153187135Y-86044255D01*
X153450155Y-85781235D01*
X153572190Y-85486616D01*
X153528900Y-85704249D01*
X153528900Y-85704253D01*
X153514012Y-85779100D01*
X153528900Y-85853947D01*
X153528900Y-97246099D01*
X149793531Y-93510730D01*
X149751129Y-93447271D01*
X149499737Y-93279296D01*
X149278052Y-93235200D01*
X149278047Y-93235200D01*
X149203200Y-93220312D01*
X149128353Y-93235200D01*
X134877178Y-93235200D01*
X134669625Y-92924575D01*
X134651381Y-92912384D01*
X134696765Y-92903357D01*
X134906809Y-92763009D01*
X135047157Y-92552965D01*
X135096440Y-92305200D01*
X135096440Y-90605200D01*
X135047157Y-90357435D01*
X134906809Y-90147391D01*
X134696765Y-90007043D01*
X134449000Y-89957760D01*
X132749000Y-89957760D01*
X132501235Y-90007043D01*
X132291191Y-90147391D01*
X132150843Y-90357435D01*
X132101560Y-90605200D01*
X132101560Y-92305200D01*
X132150843Y-92552965D01*
X132291191Y-92763009D01*
X132501235Y-92903357D01*
X132546619Y-92912384D01*
X132528375Y-92924575D01*
X132200161Y-93415782D01*
X132084908Y-93995200D01*
X132200161Y-94574618D01*
X132528375Y-95065825D01*
X132826761Y-95265200D01*
X132528375Y-95464575D01*
X132200161Y-95955782D01*
X132084908Y-96535200D01*
X132200161Y-97114618D01*
X132528375Y-97605825D01*
X132826761Y-97805200D01*
X132528375Y-98004575D01*
X132200161Y-98495782D01*
X132084908Y-99075200D01*
X132200161Y-99654618D01*
X132528375Y-100145825D01*
X132847478Y-100359043D01*
X132717642Y-100420017D01*
X132327355Y-100848276D01*
X132157524Y-101258310D01*
X132278845Y-101488200D01*
X133472000Y-101488200D01*
X133472000Y-101468200D01*
X133726000Y-101468200D01*
X133726000Y-101488200D01*
X134919155Y-101488200D01*
X135040476Y-101258310D01*
X134870645Y-100848276D01*
X134480358Y-100420017D01*
X134350522Y-100359043D01*
X134669625Y-100145825D01*
X134881474Y-99828771D01*
X135070837Y-99791104D01*
X135322229Y-99623129D01*
X135364631Y-99559670D01*
X137179502Y-97744800D01*
X139354797Y-97744800D01*
X135068999Y-102030600D01*
X135016242Y-102030600D01*
X135040476Y-101972090D01*
X134919155Y-101742200D01*
X133726000Y-101742200D01*
X133726000Y-101762200D01*
X133472000Y-101762200D01*
X133472000Y-101742200D01*
X132278845Y-101742200D01*
X132157524Y-101972090D01*
X132327355Y-102382124D01*
X132440796Y-102506602D01*
X126857228Y-108090171D01*
X126793772Y-108132571D01*
X126751372Y-108196027D01*
X126751371Y-108196028D01*
X126625797Y-108383963D01*
X126566812Y-108680500D01*
X126581701Y-108755352D01*
X126581700Y-109972410D01*
X126549045Y-110005065D01*
X126406700Y-110348717D01*
X126406700Y-110720683D01*
X126549045Y-111064335D01*
X126812065Y-111327355D01*
X127155717Y-111469700D01*
X127207001Y-111469700D01*
X127207000Y-113908198D01*
X125390499Y-115724700D01*
X125344317Y-115724700D01*
X125000665Y-115867045D01*
X124737645Y-116130065D01*
X124595300Y-116473717D01*
X121539800Y-116473717D01*
X121539800Y-71578559D01*
X123806000Y-71578559D01*
X123806000Y-72368241D01*
X124108199Y-73097812D01*
X124666588Y-73656201D01*
X125396159Y-73958400D01*
X126185841Y-73958400D01*
X126915412Y-73656201D01*
X127473801Y-73097812D01*
X127776000Y-72368241D01*
X127776000Y-71578559D01*
X127473801Y-70848988D01*
X126915412Y-70290599D01*
X126185841Y-69988400D01*
X125396159Y-69988400D01*
X124666588Y-70290599D01*
X124108199Y-70848988D01*
X123806000Y-71578559D01*
X121539800Y-71578559D01*
X121539800Y-69399150D01*
X131641000Y-69399150D01*
X131641000Y-70089709D01*
X131737673Y-70323098D01*
X131916301Y-70501727D01*
X132149690Y-70598400D01*
X132840250Y-70598400D01*
X132999000Y-70439650D01*
X132999000Y-69240400D01*
X131799750Y-69240400D01*
X131641000Y-69399150D01*
X121539800Y-69399150D01*
X121539800Y-68137091D01*
X131641000Y-68137091D01*
X131641000Y-68827650D01*
X131799750Y-68986400D01*
X132999000Y-68986400D01*
X132999000Y-67787150D01*
X132840250Y-67628400D01*
X132149690Y-67628400D01*
X131916301Y-67725073D01*
X131737673Y-67903702D01*
X131641000Y-68137091D01*
X121539800Y-68137091D01*
X121539800Y-66708440D01*
X190069801Y-66708440D01*
X190069800Y-135238440D01*
G36*
X185192375Y-87039425D02*
X185490761Y-87238800D01*
X185192375Y-87438175D01*
X184864161Y-87929382D01*
X184748908Y-88508800D01*
X184864161Y-89088218D01*
X185192375Y-89579425D01*
X185490761Y-89778800D01*
X185192375Y-89978175D01*
X184864161Y-90469382D01*
X184748908Y-91048800D01*
X184864161Y-91628218D01*
X185192375Y-92119425D01*
X185490761Y-92318800D01*
X185192375Y-92518175D01*
X184864161Y-93009382D01*
X184748908Y-93588800D01*
X184864161Y-94168218D01*
X185192375Y-94659425D01*
X185490761Y-94858800D01*
X185192375Y-95058175D01*
X184864161Y-95549382D01*
X184748908Y-96128800D01*
X184864161Y-96708218D01*
X185192375Y-97199425D01*
X185683582Y-97527639D01*
X186116744Y-97613800D01*
X186409256Y-97613800D01*
X186813300Y-97533431D01*
X186813300Y-104428000D01*
X186670750Y-104428000D01*
X186512000Y-104586750D01*
X186512000Y-105786000D01*
X186532000Y-105786000D01*
X186532000Y-106040000D01*
X186512000Y-106040000D01*
X186512000Y-106060000D01*
X186258000Y-106060000D01*
X186258000Y-106040000D01*
X185058750Y-106040000D01*
X184900000Y-106198750D01*
X184900000Y-106889310D01*
X184996673Y-107122699D01*
X185175302Y-107301327D01*
X185336033Y-107367904D01*
X185314375Y-107382375D01*
X185051099Y-107776396D01*
X182211393Y-104936690D01*
X184900000Y-104936690D01*
X184900000Y-105627250D01*
X185058750Y-105786000D01*
X186258000Y-105786000D01*
X186258000Y-104586750D01*
X186099250Y-104428000D01*
X185408691Y-104428000D01*
X185175302Y-104524673D01*
X184996673Y-104703301D01*
X184900000Y-104936690D01*
X182211393Y-104936690D01*
X178291800Y-101017099D01*
X178291800Y-100341947D01*
X178306688Y-100267100D01*
X178291800Y-100192253D01*
X178291800Y-100192248D01*
X178247704Y-99970563D01*
X178079729Y-99719171D01*
X178016273Y-99676771D01*
X167453731Y-89114230D01*
X167411329Y-89050771D01*
X167159937Y-88882796D01*
X166938252Y-88838700D01*
X166938247Y-88838700D01*
X166863400Y-88823812D01*
X166788553Y-88838700D01*
X166447102Y-88838700D01*
X168557003Y-86728800D01*
X184984822Y-86728800D01*
X185192375Y-87039425D01*
X185192375Y-87039425D01*
G37*
X185192375Y-87039425D02*
X185490761Y-87238800D01*
X185192375Y-87438175D01*
X184864161Y-87929382D01*
X184748908Y-88508800D01*
X184864161Y-89088218D01*
X185192375Y-89579425D01*
X185490761Y-89778800D01*
X185192375Y-89978175D01*
X184864161Y-90469382D01*
X184748908Y-91048800D01*
X184864161Y-91628218D01*
X185192375Y-92119425D01*
X185490761Y-92318800D01*
X185192375Y-92518175D01*
X184864161Y-93009382D01*
X184748908Y-93588800D01*
X184864161Y-94168218D01*
X185192375Y-94659425D01*
X185490761Y-94858800D01*
X185192375Y-95058175D01*
X184864161Y-95549382D01*
X184748908Y-96128800D01*
X184864161Y-96708218D01*
X185192375Y-97199425D01*
X185683582Y-97527639D01*
X186116744Y-97613800D01*
X186409256Y-97613800D01*
X186813300Y-97533431D01*
X186813300Y-104428000D01*
X186670750Y-104428000D01*
X186512000Y-104586750D01*
X186512000Y-105786000D01*
X186532000Y-105786000D01*
X186532000Y-106040000D01*
X186512000Y-106040000D01*
X186512000Y-106060000D01*
X186258000Y-106060000D01*
X186258000Y-106040000D01*
X185058750Y-106040000D01*
X184900000Y-106198750D01*
X184900000Y-106889310D01*
X184996673Y-107122699D01*
X185175302Y-107301327D01*
X185336033Y-107367904D01*
X185314375Y-107382375D01*
X185051099Y-107776396D01*
X182211393Y-104936690D01*
X184900000Y-104936690D01*
X184900000Y-105627250D01*
X185058750Y-105786000D01*
X186258000Y-105786000D01*
X186258000Y-104586750D01*
X186099250Y-104428000D01*
X185408691Y-104428000D01*
X185175302Y-104524673D01*
X184996673Y-104703301D01*
X184900000Y-104936690D01*
X182211393Y-104936690D01*
X178291800Y-101017099D01*
X178291800Y-100341947D01*
X178306688Y-100267100D01*
X178291800Y-100192253D01*
X178291800Y-100192248D01*
X178247704Y-99970563D01*
X178079729Y-99719171D01*
X178016273Y-99676771D01*
X167453731Y-89114230D01*
X167411329Y-89050771D01*
X167159937Y-88882796D01*
X166938252Y-88838700D01*
X166938247Y-88838700D01*
X166863400Y-88823812D01*
X166788553Y-88838700D01*
X166447102Y-88838700D01*
X168557003Y-86728800D01*
X184984822Y-86728800D01*
X185192375Y-87039425D01*
G04 #@! TD*
M02*
