G04 #@! TF.GenerationSoftware,KiCad,Pcbnew,5.0.2-bee76a0~70~ubuntu18.10.1*
G04 #@! TF.CreationDate,2019-07-18T11:33:01-04:00*
G04 #@! TF.ProjectId,Bonaire,426f6e61-6972-4652-9e6b-696361645f70,rev?*
G04 #@! TF.SameCoordinates,Original*
G04 #@! TF.FileFunction,Copper,L2,Bot*
G04 #@! TF.FilePolarity,Positive*
%FSLAX46Y46*%
G04 Gerber Fmt 4.6, Leading zero omitted, Abs format (unit mm)*
G04 Created by KiCad (PCBNEW 5.0.2-bee76a0~70~ubuntu18.10.1) date Thu 18 Jul 2019 11:33:01 AM EDT*
%MOMM*%
%LPD*%
G01*
G04 APERTURE LIST*
G04 #@! TA.AperFunction,ComponentPad*
%ADD10O,1.905000X2.000000*%
G04 #@! TD*
G04 #@! TA.AperFunction,ComponentPad*
%ADD11R,1.905000X2.000000*%
G04 #@! TD*
G04 #@! TA.AperFunction,ComponentPad*
%ADD12R,1.700000X1.700000*%
G04 #@! TD*
G04 #@! TA.AperFunction,ComponentPad*
%ADD13O,1.700000X1.700000*%
G04 #@! TD*
G04 #@! TA.AperFunction,ComponentPad*
%ADD14R,1.727200X1.727200*%
G04 #@! TD*
G04 #@! TA.AperFunction,ComponentPad*
%ADD15O,1.727200X1.727200*%
G04 #@! TD*
G04 #@! TA.AperFunction,ViaPad*
%ADD16C,0.600000*%
G04 #@! TD*
G04 #@! TA.AperFunction,Conductor*
%ADD17C,0.250000*%
G04 #@! TD*
G04 #@! TA.AperFunction,Conductor*
%ADD18C,0.254000*%
G04 #@! TD*
G04 APERTURE END LIST*
D10*
G04 #@! TO.P,U3,3*
G04 #@! TO.N,+5V*
X176835000Y-131557000D03*
G04 #@! TO.P,U3,2*
G04 #@! TO.N,GND*
X174295000Y-131557000D03*
D11*
G04 #@! TO.P,U3,1*
G04 #@! TO.N,+24V*
X171755000Y-131557000D03*
G04 #@! TD*
D12*
G04 #@! TO.P,JP1,1*
G04 #@! TO.N,+24V*
X173518000Y-100548000D03*
D13*
G04 #@! TO.P,JP1,2*
G04 #@! TO.N,+5V*
X173518000Y-103088000D03*
G04 #@! TD*
D12*
G04 #@! TO.P,J1,1*
G04 #@! TO.N,+24V*
X147279000Y-118273000D03*
D13*
G04 #@! TO.P,J1,2*
G04 #@! TO.N,/RS485A*
X149819000Y-118273000D03*
G04 #@! TO.P,J1,3*
G04 #@! TO.N,/RS485B*
X152359000Y-118273000D03*
G04 #@! TO.P,J1,4*
G04 #@! TO.N,GND*
X154899000Y-118273000D03*
G04 #@! TD*
D14*
G04 #@! TO.P,CON1,1*
G04 #@! TO.N,Net-(CON1-Pad1)*
X135352000Y-131374000D03*
D15*
G04 #@! TO.P,CON1,2*
G04 #@! TO.N,GND*
X135352000Y-128834000D03*
G04 #@! TO.P,CON1,3*
G04 #@! TO.N,Net-(CON1-Pad3)*
X137892000Y-131374000D03*
G04 #@! TO.P,CON1,4*
G04 #@! TO.N,+3V3*
X137892000Y-128834000D03*
G04 #@! TO.P,CON1,5*
G04 #@! TO.N,Net-(CON1-Pad5)*
X140432000Y-131374000D03*
G04 #@! TO.P,CON1,6*
G04 #@! TO.N,Net-(CON1-Pad6)*
X140432000Y-128834000D03*
G04 #@! TO.P,CON1,7*
G04 #@! TO.N,Net-(CON1-Pad7)*
X142972000Y-131374000D03*
G04 #@! TO.P,CON1,8*
G04 #@! TO.N,Net-(CON1-Pad8)*
X142972000Y-128834000D03*
G04 #@! TO.P,CON1,9*
G04 #@! TO.N,Net-(CON1-Pad9)*
X145512000Y-131374000D03*
G04 #@! TO.P,CON1,10*
G04 #@! TO.N,Net-(CON1-Pad10)*
X145512000Y-128834000D03*
G04 #@! TD*
D11*
G04 #@! TO.P,U1,1*
G04 #@! TO.N,+24V*
X158938000Y-131374000D03*
D10*
G04 #@! TO.P,U1,2*
G04 #@! TO.N,GND*
X161478000Y-131374000D03*
G04 #@! TO.P,U1,3*
G04 #@! TO.N,+3V3*
X164018000Y-131374000D03*
G04 #@! TD*
D12*
G04 #@! TO.P,J3,1*
G04 #@! TO.N,GND*
X133126000Y-69113400D03*
D13*
G04 #@! TO.P,J3,2*
G04 #@! TO.N,Net-(J3-Pad2)*
X135666000Y-69113400D03*
G04 #@! TO.P,J3,3*
G04 #@! TO.N,+5V*
X138206000Y-69113400D03*
G04 #@! TO.P,J3,4*
G04 #@! TO.N,/GPIOB/UART1_RX*
X140746000Y-69113400D03*
G04 #@! TO.P,J3,5*
G04 #@! TO.N,/GPIOB/UART1_TX*
X143286000Y-69113400D03*
G04 #@! TO.P,J3,6*
G04 #@! TO.N,Net-(J3-Pad6)*
X145826000Y-69113400D03*
G04 #@! TD*
D12*
G04 #@! TO.P,J2,1*
G04 #@! TO.N,/GPIOB/~CS*
X133599000Y-91455200D03*
D13*
G04 #@! TO.P,J2,2*
G04 #@! TO.N,/GPIOB/MOSI*
X133599000Y-93995200D03*
G04 #@! TO.P,J2,3*
G04 #@! TO.N,/GPIOB/MISO*
X133599000Y-96535200D03*
G04 #@! TO.P,J2,4*
G04 #@! TO.N,/GPIOB/SCK*
X133599000Y-99075200D03*
G04 #@! TO.P,J2,5*
G04 #@! TO.N,GND*
X133599000Y-101615200D03*
G04 #@! TO.P,J2,6*
G04 #@! TO.N,Net-(J2-Pad6)*
X133599000Y-104155200D03*
G04 #@! TO.P,J2,7*
G04 #@! TO.N,+3V3*
X133599000Y-106695200D03*
G04 #@! TD*
D16*
G04 #@! TO.N,+3V3*
X166616200Y-99620000D03*
X161761700Y-104764600D03*
X137892000Y-112024000D03*
G04 #@! TO.N,GND*
X165857800Y-85557800D03*
X163946400Y-90161400D03*
X165628300Y-88448500D03*
G04 #@! TO.N,/RS485B*
X169029500Y-82098400D03*
G04 #@! TO.N,/RS485A*
X168365000Y-76389200D03*
G04 #@! TO.N,/GPIOB/~CS*
X152101600Y-97276300D03*
G04 #@! TO.N,/GPIOB/MOSI*
X160664900Y-99373800D03*
G04 #@! TO.N,/GPIOB/MISO*
X159570500Y-99173900D03*
G04 #@! TO.N,/GPIOB/SCK*
X160175800Y-100624500D03*
G04 #@! TO.N,/GPIOB/UART1_RX*
X150978500Y-85914400D03*
G04 #@! TO.N,/GPIOB/UART1_TX*
X153719700Y-85592700D03*
G04 #@! TO.N,Net-(J5-Pad4)*
X178189400Y-109828200D03*
X184120000Y-114693100D03*
G04 #@! TO.N,Net-(J5-Pad3)*
X174961500Y-107003600D03*
X182711300Y-114780000D03*
G04 #@! TO.N,Net-(CON1-Pad5)*
X163856500Y-91024300D03*
G04 #@! TO.N,Net-(CON1-Pad1)*
X161296700Y-87624300D03*
G04 #@! TD*
D17*
G04 #@! TO.N,+3V3*
X161761700Y-104764600D02*
X166616200Y-99910100D01*
X166616200Y-99910100D02*
X166616200Y-99620000D01*
X137892000Y-112024000D02*
X137892000Y-127645100D01*
X133599000Y-107870500D02*
X133738500Y-107870500D01*
X133738500Y-107870500D02*
X137892000Y-112024000D01*
X133599000Y-106695200D02*
X133599000Y-107870500D01*
X137892000Y-128834000D02*
X137892000Y-127645100D01*
G04 #@! TO.N,GND*
X165628300Y-88448500D02*
X165628300Y-85787300D01*
X165628300Y-85787300D02*
X165857800Y-85557800D01*
X165628300Y-88448500D02*
X163946400Y-90130400D01*
X163946400Y-90130400D02*
X163946400Y-90161400D01*
X133599000Y-101615200D02*
X133599000Y-102790500D01*
X135352000Y-128834000D02*
X135352000Y-127645100D01*
X135352000Y-127645100D02*
X132423700Y-124716800D01*
X132423700Y-124716800D02*
X132423700Y-103598400D01*
X132423700Y-103598400D02*
X133231600Y-102790500D01*
X133231600Y-102790500D02*
X133599000Y-102790500D01*
G04 #@! TO.N,/RS485B*
X152359000Y-117097700D02*
X169029500Y-100427200D01*
X169029500Y-100427200D02*
X169029500Y-82098400D01*
X152359000Y-118273000D02*
X152359000Y-117097700D01*
G04 #@! TO.N,/RS485A*
X149819000Y-117097700D02*
X150317500Y-117097700D01*
X150317500Y-117097700D02*
X168365000Y-99050200D01*
X168365000Y-99050200D02*
X168365000Y-76389200D01*
X149819000Y-118273000D02*
X149819000Y-117097700D01*
G04 #@! TO.N,/GPIOB/~CS*
X133599000Y-91455200D02*
X146280500Y-91455200D01*
X146280500Y-91455200D02*
X152101600Y-97276300D01*
G04 #@! TO.N,/GPIOB/MOSI*
X160664900Y-99373800D02*
X159192700Y-97901600D01*
X159192700Y-97901600D02*
X138680700Y-97901600D01*
X138680700Y-97901600D02*
X134774300Y-93995200D01*
X133599000Y-93995200D02*
X134774300Y-93995200D01*
G04 #@! TO.N,/GPIOB/MISO*
X133599000Y-96535200D02*
X134774300Y-96535200D01*
X134774300Y-96535200D02*
X137413000Y-99173900D01*
X137413000Y-99173900D02*
X159570500Y-99173900D01*
G04 #@! TO.N,/GPIOB/SCK*
X134774300Y-99075200D02*
X136323600Y-100624500D01*
X136323600Y-100624500D02*
X160175800Y-100624500D01*
X133599000Y-99075200D02*
X134774300Y-99075200D01*
G04 #@! TO.N,/GPIOB/UART1_RX*
X140746000Y-69113400D02*
X140746000Y-75681900D01*
X140746000Y-75681900D02*
X150978500Y-85914400D01*
G04 #@! TO.N,/GPIOB/UART1_TX*
X153719700Y-85592700D02*
X143286000Y-75159000D01*
X143286000Y-75159000D02*
X143286000Y-69113400D01*
G04 #@! TO.N,+5V*
X173518000Y-104263300D02*
X173518000Y-126914700D01*
X173518000Y-126914700D02*
X176835000Y-130231700D01*
X176835000Y-131557000D02*
X176835000Y-130231700D01*
X173518000Y-103088000D02*
X173518000Y-104263300D01*
G04 #@! TO.N,Net-(J5-Pad4)*
X184120000Y-114693100D02*
X179255100Y-109828200D01*
X179255100Y-109828200D02*
X178189400Y-109828200D01*
G04 #@! TO.N,Net-(J5-Pad3)*
X182711300Y-114780000D02*
X182256900Y-114780000D01*
X182256900Y-114780000D02*
X174961500Y-107484600D01*
X174961500Y-107484600D02*
X174961500Y-107003600D01*
G04 #@! TO.N,+24V*
X168968900Y-130048700D02*
X170477200Y-131557000D01*
X158938000Y-130048700D02*
X168968900Y-130048700D01*
X168968900Y-130048700D02*
X168968900Y-105905100D01*
X168968900Y-105905100D02*
X173150700Y-101723300D01*
X173150700Y-101723300D02*
X173518000Y-101723300D01*
X173518000Y-100548000D02*
X173518000Y-101723300D01*
X171755000Y-131557000D02*
X170477200Y-131557000D01*
X158938000Y-130161300D02*
X158938000Y-130048700D01*
X158938000Y-131374000D02*
X158938000Y-130161300D01*
X147279000Y-118273000D02*
X147279000Y-119448300D01*
X147279000Y-119448300D02*
X157879400Y-130048700D01*
X157879400Y-130048700D02*
X158938000Y-130048700D01*
G04 #@! TO.N,Net-(CON1-Pad5)*
X140432000Y-130185100D02*
X140803600Y-130185100D01*
X140803600Y-130185100D02*
X141620900Y-129367800D01*
X141620900Y-129367800D02*
X141620900Y-121607300D01*
X141620900Y-121607300D02*
X163856500Y-99371700D01*
X163856500Y-99371700D02*
X163856500Y-91024300D01*
X140432000Y-131374000D02*
X140432000Y-130185100D01*
G04 #@! TO.N,Net-(CON1-Pad1)*
X136540900Y-131374000D02*
X136540900Y-131002400D01*
X136540900Y-131002400D02*
X137358200Y-130185100D01*
X137358200Y-130185100D02*
X138244200Y-130185100D01*
X138244200Y-130185100D02*
X139081000Y-129348300D01*
X139081000Y-129348300D02*
X139081000Y-123362700D01*
X139081000Y-123362700D02*
X161296700Y-101147000D01*
X161296700Y-101147000D02*
X161296700Y-87624300D01*
X135352000Y-131374000D02*
X136540900Y-131374000D01*
G04 #@! TD*
D18*
G04 #@! TO.N,GND*
G36*
X190069800Y-135238440D02*
X121539800Y-135238440D01*
X121539800Y-129605159D01*
X123015000Y-129605159D01*
X123015000Y-130394841D01*
X123317199Y-131124412D01*
X123875588Y-131682801D01*
X124605159Y-131985000D01*
X125394841Y-131985000D01*
X126124412Y-131682801D01*
X126682801Y-131124412D01*
X126985000Y-130394841D01*
X126985000Y-129605159D01*
X126682801Y-128875588D01*
X126282186Y-128474973D01*
X133897032Y-128474973D01*
X134017531Y-128707000D01*
X135225000Y-128707000D01*
X135225000Y-127500183D01*
X134992974Y-127379042D01*
X134577053Y-127551312D01*
X134145179Y-127945510D01*
X133897032Y-128474973D01*
X126282186Y-128474973D01*
X126124412Y-128317199D01*
X125394841Y-128015000D01*
X124605159Y-128015000D01*
X123875588Y-128317199D01*
X123317199Y-128875588D01*
X123015000Y-129605159D01*
X121539800Y-129605159D01*
X121539800Y-93995200D01*
X132084908Y-93995200D01*
X132200161Y-94574618D01*
X132528375Y-95065825D01*
X132826761Y-95265200D01*
X132528375Y-95464575D01*
X132200161Y-95955782D01*
X132084908Y-96535200D01*
X132200161Y-97114618D01*
X132528375Y-97605825D01*
X132826761Y-97805200D01*
X132528375Y-98004575D01*
X132200161Y-98495782D01*
X132084908Y-99075200D01*
X132200161Y-99654618D01*
X132528375Y-100145825D01*
X132847478Y-100359043D01*
X132717642Y-100420017D01*
X132327355Y-100848276D01*
X132157524Y-101258310D01*
X132278845Y-101488200D01*
X133472000Y-101488200D01*
X133472000Y-101468200D01*
X133726000Y-101468200D01*
X133726000Y-101488200D01*
X134919155Y-101488200D01*
X135040476Y-101258310D01*
X134870645Y-100848276D01*
X134480358Y-100420017D01*
X134350522Y-100359043D01*
X134669625Y-100145825D01*
X134709879Y-100085580D01*
X135733271Y-101108973D01*
X135775671Y-101172429D01*
X136027063Y-101340404D01*
X136248748Y-101384500D01*
X136248752Y-101384500D01*
X136323599Y-101399388D01*
X136398446Y-101384500D01*
X159613510Y-101384500D01*
X159646165Y-101417155D01*
X159862241Y-101506657D01*
X138652000Y-122716899D01*
X138652000Y-112586290D01*
X138684655Y-112553635D01*
X138827000Y-112209983D01*
X138827000Y-111838017D01*
X138684655Y-111494365D01*
X138421635Y-111231345D01*
X138077983Y-111089000D01*
X138031802Y-111089000D01*
X134685247Y-107742446D01*
X134997839Y-107274618D01*
X135113092Y-106695200D01*
X134997839Y-106115782D01*
X134669625Y-105624575D01*
X134371239Y-105425200D01*
X134669625Y-105225825D01*
X134997839Y-104734618D01*
X135113092Y-104155200D01*
X134997839Y-103575782D01*
X134669625Y-103084575D01*
X134350522Y-102871357D01*
X134480358Y-102810383D01*
X134870645Y-102382124D01*
X135040476Y-101972090D01*
X134919155Y-101742200D01*
X133726000Y-101742200D01*
X133726000Y-101762200D01*
X133472000Y-101762200D01*
X133472000Y-101742200D01*
X132278845Y-101742200D01*
X132157524Y-101972090D01*
X132327355Y-102382124D01*
X132717642Y-102810383D01*
X132847478Y-102871357D01*
X132528375Y-103084575D01*
X132200161Y-103575782D01*
X132084908Y-104155200D01*
X132200161Y-104734618D01*
X132528375Y-105225825D01*
X132826761Y-105425200D01*
X132528375Y-105624575D01*
X132200161Y-106115782D01*
X132084908Y-106695200D01*
X132200161Y-107274618D01*
X132528375Y-107765825D01*
X132845429Y-107977674D01*
X132883096Y-108167037D01*
X133051071Y-108418429D01*
X133302463Y-108586404D01*
X133398757Y-108605558D01*
X136957000Y-112163802D01*
X136957000Y-112209983D01*
X137099345Y-112553635D01*
X137132000Y-112586290D01*
X137132001Y-127539465D01*
X136811570Y-127753570D01*
X136610146Y-128055021D01*
X136558821Y-127945510D01*
X136126947Y-127551312D01*
X135711026Y-127379042D01*
X135479000Y-127500183D01*
X135479000Y-128707000D01*
X135499000Y-128707000D01*
X135499000Y-128961000D01*
X135479000Y-128961000D01*
X135479000Y-128981000D01*
X135225000Y-128981000D01*
X135225000Y-128961000D01*
X134017531Y-128961000D01*
X133897032Y-129193027D01*
X134145179Y-129722490D01*
X134332950Y-129893881D01*
X134240635Y-129912243D01*
X134030591Y-130052591D01*
X133890243Y-130262635D01*
X133840960Y-130510400D01*
X133840960Y-132237600D01*
X133890243Y-132485365D01*
X134030591Y-132695409D01*
X134240635Y-132835757D01*
X134488400Y-132885040D01*
X136215600Y-132885040D01*
X136463365Y-132835757D01*
X136673409Y-132695409D01*
X136813757Y-132485365D01*
X136818932Y-132459349D01*
X137307275Y-132785650D01*
X137744402Y-132872600D01*
X138039598Y-132872600D01*
X138476725Y-132785650D01*
X138972430Y-132454430D01*
X139162000Y-132170719D01*
X139351570Y-132454430D01*
X139847275Y-132785650D01*
X140284402Y-132872600D01*
X140579598Y-132872600D01*
X141016725Y-132785650D01*
X141512430Y-132454430D01*
X141702000Y-132170719D01*
X141891570Y-132454430D01*
X142387275Y-132785650D01*
X142824402Y-132872600D01*
X143119598Y-132872600D01*
X143556725Y-132785650D01*
X144052430Y-132454430D01*
X144242000Y-132170719D01*
X144431570Y-132454430D01*
X144927275Y-132785650D01*
X145364402Y-132872600D01*
X145659598Y-132872600D01*
X146096725Y-132785650D01*
X146592430Y-132454430D01*
X146923650Y-131958725D01*
X147039959Y-131374000D01*
X146923650Y-130789275D01*
X146592430Y-130293570D01*
X146308719Y-130104000D01*
X146592430Y-129914430D01*
X146923650Y-129418725D01*
X147039959Y-128834000D01*
X146923650Y-128249275D01*
X146592430Y-127753570D01*
X146096725Y-127422350D01*
X145659598Y-127335400D01*
X145364402Y-127335400D01*
X144927275Y-127422350D01*
X144431570Y-127753570D01*
X144242000Y-128037281D01*
X144052430Y-127753570D01*
X143556725Y-127422350D01*
X143119598Y-127335400D01*
X142824402Y-127335400D01*
X142387275Y-127422350D01*
X142380900Y-127426610D01*
X142380900Y-121922101D01*
X145781560Y-118521441D01*
X145781560Y-119123000D01*
X145830843Y-119370765D01*
X145971191Y-119580809D01*
X146181235Y-119721157D01*
X146429000Y-119770440D01*
X146580204Y-119770440D01*
X146731072Y-119996229D01*
X146794528Y-120038629D01*
X157289073Y-130533176D01*
X157331471Y-130596629D01*
X157338060Y-130601032D01*
X157338060Y-132374000D01*
X157387343Y-132621765D01*
X157527691Y-132831809D01*
X157737735Y-132972157D01*
X157985500Y-133021440D01*
X159890500Y-133021440D01*
X160138265Y-132972157D01*
X160348309Y-132831809D01*
X160485255Y-132626857D01*
X160611076Y-132749973D01*
X161105020Y-132964563D01*
X161351000Y-132844594D01*
X161351000Y-131501000D01*
X161331000Y-131501000D01*
X161331000Y-131247000D01*
X161351000Y-131247000D01*
X161351000Y-131227000D01*
X161605000Y-131227000D01*
X161605000Y-131247000D01*
X161625000Y-131247000D01*
X161625000Y-131501000D01*
X161605000Y-131501000D01*
X161605000Y-132844594D01*
X161850980Y-132964563D01*
X162344924Y-132749973D01*
X162738841Y-132364526D01*
X162873477Y-132566023D01*
X163398590Y-132916891D01*
X164018000Y-133040100D01*
X164637411Y-132916891D01*
X165162523Y-132566023D01*
X165513391Y-132040910D01*
X165605500Y-131577849D01*
X165605500Y-131170150D01*
X165533603Y-130808700D01*
X168654099Y-130808700D01*
X169886873Y-132041476D01*
X169929271Y-132104929D01*
X169992724Y-132147327D01*
X169992726Y-132147329D01*
X170107338Y-132223910D01*
X170155060Y-132255797D01*
X170155060Y-132557000D01*
X170204343Y-132804765D01*
X170344691Y-133014809D01*
X170554735Y-133155157D01*
X170802500Y-133204440D01*
X172707500Y-133204440D01*
X172955265Y-133155157D01*
X173165309Y-133014809D01*
X173302255Y-132809857D01*
X173428076Y-132932973D01*
X173922020Y-133147563D01*
X174168000Y-133027594D01*
X174168000Y-131684000D01*
X174148000Y-131684000D01*
X174148000Y-131430000D01*
X174168000Y-131430000D01*
X174168000Y-130086406D01*
X173922020Y-129966437D01*
X173428076Y-130181027D01*
X173302255Y-130304143D01*
X173165309Y-130099191D01*
X172955265Y-129958843D01*
X172707500Y-129909560D01*
X170802500Y-129909560D01*
X170554735Y-129958843D01*
X170344691Y-130099191D01*
X170244355Y-130249353D01*
X169728900Y-129733899D01*
X169728900Y-106219901D01*
X172184138Y-103764663D01*
X172447375Y-104158625D01*
X172758000Y-104366178D01*
X172758001Y-126839848D01*
X172743112Y-126914700D01*
X172758001Y-126989552D01*
X172802097Y-127211237D01*
X172970072Y-127462629D01*
X173033528Y-127505029D01*
X175812165Y-130283668D01*
X175690477Y-130364977D01*
X175555841Y-130566474D01*
X175161924Y-130181027D01*
X174667980Y-129966437D01*
X174422000Y-130086406D01*
X174422000Y-131430000D01*
X174442000Y-131430000D01*
X174442000Y-131684000D01*
X174422000Y-131684000D01*
X174422000Y-133027594D01*
X174667980Y-133147563D01*
X175161924Y-132932973D01*
X175555841Y-132547526D01*
X175690477Y-132749023D01*
X176215590Y-133099891D01*
X176835000Y-133223100D01*
X177454411Y-133099891D01*
X177979523Y-132749023D01*
X178330391Y-132223910D01*
X178422500Y-131760849D01*
X178422500Y-131353150D01*
X178330391Y-130890089D01*
X177979523Y-130364977D01*
X177583805Y-130100568D01*
X177550904Y-129935163D01*
X177428628Y-129752164D01*
X177425329Y-129747226D01*
X177425327Y-129747224D01*
X177382929Y-129683771D01*
X177319476Y-129641373D01*
X177283262Y-129605159D01*
X183765000Y-129605159D01*
X183765000Y-130394841D01*
X184067199Y-131124412D01*
X184625588Y-131682801D01*
X185355159Y-131985000D01*
X186144841Y-131985000D01*
X186874412Y-131682801D01*
X187432801Y-131124412D01*
X187735000Y-130394841D01*
X187735000Y-129605159D01*
X187432801Y-128875588D01*
X186874412Y-128317199D01*
X186144841Y-128015000D01*
X185355159Y-128015000D01*
X184625588Y-128317199D01*
X184067199Y-128875588D01*
X183765000Y-129605159D01*
X177283262Y-129605159D01*
X174278000Y-126599899D01*
X174278000Y-107829632D01*
X174413571Y-108032529D01*
X174477030Y-108074931D01*
X181666571Y-115264473D01*
X181708971Y-115327929D01*
X181960363Y-115495904D01*
X182140807Y-115531797D01*
X182181665Y-115572655D01*
X182525317Y-115715000D01*
X182897283Y-115715000D01*
X183240935Y-115572655D01*
X183459100Y-115354490D01*
X183590365Y-115485755D01*
X183934017Y-115628100D01*
X184305983Y-115628100D01*
X184649635Y-115485755D01*
X184912655Y-115222735D01*
X185055000Y-114879083D01*
X185055000Y-114507117D01*
X184912655Y-114163465D01*
X184649635Y-113900445D01*
X184305983Y-113758100D01*
X184259802Y-113758100D01*
X179845431Y-109343730D01*
X179803029Y-109280271D01*
X179551637Y-109112296D01*
X179329952Y-109068200D01*
X179329947Y-109068200D01*
X179255100Y-109053312D01*
X179180253Y-109068200D01*
X178751690Y-109068200D01*
X178719035Y-109035545D01*
X178375383Y-108893200D01*
X178003417Y-108893200D01*
X177659765Y-109035545D01*
X177623506Y-109071804D01*
X175851038Y-107299337D01*
X175896500Y-107189583D01*
X175896500Y-106817617D01*
X175754155Y-106473965D01*
X175491135Y-106210945D01*
X175147483Y-106068600D01*
X174775517Y-106068600D01*
X174431865Y-106210945D01*
X174278000Y-106364810D01*
X174278000Y-104366178D01*
X174588625Y-104158625D01*
X174916839Y-103667418D01*
X175032092Y-103088000D01*
X174916839Y-102508582D01*
X174588625Y-102017375D01*
X174570381Y-102005184D01*
X174615765Y-101996157D01*
X174825809Y-101855809D01*
X174966157Y-101645765D01*
X175015440Y-101398000D01*
X175015440Y-99698000D01*
X174966157Y-99450235D01*
X174825809Y-99240191D01*
X174615765Y-99099843D01*
X174368000Y-99050560D01*
X172668000Y-99050560D01*
X172420235Y-99099843D01*
X172210191Y-99240191D01*
X172069843Y-99450235D01*
X172020560Y-99698000D01*
X172020560Y-101398000D01*
X172069843Y-101645765D01*
X172103325Y-101695873D01*
X168484428Y-105314771D01*
X168420972Y-105357171D01*
X168378572Y-105420627D01*
X168378571Y-105420628D01*
X168252997Y-105608563D01*
X168194012Y-105905100D01*
X168208901Y-105979952D01*
X168208900Y-129288700D01*
X159012852Y-129288700D01*
X158938000Y-129273811D01*
X158863148Y-129288700D01*
X158194203Y-129288700D01*
X148526565Y-119621063D01*
X148586809Y-119580809D01*
X148727157Y-119370765D01*
X148736184Y-119325381D01*
X148748375Y-119343625D01*
X149239582Y-119671839D01*
X149672744Y-119758000D01*
X149965256Y-119758000D01*
X150398418Y-119671839D01*
X150889625Y-119343625D01*
X151089000Y-119045239D01*
X151288375Y-119343625D01*
X151779582Y-119671839D01*
X152212744Y-119758000D01*
X152505256Y-119758000D01*
X152938418Y-119671839D01*
X153429625Y-119343625D01*
X153642843Y-119024522D01*
X153703817Y-119154358D01*
X154132076Y-119544645D01*
X154542110Y-119714476D01*
X154772000Y-119593155D01*
X154772000Y-118400000D01*
X155026000Y-118400000D01*
X155026000Y-119593155D01*
X155255890Y-119714476D01*
X155665924Y-119544645D01*
X156094183Y-119154358D01*
X156340486Y-118629892D01*
X156219819Y-118400000D01*
X155026000Y-118400000D01*
X154772000Y-118400000D01*
X154752000Y-118400000D01*
X154752000Y-118146000D01*
X154772000Y-118146000D01*
X154772000Y-116952845D01*
X155026000Y-116952845D01*
X155026000Y-118146000D01*
X156219819Y-118146000D01*
X156340486Y-117916108D01*
X156094183Y-117391642D01*
X155665924Y-117001355D01*
X155255890Y-116831524D01*
X155026000Y-116952845D01*
X154772000Y-116952845D01*
X154542110Y-116831524D01*
X154132076Y-117001355D01*
X153703817Y-117391642D01*
X153642843Y-117521478D01*
X153429625Y-117202375D01*
X153369380Y-117162121D01*
X169513973Y-101017529D01*
X169577429Y-100975129D01*
X169745404Y-100723737D01*
X169789500Y-100502052D01*
X169789500Y-100502048D01*
X169804388Y-100427201D01*
X169789500Y-100352354D01*
X169789500Y-82660690D01*
X169822155Y-82628035D01*
X169964500Y-82284383D01*
X169964500Y-81912417D01*
X169822155Y-81568765D01*
X169559135Y-81305745D01*
X169215483Y-81163400D01*
X169125000Y-81163400D01*
X169125000Y-76951490D01*
X169157655Y-76918835D01*
X169300000Y-76575183D01*
X169300000Y-76203217D01*
X169157655Y-75859565D01*
X168894635Y-75596545D01*
X168550983Y-75454200D01*
X168179017Y-75454200D01*
X167835365Y-75596545D01*
X167572345Y-75859565D01*
X167430000Y-76203217D01*
X167430000Y-76575183D01*
X167572345Y-76918835D01*
X167605001Y-76951491D01*
X167605000Y-98735398D01*
X167329444Y-99010954D01*
X167145835Y-98827345D01*
X166802183Y-98685000D01*
X166430217Y-98685000D01*
X166086565Y-98827345D01*
X165823545Y-99090365D01*
X165681200Y-99434017D01*
X165681200Y-99770298D01*
X161621899Y-103829600D01*
X161575717Y-103829600D01*
X161232065Y-103971945D01*
X160969045Y-104234965D01*
X160826700Y-104578617D01*
X160826700Y-104950583D01*
X160969045Y-105294235D01*
X161007604Y-105332794D01*
X150002699Y-116337700D01*
X149893852Y-116337700D01*
X149819000Y-116322811D01*
X149744148Y-116337700D01*
X149522463Y-116381796D01*
X149271071Y-116549771D01*
X149103096Y-116801163D01*
X149065429Y-116990526D01*
X148748375Y-117202375D01*
X148736184Y-117220619D01*
X148727157Y-117175235D01*
X148586809Y-116965191D01*
X148376765Y-116824843D01*
X148129000Y-116775560D01*
X147527441Y-116775560D01*
X164340973Y-99962029D01*
X164404429Y-99919629D01*
X164572404Y-99668237D01*
X164616500Y-99446552D01*
X164616500Y-99446548D01*
X164631388Y-99371701D01*
X164616500Y-99296854D01*
X164616500Y-91586590D01*
X164649155Y-91553935D01*
X164791500Y-91210283D01*
X164791500Y-90838317D01*
X164649155Y-90494665D01*
X164386135Y-90231645D01*
X164042483Y-90089300D01*
X163670517Y-90089300D01*
X163326865Y-90231645D01*
X163063845Y-90494665D01*
X162921500Y-90838317D01*
X162921500Y-91210283D01*
X163063845Y-91553935D01*
X163096501Y-91586591D01*
X163096500Y-99056898D01*
X162056700Y-100096698D01*
X162056700Y-88186590D01*
X162089355Y-88153935D01*
X162231700Y-87810283D01*
X162231700Y-87438317D01*
X162089355Y-87094665D01*
X161826335Y-86831645D01*
X161482683Y-86689300D01*
X161110717Y-86689300D01*
X160767065Y-86831645D01*
X160504045Y-87094665D01*
X160361700Y-87438317D01*
X160361700Y-87810283D01*
X160504045Y-88153935D01*
X160536701Y-88186591D01*
X160536700Y-98170799D01*
X159783031Y-97417130D01*
X159740629Y-97353671D01*
X159489237Y-97185696D01*
X159267552Y-97141600D01*
X159267547Y-97141600D01*
X159192700Y-97126712D01*
X159117853Y-97141600D01*
X153036600Y-97141600D01*
X153036600Y-97090317D01*
X152894255Y-96746665D01*
X152631235Y-96483645D01*
X152287583Y-96341300D01*
X152241402Y-96341300D01*
X146870831Y-90970730D01*
X146828429Y-90907271D01*
X146577037Y-90739296D01*
X146355352Y-90695200D01*
X146355347Y-90695200D01*
X146280500Y-90680312D01*
X146205653Y-90695200D01*
X135096440Y-90695200D01*
X135096440Y-90605200D01*
X135047157Y-90357435D01*
X134906809Y-90147391D01*
X134696765Y-90007043D01*
X134449000Y-89957760D01*
X132749000Y-89957760D01*
X132501235Y-90007043D01*
X132291191Y-90147391D01*
X132150843Y-90357435D01*
X132101560Y-90605200D01*
X132101560Y-92305200D01*
X132150843Y-92552965D01*
X132291191Y-92763009D01*
X132501235Y-92903357D01*
X132546619Y-92912384D01*
X132528375Y-92924575D01*
X132200161Y-93415782D01*
X132084908Y-93995200D01*
X121539800Y-93995200D01*
X121539800Y-71605159D01*
X123015000Y-71605159D01*
X123015000Y-72394841D01*
X123317199Y-73124412D01*
X123875588Y-73682801D01*
X124605159Y-73985000D01*
X125394841Y-73985000D01*
X126124412Y-73682801D01*
X126682801Y-73124412D01*
X126985000Y-72394841D01*
X126985000Y-71605159D01*
X126682801Y-70875588D01*
X126124412Y-70317199D01*
X125394841Y-70015000D01*
X124605159Y-70015000D01*
X123875588Y-70317199D01*
X123317199Y-70875588D01*
X123015000Y-71605159D01*
X121539800Y-71605159D01*
X121539800Y-69399150D01*
X131641000Y-69399150D01*
X131641000Y-70089709D01*
X131737673Y-70323098D01*
X131916301Y-70501727D01*
X132149690Y-70598400D01*
X132840250Y-70598400D01*
X132999000Y-70439650D01*
X132999000Y-69240400D01*
X131799750Y-69240400D01*
X131641000Y-69399150D01*
X121539800Y-69399150D01*
X121539800Y-68137091D01*
X131641000Y-68137091D01*
X131641000Y-68827650D01*
X131799750Y-68986400D01*
X132999000Y-68986400D01*
X132999000Y-67787150D01*
X133253000Y-67787150D01*
X133253000Y-68986400D01*
X133273000Y-68986400D01*
X133273000Y-69240400D01*
X133253000Y-69240400D01*
X133253000Y-70439650D01*
X133411750Y-70598400D01*
X134102310Y-70598400D01*
X134335699Y-70501727D01*
X134514327Y-70323098D01*
X134580904Y-70162367D01*
X134595375Y-70184025D01*
X135086582Y-70512239D01*
X135519744Y-70598400D01*
X135812256Y-70598400D01*
X136245418Y-70512239D01*
X136736625Y-70184025D01*
X136936000Y-69885639D01*
X137135375Y-70184025D01*
X137626582Y-70512239D01*
X138059744Y-70598400D01*
X138352256Y-70598400D01*
X138785418Y-70512239D01*
X139276625Y-70184025D01*
X139476000Y-69885639D01*
X139675375Y-70184025D01*
X139986000Y-70391578D01*
X139986001Y-75607048D01*
X139971112Y-75681900D01*
X139986001Y-75756752D01*
X140030097Y-75978437D01*
X140198072Y-76229829D01*
X140261528Y-76272229D01*
X150043500Y-86054202D01*
X150043500Y-86100383D01*
X150185845Y-86444035D01*
X150448865Y-86707055D01*
X150792517Y-86849400D01*
X151164483Y-86849400D01*
X151508135Y-86707055D01*
X151771155Y-86444035D01*
X151913500Y-86100383D01*
X151913500Y-85728417D01*
X151771155Y-85384765D01*
X151508135Y-85121745D01*
X151164483Y-84979400D01*
X151118302Y-84979400D01*
X141506000Y-75367099D01*
X141506000Y-70391578D01*
X141816625Y-70184025D01*
X142016000Y-69885639D01*
X142215375Y-70184025D01*
X142526001Y-70391578D01*
X142526000Y-75084153D01*
X142511112Y-75159000D01*
X142526000Y-75233847D01*
X142526000Y-75233851D01*
X142570096Y-75455536D01*
X142738071Y-75706929D01*
X142801530Y-75749331D01*
X152784700Y-85732502D01*
X152784700Y-85778683D01*
X152927045Y-86122335D01*
X153190065Y-86385355D01*
X153533717Y-86527700D01*
X153905683Y-86527700D01*
X154249335Y-86385355D01*
X154512355Y-86122335D01*
X154654700Y-85778683D01*
X154654700Y-85406717D01*
X154512355Y-85063065D01*
X154249335Y-84800045D01*
X153905683Y-84657700D01*
X153859502Y-84657700D01*
X144046000Y-74844199D01*
X144046000Y-71605159D01*
X183765000Y-71605159D01*
X183765000Y-72394841D01*
X184067199Y-73124412D01*
X184625588Y-73682801D01*
X185355159Y-73985000D01*
X186144841Y-73985000D01*
X186874412Y-73682801D01*
X187432801Y-73124412D01*
X187735000Y-72394841D01*
X187735000Y-71605159D01*
X187432801Y-70875588D01*
X186874412Y-70317199D01*
X186144841Y-70015000D01*
X185355159Y-70015000D01*
X184625588Y-70317199D01*
X184067199Y-70875588D01*
X183765000Y-71605159D01*
X144046000Y-71605159D01*
X144046000Y-70391578D01*
X144356625Y-70184025D01*
X144556000Y-69885639D01*
X144755375Y-70184025D01*
X145246582Y-70512239D01*
X145679744Y-70598400D01*
X145972256Y-70598400D01*
X146405418Y-70512239D01*
X146896625Y-70184025D01*
X147224839Y-69692818D01*
X147340092Y-69113400D01*
X147224839Y-68533982D01*
X146896625Y-68042775D01*
X146405418Y-67714561D01*
X145972256Y-67628400D01*
X145679744Y-67628400D01*
X145246582Y-67714561D01*
X144755375Y-68042775D01*
X144556000Y-68341161D01*
X144356625Y-68042775D01*
X143865418Y-67714561D01*
X143432256Y-67628400D01*
X143139744Y-67628400D01*
X142706582Y-67714561D01*
X142215375Y-68042775D01*
X142016000Y-68341161D01*
X141816625Y-68042775D01*
X141325418Y-67714561D01*
X140892256Y-67628400D01*
X140599744Y-67628400D01*
X140166582Y-67714561D01*
X139675375Y-68042775D01*
X139476000Y-68341161D01*
X139276625Y-68042775D01*
X138785418Y-67714561D01*
X138352256Y-67628400D01*
X138059744Y-67628400D01*
X137626582Y-67714561D01*
X137135375Y-68042775D01*
X136936000Y-68341161D01*
X136736625Y-68042775D01*
X136245418Y-67714561D01*
X135812256Y-67628400D01*
X135519744Y-67628400D01*
X135086582Y-67714561D01*
X134595375Y-68042775D01*
X134580904Y-68064433D01*
X134514327Y-67903702D01*
X134335699Y-67725073D01*
X134102310Y-67628400D01*
X133411750Y-67628400D01*
X133253000Y-67787150D01*
X132999000Y-67787150D01*
X132840250Y-67628400D01*
X132149690Y-67628400D01*
X131916301Y-67725073D01*
X131737673Y-67903702D01*
X131641000Y-68137091D01*
X121539800Y-68137091D01*
X121539800Y-66708440D01*
X190069801Y-66708440D01*
X190069800Y-135238440D01*
X190069800Y-135238440D01*
G37*
X190069800Y-135238440D02*
X121539800Y-135238440D01*
X121539800Y-129605159D01*
X123015000Y-129605159D01*
X123015000Y-130394841D01*
X123317199Y-131124412D01*
X123875588Y-131682801D01*
X124605159Y-131985000D01*
X125394841Y-131985000D01*
X126124412Y-131682801D01*
X126682801Y-131124412D01*
X126985000Y-130394841D01*
X126985000Y-129605159D01*
X126682801Y-128875588D01*
X126282186Y-128474973D01*
X133897032Y-128474973D01*
X134017531Y-128707000D01*
X135225000Y-128707000D01*
X135225000Y-127500183D01*
X134992974Y-127379042D01*
X134577053Y-127551312D01*
X134145179Y-127945510D01*
X133897032Y-128474973D01*
X126282186Y-128474973D01*
X126124412Y-128317199D01*
X125394841Y-128015000D01*
X124605159Y-128015000D01*
X123875588Y-128317199D01*
X123317199Y-128875588D01*
X123015000Y-129605159D01*
X121539800Y-129605159D01*
X121539800Y-93995200D01*
X132084908Y-93995200D01*
X132200161Y-94574618D01*
X132528375Y-95065825D01*
X132826761Y-95265200D01*
X132528375Y-95464575D01*
X132200161Y-95955782D01*
X132084908Y-96535200D01*
X132200161Y-97114618D01*
X132528375Y-97605825D01*
X132826761Y-97805200D01*
X132528375Y-98004575D01*
X132200161Y-98495782D01*
X132084908Y-99075200D01*
X132200161Y-99654618D01*
X132528375Y-100145825D01*
X132847478Y-100359043D01*
X132717642Y-100420017D01*
X132327355Y-100848276D01*
X132157524Y-101258310D01*
X132278845Y-101488200D01*
X133472000Y-101488200D01*
X133472000Y-101468200D01*
X133726000Y-101468200D01*
X133726000Y-101488200D01*
X134919155Y-101488200D01*
X135040476Y-101258310D01*
X134870645Y-100848276D01*
X134480358Y-100420017D01*
X134350522Y-100359043D01*
X134669625Y-100145825D01*
X134709879Y-100085580D01*
X135733271Y-101108973D01*
X135775671Y-101172429D01*
X136027063Y-101340404D01*
X136248748Y-101384500D01*
X136248752Y-101384500D01*
X136323599Y-101399388D01*
X136398446Y-101384500D01*
X159613510Y-101384500D01*
X159646165Y-101417155D01*
X159862241Y-101506657D01*
X138652000Y-122716899D01*
X138652000Y-112586290D01*
X138684655Y-112553635D01*
X138827000Y-112209983D01*
X138827000Y-111838017D01*
X138684655Y-111494365D01*
X138421635Y-111231345D01*
X138077983Y-111089000D01*
X138031802Y-111089000D01*
X134685247Y-107742446D01*
X134997839Y-107274618D01*
X135113092Y-106695200D01*
X134997839Y-106115782D01*
X134669625Y-105624575D01*
X134371239Y-105425200D01*
X134669625Y-105225825D01*
X134997839Y-104734618D01*
X135113092Y-104155200D01*
X134997839Y-103575782D01*
X134669625Y-103084575D01*
X134350522Y-102871357D01*
X134480358Y-102810383D01*
X134870645Y-102382124D01*
X135040476Y-101972090D01*
X134919155Y-101742200D01*
X133726000Y-101742200D01*
X133726000Y-101762200D01*
X133472000Y-101762200D01*
X133472000Y-101742200D01*
X132278845Y-101742200D01*
X132157524Y-101972090D01*
X132327355Y-102382124D01*
X132717642Y-102810383D01*
X132847478Y-102871357D01*
X132528375Y-103084575D01*
X132200161Y-103575782D01*
X132084908Y-104155200D01*
X132200161Y-104734618D01*
X132528375Y-105225825D01*
X132826761Y-105425200D01*
X132528375Y-105624575D01*
X132200161Y-106115782D01*
X132084908Y-106695200D01*
X132200161Y-107274618D01*
X132528375Y-107765825D01*
X132845429Y-107977674D01*
X132883096Y-108167037D01*
X133051071Y-108418429D01*
X133302463Y-108586404D01*
X133398757Y-108605558D01*
X136957000Y-112163802D01*
X136957000Y-112209983D01*
X137099345Y-112553635D01*
X137132000Y-112586290D01*
X137132001Y-127539465D01*
X136811570Y-127753570D01*
X136610146Y-128055021D01*
X136558821Y-127945510D01*
X136126947Y-127551312D01*
X135711026Y-127379042D01*
X135479000Y-127500183D01*
X135479000Y-128707000D01*
X135499000Y-128707000D01*
X135499000Y-128961000D01*
X135479000Y-128961000D01*
X135479000Y-128981000D01*
X135225000Y-128981000D01*
X135225000Y-128961000D01*
X134017531Y-128961000D01*
X133897032Y-129193027D01*
X134145179Y-129722490D01*
X134332950Y-129893881D01*
X134240635Y-129912243D01*
X134030591Y-130052591D01*
X133890243Y-130262635D01*
X133840960Y-130510400D01*
X133840960Y-132237600D01*
X133890243Y-132485365D01*
X134030591Y-132695409D01*
X134240635Y-132835757D01*
X134488400Y-132885040D01*
X136215600Y-132885040D01*
X136463365Y-132835757D01*
X136673409Y-132695409D01*
X136813757Y-132485365D01*
X136818932Y-132459349D01*
X137307275Y-132785650D01*
X137744402Y-132872600D01*
X138039598Y-132872600D01*
X138476725Y-132785650D01*
X138972430Y-132454430D01*
X139162000Y-132170719D01*
X139351570Y-132454430D01*
X139847275Y-132785650D01*
X140284402Y-132872600D01*
X140579598Y-132872600D01*
X141016725Y-132785650D01*
X141512430Y-132454430D01*
X141702000Y-132170719D01*
X141891570Y-132454430D01*
X142387275Y-132785650D01*
X142824402Y-132872600D01*
X143119598Y-132872600D01*
X143556725Y-132785650D01*
X144052430Y-132454430D01*
X144242000Y-132170719D01*
X144431570Y-132454430D01*
X144927275Y-132785650D01*
X145364402Y-132872600D01*
X145659598Y-132872600D01*
X146096725Y-132785650D01*
X146592430Y-132454430D01*
X146923650Y-131958725D01*
X147039959Y-131374000D01*
X146923650Y-130789275D01*
X146592430Y-130293570D01*
X146308719Y-130104000D01*
X146592430Y-129914430D01*
X146923650Y-129418725D01*
X147039959Y-128834000D01*
X146923650Y-128249275D01*
X146592430Y-127753570D01*
X146096725Y-127422350D01*
X145659598Y-127335400D01*
X145364402Y-127335400D01*
X144927275Y-127422350D01*
X144431570Y-127753570D01*
X144242000Y-128037281D01*
X144052430Y-127753570D01*
X143556725Y-127422350D01*
X143119598Y-127335400D01*
X142824402Y-127335400D01*
X142387275Y-127422350D01*
X142380900Y-127426610D01*
X142380900Y-121922101D01*
X145781560Y-118521441D01*
X145781560Y-119123000D01*
X145830843Y-119370765D01*
X145971191Y-119580809D01*
X146181235Y-119721157D01*
X146429000Y-119770440D01*
X146580204Y-119770440D01*
X146731072Y-119996229D01*
X146794528Y-120038629D01*
X157289073Y-130533176D01*
X157331471Y-130596629D01*
X157338060Y-130601032D01*
X157338060Y-132374000D01*
X157387343Y-132621765D01*
X157527691Y-132831809D01*
X157737735Y-132972157D01*
X157985500Y-133021440D01*
X159890500Y-133021440D01*
X160138265Y-132972157D01*
X160348309Y-132831809D01*
X160485255Y-132626857D01*
X160611076Y-132749973D01*
X161105020Y-132964563D01*
X161351000Y-132844594D01*
X161351000Y-131501000D01*
X161331000Y-131501000D01*
X161331000Y-131247000D01*
X161351000Y-131247000D01*
X161351000Y-131227000D01*
X161605000Y-131227000D01*
X161605000Y-131247000D01*
X161625000Y-131247000D01*
X161625000Y-131501000D01*
X161605000Y-131501000D01*
X161605000Y-132844594D01*
X161850980Y-132964563D01*
X162344924Y-132749973D01*
X162738841Y-132364526D01*
X162873477Y-132566023D01*
X163398590Y-132916891D01*
X164018000Y-133040100D01*
X164637411Y-132916891D01*
X165162523Y-132566023D01*
X165513391Y-132040910D01*
X165605500Y-131577849D01*
X165605500Y-131170150D01*
X165533603Y-130808700D01*
X168654099Y-130808700D01*
X169886873Y-132041476D01*
X169929271Y-132104929D01*
X169992724Y-132147327D01*
X169992726Y-132147329D01*
X170107338Y-132223910D01*
X170155060Y-132255797D01*
X170155060Y-132557000D01*
X170204343Y-132804765D01*
X170344691Y-133014809D01*
X170554735Y-133155157D01*
X170802500Y-133204440D01*
X172707500Y-133204440D01*
X172955265Y-133155157D01*
X173165309Y-133014809D01*
X173302255Y-132809857D01*
X173428076Y-132932973D01*
X173922020Y-133147563D01*
X174168000Y-133027594D01*
X174168000Y-131684000D01*
X174148000Y-131684000D01*
X174148000Y-131430000D01*
X174168000Y-131430000D01*
X174168000Y-130086406D01*
X173922020Y-129966437D01*
X173428076Y-130181027D01*
X173302255Y-130304143D01*
X173165309Y-130099191D01*
X172955265Y-129958843D01*
X172707500Y-129909560D01*
X170802500Y-129909560D01*
X170554735Y-129958843D01*
X170344691Y-130099191D01*
X170244355Y-130249353D01*
X169728900Y-129733899D01*
X169728900Y-106219901D01*
X172184138Y-103764663D01*
X172447375Y-104158625D01*
X172758000Y-104366178D01*
X172758001Y-126839848D01*
X172743112Y-126914700D01*
X172758001Y-126989552D01*
X172802097Y-127211237D01*
X172970072Y-127462629D01*
X173033528Y-127505029D01*
X175812165Y-130283668D01*
X175690477Y-130364977D01*
X175555841Y-130566474D01*
X175161924Y-130181027D01*
X174667980Y-129966437D01*
X174422000Y-130086406D01*
X174422000Y-131430000D01*
X174442000Y-131430000D01*
X174442000Y-131684000D01*
X174422000Y-131684000D01*
X174422000Y-133027594D01*
X174667980Y-133147563D01*
X175161924Y-132932973D01*
X175555841Y-132547526D01*
X175690477Y-132749023D01*
X176215590Y-133099891D01*
X176835000Y-133223100D01*
X177454411Y-133099891D01*
X177979523Y-132749023D01*
X178330391Y-132223910D01*
X178422500Y-131760849D01*
X178422500Y-131353150D01*
X178330391Y-130890089D01*
X177979523Y-130364977D01*
X177583805Y-130100568D01*
X177550904Y-129935163D01*
X177428628Y-129752164D01*
X177425329Y-129747226D01*
X177425327Y-129747224D01*
X177382929Y-129683771D01*
X177319476Y-129641373D01*
X177283262Y-129605159D01*
X183765000Y-129605159D01*
X183765000Y-130394841D01*
X184067199Y-131124412D01*
X184625588Y-131682801D01*
X185355159Y-131985000D01*
X186144841Y-131985000D01*
X186874412Y-131682801D01*
X187432801Y-131124412D01*
X187735000Y-130394841D01*
X187735000Y-129605159D01*
X187432801Y-128875588D01*
X186874412Y-128317199D01*
X186144841Y-128015000D01*
X185355159Y-128015000D01*
X184625588Y-128317199D01*
X184067199Y-128875588D01*
X183765000Y-129605159D01*
X177283262Y-129605159D01*
X174278000Y-126599899D01*
X174278000Y-107829632D01*
X174413571Y-108032529D01*
X174477030Y-108074931D01*
X181666571Y-115264473D01*
X181708971Y-115327929D01*
X181960363Y-115495904D01*
X182140807Y-115531797D01*
X182181665Y-115572655D01*
X182525317Y-115715000D01*
X182897283Y-115715000D01*
X183240935Y-115572655D01*
X183459100Y-115354490D01*
X183590365Y-115485755D01*
X183934017Y-115628100D01*
X184305983Y-115628100D01*
X184649635Y-115485755D01*
X184912655Y-115222735D01*
X185055000Y-114879083D01*
X185055000Y-114507117D01*
X184912655Y-114163465D01*
X184649635Y-113900445D01*
X184305983Y-113758100D01*
X184259802Y-113758100D01*
X179845431Y-109343730D01*
X179803029Y-109280271D01*
X179551637Y-109112296D01*
X179329952Y-109068200D01*
X179329947Y-109068200D01*
X179255100Y-109053312D01*
X179180253Y-109068200D01*
X178751690Y-109068200D01*
X178719035Y-109035545D01*
X178375383Y-108893200D01*
X178003417Y-108893200D01*
X177659765Y-109035545D01*
X177623506Y-109071804D01*
X175851038Y-107299337D01*
X175896500Y-107189583D01*
X175896500Y-106817617D01*
X175754155Y-106473965D01*
X175491135Y-106210945D01*
X175147483Y-106068600D01*
X174775517Y-106068600D01*
X174431865Y-106210945D01*
X174278000Y-106364810D01*
X174278000Y-104366178D01*
X174588625Y-104158625D01*
X174916839Y-103667418D01*
X175032092Y-103088000D01*
X174916839Y-102508582D01*
X174588625Y-102017375D01*
X174570381Y-102005184D01*
X174615765Y-101996157D01*
X174825809Y-101855809D01*
X174966157Y-101645765D01*
X175015440Y-101398000D01*
X175015440Y-99698000D01*
X174966157Y-99450235D01*
X174825809Y-99240191D01*
X174615765Y-99099843D01*
X174368000Y-99050560D01*
X172668000Y-99050560D01*
X172420235Y-99099843D01*
X172210191Y-99240191D01*
X172069843Y-99450235D01*
X172020560Y-99698000D01*
X172020560Y-101398000D01*
X172069843Y-101645765D01*
X172103325Y-101695873D01*
X168484428Y-105314771D01*
X168420972Y-105357171D01*
X168378572Y-105420627D01*
X168378571Y-105420628D01*
X168252997Y-105608563D01*
X168194012Y-105905100D01*
X168208901Y-105979952D01*
X168208900Y-129288700D01*
X159012852Y-129288700D01*
X158938000Y-129273811D01*
X158863148Y-129288700D01*
X158194203Y-129288700D01*
X148526565Y-119621063D01*
X148586809Y-119580809D01*
X148727157Y-119370765D01*
X148736184Y-119325381D01*
X148748375Y-119343625D01*
X149239582Y-119671839D01*
X149672744Y-119758000D01*
X149965256Y-119758000D01*
X150398418Y-119671839D01*
X150889625Y-119343625D01*
X151089000Y-119045239D01*
X151288375Y-119343625D01*
X151779582Y-119671839D01*
X152212744Y-119758000D01*
X152505256Y-119758000D01*
X152938418Y-119671839D01*
X153429625Y-119343625D01*
X153642843Y-119024522D01*
X153703817Y-119154358D01*
X154132076Y-119544645D01*
X154542110Y-119714476D01*
X154772000Y-119593155D01*
X154772000Y-118400000D01*
X155026000Y-118400000D01*
X155026000Y-119593155D01*
X155255890Y-119714476D01*
X155665924Y-119544645D01*
X156094183Y-119154358D01*
X156340486Y-118629892D01*
X156219819Y-118400000D01*
X155026000Y-118400000D01*
X154772000Y-118400000D01*
X154752000Y-118400000D01*
X154752000Y-118146000D01*
X154772000Y-118146000D01*
X154772000Y-116952845D01*
X155026000Y-116952845D01*
X155026000Y-118146000D01*
X156219819Y-118146000D01*
X156340486Y-117916108D01*
X156094183Y-117391642D01*
X155665924Y-117001355D01*
X155255890Y-116831524D01*
X155026000Y-116952845D01*
X154772000Y-116952845D01*
X154542110Y-116831524D01*
X154132076Y-117001355D01*
X153703817Y-117391642D01*
X153642843Y-117521478D01*
X153429625Y-117202375D01*
X153369380Y-117162121D01*
X169513973Y-101017529D01*
X169577429Y-100975129D01*
X169745404Y-100723737D01*
X169789500Y-100502052D01*
X169789500Y-100502048D01*
X169804388Y-100427201D01*
X169789500Y-100352354D01*
X169789500Y-82660690D01*
X169822155Y-82628035D01*
X169964500Y-82284383D01*
X169964500Y-81912417D01*
X169822155Y-81568765D01*
X169559135Y-81305745D01*
X169215483Y-81163400D01*
X169125000Y-81163400D01*
X169125000Y-76951490D01*
X169157655Y-76918835D01*
X169300000Y-76575183D01*
X169300000Y-76203217D01*
X169157655Y-75859565D01*
X168894635Y-75596545D01*
X168550983Y-75454200D01*
X168179017Y-75454200D01*
X167835365Y-75596545D01*
X167572345Y-75859565D01*
X167430000Y-76203217D01*
X167430000Y-76575183D01*
X167572345Y-76918835D01*
X167605001Y-76951491D01*
X167605000Y-98735398D01*
X167329444Y-99010954D01*
X167145835Y-98827345D01*
X166802183Y-98685000D01*
X166430217Y-98685000D01*
X166086565Y-98827345D01*
X165823545Y-99090365D01*
X165681200Y-99434017D01*
X165681200Y-99770298D01*
X161621899Y-103829600D01*
X161575717Y-103829600D01*
X161232065Y-103971945D01*
X160969045Y-104234965D01*
X160826700Y-104578617D01*
X160826700Y-104950583D01*
X160969045Y-105294235D01*
X161007604Y-105332794D01*
X150002699Y-116337700D01*
X149893852Y-116337700D01*
X149819000Y-116322811D01*
X149744148Y-116337700D01*
X149522463Y-116381796D01*
X149271071Y-116549771D01*
X149103096Y-116801163D01*
X149065429Y-116990526D01*
X148748375Y-117202375D01*
X148736184Y-117220619D01*
X148727157Y-117175235D01*
X148586809Y-116965191D01*
X148376765Y-116824843D01*
X148129000Y-116775560D01*
X147527441Y-116775560D01*
X164340973Y-99962029D01*
X164404429Y-99919629D01*
X164572404Y-99668237D01*
X164616500Y-99446552D01*
X164616500Y-99446548D01*
X164631388Y-99371701D01*
X164616500Y-99296854D01*
X164616500Y-91586590D01*
X164649155Y-91553935D01*
X164791500Y-91210283D01*
X164791500Y-90838317D01*
X164649155Y-90494665D01*
X164386135Y-90231645D01*
X164042483Y-90089300D01*
X163670517Y-90089300D01*
X163326865Y-90231645D01*
X163063845Y-90494665D01*
X162921500Y-90838317D01*
X162921500Y-91210283D01*
X163063845Y-91553935D01*
X163096501Y-91586591D01*
X163096500Y-99056898D01*
X162056700Y-100096698D01*
X162056700Y-88186590D01*
X162089355Y-88153935D01*
X162231700Y-87810283D01*
X162231700Y-87438317D01*
X162089355Y-87094665D01*
X161826335Y-86831645D01*
X161482683Y-86689300D01*
X161110717Y-86689300D01*
X160767065Y-86831645D01*
X160504045Y-87094665D01*
X160361700Y-87438317D01*
X160361700Y-87810283D01*
X160504045Y-88153935D01*
X160536701Y-88186591D01*
X160536700Y-98170799D01*
X159783031Y-97417130D01*
X159740629Y-97353671D01*
X159489237Y-97185696D01*
X159267552Y-97141600D01*
X159267547Y-97141600D01*
X159192700Y-97126712D01*
X159117853Y-97141600D01*
X153036600Y-97141600D01*
X153036600Y-97090317D01*
X152894255Y-96746665D01*
X152631235Y-96483645D01*
X152287583Y-96341300D01*
X152241402Y-96341300D01*
X146870831Y-90970730D01*
X146828429Y-90907271D01*
X146577037Y-90739296D01*
X146355352Y-90695200D01*
X146355347Y-90695200D01*
X146280500Y-90680312D01*
X146205653Y-90695200D01*
X135096440Y-90695200D01*
X135096440Y-90605200D01*
X135047157Y-90357435D01*
X134906809Y-90147391D01*
X134696765Y-90007043D01*
X134449000Y-89957760D01*
X132749000Y-89957760D01*
X132501235Y-90007043D01*
X132291191Y-90147391D01*
X132150843Y-90357435D01*
X132101560Y-90605200D01*
X132101560Y-92305200D01*
X132150843Y-92552965D01*
X132291191Y-92763009D01*
X132501235Y-92903357D01*
X132546619Y-92912384D01*
X132528375Y-92924575D01*
X132200161Y-93415782D01*
X132084908Y-93995200D01*
X121539800Y-93995200D01*
X121539800Y-71605159D01*
X123015000Y-71605159D01*
X123015000Y-72394841D01*
X123317199Y-73124412D01*
X123875588Y-73682801D01*
X124605159Y-73985000D01*
X125394841Y-73985000D01*
X126124412Y-73682801D01*
X126682801Y-73124412D01*
X126985000Y-72394841D01*
X126985000Y-71605159D01*
X126682801Y-70875588D01*
X126124412Y-70317199D01*
X125394841Y-70015000D01*
X124605159Y-70015000D01*
X123875588Y-70317199D01*
X123317199Y-70875588D01*
X123015000Y-71605159D01*
X121539800Y-71605159D01*
X121539800Y-69399150D01*
X131641000Y-69399150D01*
X131641000Y-70089709D01*
X131737673Y-70323098D01*
X131916301Y-70501727D01*
X132149690Y-70598400D01*
X132840250Y-70598400D01*
X132999000Y-70439650D01*
X132999000Y-69240400D01*
X131799750Y-69240400D01*
X131641000Y-69399150D01*
X121539800Y-69399150D01*
X121539800Y-68137091D01*
X131641000Y-68137091D01*
X131641000Y-68827650D01*
X131799750Y-68986400D01*
X132999000Y-68986400D01*
X132999000Y-67787150D01*
X133253000Y-67787150D01*
X133253000Y-68986400D01*
X133273000Y-68986400D01*
X133273000Y-69240400D01*
X133253000Y-69240400D01*
X133253000Y-70439650D01*
X133411750Y-70598400D01*
X134102310Y-70598400D01*
X134335699Y-70501727D01*
X134514327Y-70323098D01*
X134580904Y-70162367D01*
X134595375Y-70184025D01*
X135086582Y-70512239D01*
X135519744Y-70598400D01*
X135812256Y-70598400D01*
X136245418Y-70512239D01*
X136736625Y-70184025D01*
X136936000Y-69885639D01*
X137135375Y-70184025D01*
X137626582Y-70512239D01*
X138059744Y-70598400D01*
X138352256Y-70598400D01*
X138785418Y-70512239D01*
X139276625Y-70184025D01*
X139476000Y-69885639D01*
X139675375Y-70184025D01*
X139986000Y-70391578D01*
X139986001Y-75607048D01*
X139971112Y-75681900D01*
X139986001Y-75756752D01*
X140030097Y-75978437D01*
X140198072Y-76229829D01*
X140261528Y-76272229D01*
X150043500Y-86054202D01*
X150043500Y-86100383D01*
X150185845Y-86444035D01*
X150448865Y-86707055D01*
X150792517Y-86849400D01*
X151164483Y-86849400D01*
X151508135Y-86707055D01*
X151771155Y-86444035D01*
X151913500Y-86100383D01*
X151913500Y-85728417D01*
X151771155Y-85384765D01*
X151508135Y-85121745D01*
X151164483Y-84979400D01*
X151118302Y-84979400D01*
X141506000Y-75367099D01*
X141506000Y-70391578D01*
X141816625Y-70184025D01*
X142016000Y-69885639D01*
X142215375Y-70184025D01*
X142526001Y-70391578D01*
X142526000Y-75084153D01*
X142511112Y-75159000D01*
X142526000Y-75233847D01*
X142526000Y-75233851D01*
X142570096Y-75455536D01*
X142738071Y-75706929D01*
X142801530Y-75749331D01*
X152784700Y-85732502D01*
X152784700Y-85778683D01*
X152927045Y-86122335D01*
X153190065Y-86385355D01*
X153533717Y-86527700D01*
X153905683Y-86527700D01*
X154249335Y-86385355D01*
X154512355Y-86122335D01*
X154654700Y-85778683D01*
X154654700Y-85406717D01*
X154512355Y-85063065D01*
X154249335Y-84800045D01*
X153905683Y-84657700D01*
X153859502Y-84657700D01*
X144046000Y-74844199D01*
X144046000Y-71605159D01*
X183765000Y-71605159D01*
X183765000Y-72394841D01*
X184067199Y-73124412D01*
X184625588Y-73682801D01*
X185355159Y-73985000D01*
X186144841Y-73985000D01*
X186874412Y-73682801D01*
X187432801Y-73124412D01*
X187735000Y-72394841D01*
X187735000Y-71605159D01*
X187432801Y-70875588D01*
X186874412Y-70317199D01*
X186144841Y-70015000D01*
X185355159Y-70015000D01*
X184625588Y-70317199D01*
X184067199Y-70875588D01*
X183765000Y-71605159D01*
X144046000Y-71605159D01*
X144046000Y-70391578D01*
X144356625Y-70184025D01*
X144556000Y-69885639D01*
X144755375Y-70184025D01*
X145246582Y-70512239D01*
X145679744Y-70598400D01*
X145972256Y-70598400D01*
X146405418Y-70512239D01*
X146896625Y-70184025D01*
X147224839Y-69692818D01*
X147340092Y-69113400D01*
X147224839Y-68533982D01*
X146896625Y-68042775D01*
X146405418Y-67714561D01*
X145972256Y-67628400D01*
X145679744Y-67628400D01*
X145246582Y-67714561D01*
X144755375Y-68042775D01*
X144556000Y-68341161D01*
X144356625Y-68042775D01*
X143865418Y-67714561D01*
X143432256Y-67628400D01*
X143139744Y-67628400D01*
X142706582Y-67714561D01*
X142215375Y-68042775D01*
X142016000Y-68341161D01*
X141816625Y-68042775D01*
X141325418Y-67714561D01*
X140892256Y-67628400D01*
X140599744Y-67628400D01*
X140166582Y-67714561D01*
X139675375Y-68042775D01*
X139476000Y-68341161D01*
X139276625Y-68042775D01*
X138785418Y-67714561D01*
X138352256Y-67628400D01*
X138059744Y-67628400D01*
X137626582Y-67714561D01*
X137135375Y-68042775D01*
X136936000Y-68341161D01*
X136736625Y-68042775D01*
X136245418Y-67714561D01*
X135812256Y-67628400D01*
X135519744Y-67628400D01*
X135086582Y-67714561D01*
X134595375Y-68042775D01*
X134580904Y-68064433D01*
X134514327Y-67903702D01*
X134335699Y-67725073D01*
X134102310Y-67628400D01*
X133411750Y-67628400D01*
X133253000Y-67787150D01*
X132999000Y-67787150D01*
X132840250Y-67628400D01*
X132149690Y-67628400D01*
X131916301Y-67725073D01*
X131737673Y-67903702D01*
X131641000Y-68137091D01*
X121539800Y-68137091D01*
X121539800Y-66708440D01*
X190069801Y-66708440D01*
X190069800Y-135238440D01*
G04 #@! TD*
M02*
