G04 #@! TF.GenerationSoftware,KiCad,Pcbnew,5.0.2-bee76a0~70~ubuntu18.10.1*
G04 #@! TF.CreationDate,2019-07-02T09:20:29-04:00*
G04 #@! TF.ProjectId,Bonaire,426f6e61-6972-4652-9e6b-696361645f70,rev?*
G04 #@! TF.SameCoordinates,Original*
G04 #@! TF.FileFunction,Soldermask,Bot*
G04 #@! TF.FilePolarity,Negative*
%FSLAX46Y46*%
G04 Gerber Fmt 4.6, Leading zero omitted, Abs format (unit mm)*
G04 Created by KiCad (PCBNEW 5.0.2-bee76a0~70~ubuntu18.10.1) date Tue 02 Jul 2019 09:20:29 AM EDT*
%MOMM*%
%LPD*%
G01*
G04 APERTURE LIST*
%ADD10C,0.100000*%
G04 APERTURE END LIST*
D10*
G36*
X177060928Y-130373676D02*
X177169552Y-130406627D01*
X177278176Y-130439577D01*
X177363846Y-130485369D01*
X177478392Y-130546595D01*
X177536889Y-130594602D01*
X177653887Y-130690619D01*
X177797904Y-130866105D01*
X177904923Y-131066323D01*
X177926009Y-131135836D01*
X177970824Y-131283571D01*
X177973879Y-131314592D01*
X177987500Y-131452884D01*
X177987500Y-131661115D01*
X177982969Y-131707117D01*
X177970824Y-131830428D01*
X177937873Y-131939052D01*
X177904923Y-132047676D01*
X177861070Y-132129718D01*
X177797905Y-132247892D01*
X177785809Y-132262631D01*
X177653881Y-132423387D01*
X177478395Y-132567404D01*
X177278177Y-132674423D01*
X177169552Y-132707374D01*
X177060929Y-132740324D01*
X176835000Y-132762576D01*
X176609072Y-132740324D01*
X176500448Y-132707373D01*
X176391824Y-132674423D01*
X176191606Y-132567404D01*
X176016117Y-132423384D01*
X175884190Y-132262631D01*
X175872095Y-132247893D01*
X175774280Y-132064894D01*
X175765077Y-132047677D01*
X175709565Y-131864676D01*
X175699176Y-131830429D01*
X175689398Y-131731151D01*
X175684617Y-131707117D01*
X175675240Y-131684478D01*
X175661626Y-131664104D01*
X175644299Y-131646777D01*
X175623924Y-131633163D01*
X175601285Y-131623785D01*
X175577252Y-131619005D01*
X175552748Y-131619005D01*
X175528714Y-131623786D01*
X175506075Y-131633163D01*
X175485701Y-131646777D01*
X175468374Y-131664104D01*
X175454760Y-131684479D01*
X175445382Y-131707118D01*
X175440602Y-131731151D01*
X175430824Y-131830428D01*
X175397873Y-131939052D01*
X175364923Y-132047676D01*
X175321070Y-132129718D01*
X175257905Y-132247892D01*
X175245809Y-132262631D01*
X175113881Y-132423387D01*
X174938395Y-132567404D01*
X174738177Y-132674423D01*
X174629552Y-132707374D01*
X174520929Y-132740324D01*
X174295000Y-132762576D01*
X174069072Y-132740324D01*
X173960448Y-132707373D01*
X173851824Y-132674423D01*
X173651606Y-132567404D01*
X173476117Y-132423384D01*
X173344190Y-132262631D01*
X173332095Y-132247893D01*
X173234280Y-132064894D01*
X173225077Y-132047677D01*
X173169565Y-131864676D01*
X173159176Y-131830429D01*
X173156898Y-131807298D01*
X173152117Y-131783265D01*
X173142740Y-131760626D01*
X173129126Y-131740252D01*
X173111799Y-131722925D01*
X173091424Y-131709311D01*
X173068785Y-131699933D01*
X173044752Y-131695153D01*
X173020248Y-131695153D01*
X172996214Y-131699934D01*
X172973575Y-131709311D01*
X172953201Y-131722925D01*
X172935874Y-131740252D01*
X172922260Y-131760627D01*
X172912882Y-131783266D01*
X172907500Y-131819551D01*
X172907500Y-132757000D01*
X170602500Y-132757000D01*
X170602500Y-130357000D01*
X172907500Y-130357000D01*
X172907500Y-131294450D01*
X172909902Y-131318836D01*
X172917015Y-131342285D01*
X172928566Y-131363896D01*
X172944112Y-131382838D01*
X172963054Y-131398384D01*
X172984665Y-131409935D01*
X173008114Y-131417048D01*
X173032500Y-131419450D01*
X173056886Y-131417048D01*
X173080335Y-131409935D01*
X173101946Y-131398384D01*
X173120888Y-131382838D01*
X173136434Y-131363896D01*
X173147985Y-131342285D01*
X173156898Y-131306702D01*
X173159176Y-131283573D01*
X173159177Y-131283571D01*
X173207672Y-131123702D01*
X173225077Y-131066324D01*
X173332094Y-130866110D01*
X173332095Y-130866108D01*
X173380102Y-130807611D01*
X173476119Y-130690613D01*
X173651605Y-130546596D01*
X173851823Y-130439577D01*
X173960447Y-130406627D01*
X174069071Y-130373676D01*
X174295000Y-130351424D01*
X174520928Y-130373676D01*
X174629552Y-130406627D01*
X174738176Y-130439577D01*
X174823846Y-130485369D01*
X174938392Y-130546595D01*
X174996889Y-130594602D01*
X175113887Y-130690619D01*
X175257904Y-130866105D01*
X175364923Y-131066323D01*
X175386009Y-131135836D01*
X175430824Y-131283571D01*
X175433879Y-131314592D01*
X175440602Y-131382849D01*
X175445383Y-131406883D01*
X175454760Y-131429522D01*
X175468374Y-131449896D01*
X175485701Y-131467223D01*
X175506076Y-131480837D01*
X175528715Y-131490215D01*
X175552748Y-131494995D01*
X175577252Y-131494995D01*
X175601286Y-131490214D01*
X175623925Y-131480837D01*
X175644299Y-131467223D01*
X175661626Y-131449896D01*
X175675240Y-131429521D01*
X175684618Y-131406882D01*
X175689398Y-131382849D01*
X175696847Y-131307215D01*
X175699176Y-131283572D01*
X175747672Y-131123702D01*
X175765077Y-131066324D01*
X175872094Y-130866110D01*
X175872095Y-130866108D01*
X175920102Y-130807611D01*
X176016119Y-130690613D01*
X176191605Y-130546596D01*
X176391823Y-130439577D01*
X176500447Y-130406627D01*
X176609071Y-130373676D01*
X176835000Y-130351424D01*
X177060928Y-130373676D01*
X177060928Y-130373676D01*
G37*
G36*
X164243928Y-130190676D02*
X164352552Y-130223627D01*
X164461176Y-130256577D01*
X164561871Y-130310400D01*
X164661392Y-130363595D01*
X164689432Y-130386607D01*
X164836887Y-130507619D01*
X164980904Y-130683105D01*
X165087923Y-130883323D01*
X165114237Y-130970071D01*
X165143436Y-131066325D01*
X165153824Y-131100572D01*
X165170500Y-131269884D01*
X165170500Y-131478115D01*
X165165969Y-131524117D01*
X165153824Y-131647428D01*
X165135717Y-131707118D01*
X165087923Y-131864676D01*
X165032821Y-131967764D01*
X164980905Y-132064892D01*
X164980904Y-132064893D01*
X164836881Y-132240387D01*
X164661395Y-132384404D01*
X164461177Y-132491423D01*
X164352552Y-132524374D01*
X164243929Y-132557324D01*
X164018000Y-132579576D01*
X163792072Y-132557324D01*
X163683449Y-132524374D01*
X163574824Y-132491423D01*
X163374606Y-132384404D01*
X163199117Y-132240384D01*
X163055096Y-132064894D01*
X163055095Y-132064892D01*
X163003178Y-131967763D01*
X162948077Y-131864677D01*
X162915127Y-131756053D01*
X162882176Y-131647429D01*
X162872398Y-131548151D01*
X162867617Y-131524117D01*
X162858240Y-131501478D01*
X162844626Y-131481104D01*
X162827299Y-131463777D01*
X162806924Y-131450163D01*
X162784285Y-131440785D01*
X162760252Y-131436005D01*
X162735748Y-131436005D01*
X162711714Y-131440786D01*
X162689075Y-131450163D01*
X162668701Y-131463777D01*
X162651374Y-131481104D01*
X162637760Y-131501479D01*
X162628382Y-131524118D01*
X162623602Y-131548151D01*
X162613824Y-131647428D01*
X162595717Y-131707118D01*
X162547923Y-131864676D01*
X162492821Y-131967764D01*
X162440905Y-132064892D01*
X162440904Y-132064893D01*
X162296881Y-132240387D01*
X162121395Y-132384404D01*
X161921177Y-132491423D01*
X161812552Y-132524374D01*
X161703929Y-132557324D01*
X161478000Y-132579576D01*
X161252072Y-132557324D01*
X161143449Y-132524374D01*
X161034824Y-132491423D01*
X160834606Y-132384404D01*
X160659117Y-132240384D01*
X160515096Y-132064894D01*
X160515095Y-132064892D01*
X160463178Y-131967763D01*
X160408077Y-131864677D01*
X160375127Y-131756053D01*
X160342176Y-131647429D01*
X160339898Y-131624298D01*
X160335117Y-131600265D01*
X160325740Y-131577626D01*
X160312126Y-131557252D01*
X160294799Y-131539925D01*
X160274424Y-131526311D01*
X160251785Y-131516933D01*
X160227752Y-131512153D01*
X160203248Y-131512153D01*
X160179214Y-131516934D01*
X160156575Y-131526311D01*
X160136201Y-131539925D01*
X160118874Y-131557252D01*
X160105260Y-131577627D01*
X160095882Y-131600266D01*
X160090500Y-131636551D01*
X160090500Y-132574000D01*
X157785500Y-132574000D01*
X157785500Y-130174000D01*
X160090500Y-130174000D01*
X160090500Y-131111450D01*
X160092902Y-131135836D01*
X160100015Y-131159285D01*
X160111566Y-131180896D01*
X160127112Y-131199838D01*
X160146054Y-131215384D01*
X160167665Y-131226935D01*
X160191114Y-131234048D01*
X160215500Y-131236450D01*
X160239886Y-131234048D01*
X160263335Y-131226935D01*
X160284946Y-131215384D01*
X160303888Y-131199838D01*
X160319434Y-131180896D01*
X160330985Y-131159285D01*
X160339898Y-131123702D01*
X160342176Y-131100573D01*
X160342177Y-131100571D01*
X160408077Y-130883325D01*
X160408077Y-130883324D01*
X160515094Y-130683110D01*
X160515095Y-130683108D01*
X160568296Y-130618282D01*
X160659119Y-130507613D01*
X160834605Y-130363596D01*
X161034823Y-130256577D01*
X161143448Y-130223626D01*
X161252071Y-130190676D01*
X161478000Y-130168424D01*
X161703928Y-130190676D01*
X161812552Y-130223627D01*
X161921176Y-130256577D01*
X162021871Y-130310400D01*
X162121392Y-130363595D01*
X162149432Y-130386607D01*
X162296887Y-130507619D01*
X162440904Y-130683105D01*
X162547923Y-130883323D01*
X162574237Y-130970071D01*
X162603436Y-131066325D01*
X162613824Y-131100572D01*
X162623602Y-131199849D01*
X162628383Y-131223883D01*
X162637760Y-131246522D01*
X162651374Y-131266896D01*
X162668701Y-131284223D01*
X162689076Y-131297837D01*
X162711715Y-131307215D01*
X162735748Y-131311995D01*
X162760252Y-131311995D01*
X162784286Y-131307214D01*
X162806925Y-131297837D01*
X162827299Y-131284223D01*
X162844626Y-131266896D01*
X162858240Y-131246521D01*
X162867618Y-131223882D01*
X162872398Y-131199849D01*
X162882176Y-131100573D01*
X162882177Y-131100571D01*
X162948077Y-130883325D01*
X162948077Y-130883324D01*
X163055094Y-130683110D01*
X163055095Y-130683108D01*
X163108296Y-130618282D01*
X163199119Y-130507613D01*
X163374605Y-130363596D01*
X163574823Y-130256577D01*
X163683448Y-130223626D01*
X163792071Y-130190676D01*
X164018000Y-130168424D01*
X164243928Y-130190676D01*
X164243928Y-130190676D01*
G37*
G36*
X138100503Y-130325789D02*
X138300991Y-130386607D01*
X138485764Y-130485369D01*
X138647718Y-130618282D01*
X138780631Y-130780236D01*
X138879393Y-130965009D01*
X138940211Y-131165497D01*
X138960746Y-131374000D01*
X138940211Y-131582503D01*
X138879393Y-131782991D01*
X138780631Y-131967764D01*
X138647718Y-132129718D01*
X138485764Y-132262631D01*
X138300991Y-132361393D01*
X138100503Y-132422211D01*
X137944251Y-132437600D01*
X137839749Y-132437600D01*
X137683497Y-132422211D01*
X137483009Y-132361393D01*
X137298236Y-132262631D01*
X137136282Y-132129718D01*
X137003369Y-131967764D01*
X136904607Y-131782991D01*
X136843789Y-131582503D01*
X136823254Y-131374000D01*
X136843789Y-131165497D01*
X136904607Y-130965009D01*
X137003369Y-130780236D01*
X137136282Y-130618282D01*
X137298236Y-130485369D01*
X137483009Y-130386607D01*
X137683497Y-130325789D01*
X137839749Y-130310400D01*
X137944251Y-130310400D01*
X138100503Y-130325789D01*
X138100503Y-130325789D01*
G37*
G36*
X136415600Y-132437600D02*
X134288400Y-132437600D01*
X134288400Y-130310400D01*
X136415600Y-130310400D01*
X136415600Y-132437600D01*
X136415600Y-132437600D01*
G37*
G36*
X140640503Y-130325789D02*
X140840991Y-130386607D01*
X141025764Y-130485369D01*
X141187718Y-130618282D01*
X141320631Y-130780236D01*
X141419393Y-130965009D01*
X141480211Y-131165497D01*
X141500746Y-131374000D01*
X141480211Y-131582503D01*
X141419393Y-131782991D01*
X141320631Y-131967764D01*
X141187718Y-132129718D01*
X141025764Y-132262631D01*
X140840991Y-132361393D01*
X140640503Y-132422211D01*
X140484251Y-132437600D01*
X140379749Y-132437600D01*
X140223497Y-132422211D01*
X140023009Y-132361393D01*
X139838236Y-132262631D01*
X139676282Y-132129718D01*
X139543369Y-131967764D01*
X139444607Y-131782991D01*
X139383789Y-131582503D01*
X139363254Y-131374000D01*
X139383789Y-131165497D01*
X139444607Y-130965009D01*
X139543369Y-130780236D01*
X139676282Y-130618282D01*
X139838236Y-130485369D01*
X140023009Y-130386607D01*
X140223497Y-130325789D01*
X140379749Y-130310400D01*
X140484251Y-130310400D01*
X140640503Y-130325789D01*
X140640503Y-130325789D01*
G37*
G36*
X143180503Y-130325789D02*
X143380991Y-130386607D01*
X143565764Y-130485369D01*
X143727718Y-130618282D01*
X143860631Y-130780236D01*
X143959393Y-130965009D01*
X144020211Y-131165497D01*
X144040746Y-131374000D01*
X144020211Y-131582503D01*
X143959393Y-131782991D01*
X143860631Y-131967764D01*
X143727718Y-132129718D01*
X143565764Y-132262631D01*
X143380991Y-132361393D01*
X143180503Y-132422211D01*
X143024251Y-132437600D01*
X142919749Y-132437600D01*
X142763497Y-132422211D01*
X142563009Y-132361393D01*
X142378236Y-132262631D01*
X142216282Y-132129718D01*
X142083369Y-131967764D01*
X141984607Y-131782991D01*
X141923789Y-131582503D01*
X141903254Y-131374000D01*
X141923789Y-131165497D01*
X141984607Y-130965009D01*
X142083369Y-130780236D01*
X142216282Y-130618282D01*
X142378236Y-130485369D01*
X142563009Y-130386607D01*
X142763497Y-130325789D01*
X142919749Y-130310400D01*
X143024251Y-130310400D01*
X143180503Y-130325789D01*
X143180503Y-130325789D01*
G37*
G36*
X145720503Y-130325789D02*
X145920991Y-130386607D01*
X146105764Y-130485369D01*
X146267718Y-130618282D01*
X146400631Y-130780236D01*
X146499393Y-130965009D01*
X146560211Y-131165497D01*
X146580746Y-131374000D01*
X146560211Y-131582503D01*
X146499393Y-131782991D01*
X146400631Y-131967764D01*
X146267718Y-132129718D01*
X146105764Y-132262631D01*
X145920991Y-132361393D01*
X145720503Y-132422211D01*
X145564251Y-132437600D01*
X145459749Y-132437600D01*
X145303497Y-132422211D01*
X145103009Y-132361393D01*
X144918236Y-132262631D01*
X144756282Y-132129718D01*
X144623369Y-131967764D01*
X144524607Y-131782991D01*
X144463789Y-131582503D01*
X144443254Y-131374000D01*
X144463789Y-131165497D01*
X144524607Y-130965009D01*
X144623369Y-130780236D01*
X144756282Y-130618282D01*
X144918236Y-130485369D01*
X145103009Y-130386607D01*
X145303497Y-130325789D01*
X145459749Y-130310400D01*
X145564251Y-130310400D01*
X145720503Y-130325789D01*
X145720503Y-130325789D01*
G37*
G36*
X186046995Y-128450565D02*
X186253118Y-128491565D01*
X186436218Y-128567408D01*
X186535201Y-128608408D01*
X186789071Y-128778038D01*
X187004962Y-128993929D01*
X187174592Y-129247799D01*
X187174592Y-129247800D01*
X187291435Y-129529882D01*
X187291435Y-129529884D01*
X187351000Y-129829337D01*
X187351000Y-130134663D01*
X187343175Y-130174000D01*
X187291435Y-130434118D01*
X187215151Y-130618282D01*
X187174592Y-130716201D01*
X187004962Y-130970071D01*
X186789071Y-131185962D01*
X186535201Y-131355592D01*
X186441173Y-131394540D01*
X186253118Y-131472435D01*
X186053481Y-131512145D01*
X185953663Y-131532000D01*
X185648337Y-131532000D01*
X185548519Y-131512145D01*
X185348882Y-131472435D01*
X185160827Y-131394540D01*
X185066799Y-131355592D01*
X184812929Y-131185962D01*
X184597038Y-130970071D01*
X184427408Y-130716201D01*
X184386849Y-130618282D01*
X184310565Y-130434118D01*
X184258825Y-130174000D01*
X184251000Y-130134663D01*
X184251000Y-129829337D01*
X184310565Y-129529884D01*
X184310565Y-129529882D01*
X184427408Y-129247800D01*
X184427408Y-129247799D01*
X184597038Y-128993929D01*
X184812929Y-128778038D01*
X185066799Y-128608408D01*
X185165782Y-128567408D01*
X185348882Y-128491565D01*
X185555005Y-128450565D01*
X185648337Y-128432000D01*
X185953663Y-128432000D01*
X186046995Y-128450565D01*
X186046995Y-128450565D01*
G37*
G36*
X126079481Y-128410855D02*
X126279118Y-128450565D01*
X126467173Y-128528460D01*
X126561201Y-128567408D01*
X126815071Y-128737038D01*
X127030962Y-128952929D01*
X127200592Y-129206799D01*
X127217575Y-129247800D01*
X127317435Y-129488882D01*
X127337492Y-129589718D01*
X127377000Y-129788337D01*
X127377000Y-130093663D01*
X127362129Y-130168424D01*
X127317435Y-130393118D01*
X127253863Y-130546594D01*
X127200592Y-130675201D01*
X127030962Y-130929071D01*
X126815071Y-131144962D01*
X126561201Y-131314592D01*
X126494344Y-131342285D01*
X126279118Y-131431435D01*
X126116522Y-131463777D01*
X125979663Y-131491000D01*
X125674337Y-131491000D01*
X125537478Y-131463777D01*
X125374882Y-131431435D01*
X125159656Y-131342285D01*
X125092799Y-131314592D01*
X124838929Y-131144962D01*
X124623038Y-130929071D01*
X124453408Y-130675201D01*
X124400137Y-130546594D01*
X124336565Y-130393118D01*
X124291871Y-130168424D01*
X124277000Y-130093663D01*
X124277000Y-129788337D01*
X124316508Y-129589718D01*
X124336565Y-129488882D01*
X124436425Y-129247800D01*
X124453408Y-129206799D01*
X124623038Y-128952929D01*
X124838929Y-128737038D01*
X125092799Y-128567408D01*
X125186827Y-128528460D01*
X125374882Y-128450565D01*
X125574519Y-128410855D01*
X125674337Y-128391000D01*
X125979663Y-128391000D01*
X126079481Y-128410855D01*
X126079481Y-128410855D01*
G37*
G36*
X143180503Y-127785789D02*
X143380991Y-127846607D01*
X143565764Y-127945369D01*
X143727718Y-128078282D01*
X143860631Y-128240236D01*
X143959393Y-128425009D01*
X144020211Y-128625497D01*
X144040746Y-128834000D01*
X144020211Y-129042503D01*
X143959393Y-129242991D01*
X143860631Y-129427764D01*
X143727718Y-129589718D01*
X143565764Y-129722631D01*
X143380991Y-129821393D01*
X143180503Y-129882211D01*
X143024251Y-129897600D01*
X142919749Y-129897600D01*
X142763497Y-129882211D01*
X142563009Y-129821393D01*
X142378236Y-129722631D01*
X142216282Y-129589718D01*
X142083369Y-129427764D01*
X141984607Y-129242991D01*
X141923789Y-129042503D01*
X141903254Y-128834000D01*
X141923789Y-128625497D01*
X141984607Y-128425009D01*
X142083369Y-128240236D01*
X142216282Y-128078282D01*
X142378236Y-127945369D01*
X142563009Y-127846607D01*
X142763497Y-127785789D01*
X142919749Y-127770400D01*
X143024251Y-127770400D01*
X143180503Y-127785789D01*
X143180503Y-127785789D01*
G37*
G36*
X140640503Y-127785789D02*
X140840991Y-127846607D01*
X141025764Y-127945369D01*
X141187718Y-128078282D01*
X141320631Y-128240236D01*
X141419393Y-128425009D01*
X141480211Y-128625497D01*
X141500746Y-128834000D01*
X141480211Y-129042503D01*
X141419393Y-129242991D01*
X141320631Y-129427764D01*
X141187718Y-129589718D01*
X141025764Y-129722631D01*
X140840991Y-129821393D01*
X140640503Y-129882211D01*
X140484251Y-129897600D01*
X140379749Y-129897600D01*
X140223497Y-129882211D01*
X140023009Y-129821393D01*
X139838236Y-129722631D01*
X139676282Y-129589718D01*
X139543369Y-129427764D01*
X139444607Y-129242991D01*
X139383789Y-129042503D01*
X139363254Y-128834000D01*
X139383789Y-128625497D01*
X139444607Y-128425009D01*
X139543369Y-128240236D01*
X139676282Y-128078282D01*
X139838236Y-127945369D01*
X140023009Y-127846607D01*
X140223497Y-127785789D01*
X140379749Y-127770400D01*
X140484251Y-127770400D01*
X140640503Y-127785789D01*
X140640503Y-127785789D01*
G37*
G36*
X145720503Y-127785789D02*
X145920991Y-127846607D01*
X146105764Y-127945369D01*
X146267718Y-128078282D01*
X146400631Y-128240236D01*
X146499393Y-128425009D01*
X146560211Y-128625497D01*
X146580746Y-128834000D01*
X146560211Y-129042503D01*
X146499393Y-129242991D01*
X146400631Y-129427764D01*
X146267718Y-129589718D01*
X146105764Y-129722631D01*
X145920991Y-129821393D01*
X145720503Y-129882211D01*
X145564251Y-129897600D01*
X145459749Y-129897600D01*
X145303497Y-129882211D01*
X145103009Y-129821393D01*
X144918236Y-129722631D01*
X144756282Y-129589718D01*
X144623369Y-129427764D01*
X144524607Y-129242991D01*
X144463789Y-129042503D01*
X144443254Y-128834000D01*
X144463789Y-128625497D01*
X144524607Y-128425009D01*
X144623369Y-128240236D01*
X144756282Y-128078282D01*
X144918236Y-127945369D01*
X145103009Y-127846607D01*
X145303497Y-127785789D01*
X145459749Y-127770400D01*
X145564251Y-127770400D01*
X145720503Y-127785789D01*
X145720503Y-127785789D01*
G37*
G36*
X138100503Y-127785789D02*
X138300991Y-127846607D01*
X138485764Y-127945369D01*
X138647718Y-128078282D01*
X138780631Y-128240236D01*
X138879393Y-128425009D01*
X138940211Y-128625497D01*
X138960746Y-128834000D01*
X138940211Y-129042503D01*
X138879393Y-129242991D01*
X138780631Y-129427764D01*
X138647718Y-129589718D01*
X138485764Y-129722631D01*
X138300991Y-129821393D01*
X138100503Y-129882211D01*
X137944251Y-129897600D01*
X137839749Y-129897600D01*
X137683497Y-129882211D01*
X137483009Y-129821393D01*
X137298236Y-129722631D01*
X137136282Y-129589718D01*
X137003369Y-129427764D01*
X136904607Y-129242991D01*
X136843789Y-129042503D01*
X136823254Y-128834000D01*
X136843789Y-128625497D01*
X136904607Y-128425009D01*
X137003369Y-128240236D01*
X137136282Y-128078282D01*
X137298236Y-127945369D01*
X137483009Y-127846607D01*
X137683497Y-127785789D01*
X137839749Y-127770400D01*
X137944251Y-127770400D01*
X138100503Y-127785789D01*
X138100503Y-127785789D01*
G37*
G36*
X135560503Y-127785789D02*
X135760991Y-127846607D01*
X135945764Y-127945369D01*
X136107718Y-128078282D01*
X136240631Y-128240236D01*
X136339393Y-128425009D01*
X136400211Y-128625497D01*
X136420746Y-128834000D01*
X136400211Y-129042503D01*
X136339393Y-129242991D01*
X136240631Y-129427764D01*
X136107718Y-129589718D01*
X135945764Y-129722631D01*
X135760991Y-129821393D01*
X135560503Y-129882211D01*
X135404251Y-129897600D01*
X135299749Y-129897600D01*
X135143497Y-129882211D01*
X134943009Y-129821393D01*
X134758236Y-129722631D01*
X134596282Y-129589718D01*
X134463369Y-129427764D01*
X134364607Y-129242991D01*
X134303789Y-129042503D01*
X134283254Y-128834000D01*
X134303789Y-128625497D01*
X134364607Y-128425009D01*
X134463369Y-128240236D01*
X134596282Y-128078282D01*
X134758236Y-127945369D01*
X134943009Y-127846607D01*
X135143497Y-127785789D01*
X135299749Y-127770400D01*
X135404251Y-127770400D01*
X135560503Y-127785789D01*
X135560503Y-127785789D01*
G37*
G36*
X186513707Y-122650597D02*
X186590836Y-122658193D01*
X186722787Y-122698220D01*
X186788763Y-122718233D01*
X186971172Y-122815733D01*
X187131054Y-122946946D01*
X187262267Y-123106828D01*
X187359767Y-123289237D01*
X187359767Y-123289238D01*
X187419807Y-123487164D01*
X187440080Y-123693000D01*
X187419807Y-123898836D01*
X187379780Y-124030787D01*
X187359767Y-124096763D01*
X187262267Y-124279172D01*
X187131054Y-124439054D01*
X186971172Y-124570267D01*
X186788763Y-124667767D01*
X186722787Y-124687780D01*
X186590836Y-124727807D01*
X186513707Y-124735404D01*
X186436580Y-124743000D01*
X186333420Y-124743000D01*
X186256293Y-124735404D01*
X186179164Y-124727807D01*
X186047213Y-124687780D01*
X185981237Y-124667767D01*
X185798828Y-124570267D01*
X185638946Y-124439054D01*
X185507733Y-124279172D01*
X185410233Y-124096763D01*
X185390220Y-124030787D01*
X185350193Y-123898836D01*
X185329920Y-123693000D01*
X185350193Y-123487164D01*
X185410233Y-123289238D01*
X185410233Y-123289237D01*
X185507733Y-123106828D01*
X185638946Y-122946946D01*
X185798828Y-122815733D01*
X185981237Y-122718233D01*
X186047213Y-122698220D01*
X186179164Y-122658193D01*
X186256293Y-122650597D01*
X186333420Y-122643000D01*
X186436580Y-122643000D01*
X186513707Y-122650597D01*
X186513707Y-122650597D01*
G37*
G36*
X186513707Y-120110596D02*
X186590836Y-120118193D01*
X186722787Y-120158220D01*
X186788763Y-120178233D01*
X186971172Y-120275733D01*
X187131054Y-120406946D01*
X187262267Y-120566828D01*
X187359767Y-120749237D01*
X187359767Y-120749238D01*
X187419807Y-120947164D01*
X187440080Y-121153000D01*
X187419807Y-121358836D01*
X187379780Y-121490787D01*
X187359767Y-121556763D01*
X187262267Y-121739172D01*
X187131054Y-121899054D01*
X186971172Y-122030267D01*
X186788763Y-122127767D01*
X186722787Y-122147780D01*
X186590836Y-122187807D01*
X186513707Y-122195404D01*
X186436580Y-122203000D01*
X186333420Y-122203000D01*
X186256293Y-122195404D01*
X186179164Y-122187807D01*
X186047213Y-122147780D01*
X185981237Y-122127767D01*
X185798828Y-122030267D01*
X185638946Y-121899054D01*
X185507733Y-121739172D01*
X185410233Y-121556763D01*
X185390220Y-121490787D01*
X185350193Y-121358836D01*
X185329920Y-121153000D01*
X185350193Y-120947164D01*
X185410233Y-120749238D01*
X185410233Y-120749237D01*
X185507733Y-120566828D01*
X185638946Y-120406946D01*
X185798828Y-120275733D01*
X185981237Y-120178233D01*
X186047213Y-120158220D01*
X186179164Y-120118193D01*
X186256293Y-120110596D01*
X186333420Y-120103000D01*
X186436580Y-120103000D01*
X186513707Y-120110596D01*
X186513707Y-120110596D01*
G37*
G36*
X186513707Y-117570596D02*
X186590836Y-117578193D01*
X186722787Y-117618220D01*
X186788763Y-117638233D01*
X186971172Y-117735733D01*
X187131054Y-117866946D01*
X187262267Y-118026828D01*
X187359767Y-118209237D01*
X187359767Y-118209238D01*
X187419807Y-118407164D01*
X187440080Y-118613000D01*
X187419807Y-118818836D01*
X187407571Y-118859172D01*
X187359767Y-119016763D01*
X187262267Y-119199172D01*
X187131054Y-119359054D01*
X186971172Y-119490267D01*
X186788763Y-119587767D01*
X186722787Y-119607780D01*
X186590836Y-119647807D01*
X186513707Y-119655404D01*
X186436580Y-119663000D01*
X186333420Y-119663000D01*
X186256293Y-119655404D01*
X186179164Y-119647807D01*
X186047213Y-119607780D01*
X185981237Y-119587767D01*
X185798828Y-119490267D01*
X185638946Y-119359054D01*
X185507733Y-119199172D01*
X185410233Y-119016763D01*
X185362429Y-118859172D01*
X185350193Y-118818836D01*
X185329920Y-118613000D01*
X185350193Y-118407164D01*
X185410233Y-118209238D01*
X185410233Y-118209237D01*
X185507733Y-118026828D01*
X185638946Y-117866946D01*
X185798828Y-117735733D01*
X185981237Y-117638233D01*
X186047213Y-117618220D01*
X186179164Y-117578193D01*
X186256293Y-117570596D01*
X186333420Y-117563000D01*
X186436580Y-117563000D01*
X186513707Y-117570596D01*
X186513707Y-117570596D01*
G37*
G36*
X149947707Y-117230597D02*
X150024836Y-117238193D01*
X150156787Y-117278220D01*
X150222763Y-117298233D01*
X150405172Y-117395733D01*
X150565054Y-117526946D01*
X150696267Y-117686828D01*
X150793767Y-117869237D01*
X150793767Y-117869238D01*
X150853807Y-118067164D01*
X150874080Y-118273000D01*
X150853807Y-118478836D01*
X150813780Y-118610787D01*
X150793767Y-118676763D01*
X150696267Y-118859172D01*
X150565054Y-119019054D01*
X150405172Y-119150267D01*
X150222763Y-119247767D01*
X150156787Y-119267780D01*
X150024836Y-119307807D01*
X149947707Y-119315404D01*
X149870580Y-119323000D01*
X149767420Y-119323000D01*
X149690293Y-119315404D01*
X149613164Y-119307807D01*
X149481213Y-119267780D01*
X149415237Y-119247767D01*
X149232828Y-119150267D01*
X149072946Y-119019054D01*
X148941733Y-118859172D01*
X148844233Y-118676763D01*
X148824220Y-118610787D01*
X148784193Y-118478836D01*
X148763920Y-118273000D01*
X148784193Y-118067164D01*
X148844233Y-117869238D01*
X148844233Y-117869237D01*
X148941733Y-117686828D01*
X149072946Y-117526946D01*
X149232828Y-117395733D01*
X149415237Y-117298233D01*
X149481213Y-117278220D01*
X149613164Y-117238193D01*
X149690293Y-117230597D01*
X149767420Y-117223000D01*
X149870580Y-117223000D01*
X149947707Y-117230597D01*
X149947707Y-117230597D01*
G37*
G36*
X152487707Y-117230597D02*
X152564836Y-117238193D01*
X152696787Y-117278220D01*
X152762763Y-117298233D01*
X152945172Y-117395733D01*
X153105054Y-117526946D01*
X153236267Y-117686828D01*
X153333767Y-117869237D01*
X153333767Y-117869238D01*
X153393807Y-118067164D01*
X153414080Y-118273000D01*
X153393807Y-118478836D01*
X153353780Y-118610787D01*
X153333767Y-118676763D01*
X153236267Y-118859172D01*
X153105054Y-119019054D01*
X152945172Y-119150267D01*
X152762763Y-119247767D01*
X152696787Y-119267780D01*
X152564836Y-119307807D01*
X152487707Y-119315404D01*
X152410580Y-119323000D01*
X152307420Y-119323000D01*
X152230293Y-119315404D01*
X152153164Y-119307807D01*
X152021213Y-119267780D01*
X151955237Y-119247767D01*
X151772828Y-119150267D01*
X151612946Y-119019054D01*
X151481733Y-118859172D01*
X151384233Y-118676763D01*
X151364220Y-118610787D01*
X151324193Y-118478836D01*
X151303920Y-118273000D01*
X151324193Y-118067164D01*
X151384233Y-117869238D01*
X151384233Y-117869237D01*
X151481733Y-117686828D01*
X151612946Y-117526946D01*
X151772828Y-117395733D01*
X151955237Y-117298233D01*
X152021213Y-117278220D01*
X152153164Y-117238193D01*
X152230293Y-117230597D01*
X152307420Y-117223000D01*
X152410580Y-117223000D01*
X152487707Y-117230597D01*
X152487707Y-117230597D01*
G37*
G36*
X155027707Y-117230597D02*
X155104836Y-117238193D01*
X155236787Y-117278220D01*
X155302763Y-117298233D01*
X155485172Y-117395733D01*
X155645054Y-117526946D01*
X155776267Y-117686828D01*
X155873767Y-117869237D01*
X155873767Y-117869238D01*
X155933807Y-118067164D01*
X155954080Y-118273000D01*
X155933807Y-118478836D01*
X155893780Y-118610787D01*
X155873767Y-118676763D01*
X155776267Y-118859172D01*
X155645054Y-119019054D01*
X155485172Y-119150267D01*
X155302763Y-119247767D01*
X155236787Y-119267780D01*
X155104836Y-119307807D01*
X155027707Y-119315404D01*
X154950580Y-119323000D01*
X154847420Y-119323000D01*
X154770293Y-119315404D01*
X154693164Y-119307807D01*
X154561213Y-119267780D01*
X154495237Y-119247767D01*
X154312828Y-119150267D01*
X154152946Y-119019054D01*
X154021733Y-118859172D01*
X153924233Y-118676763D01*
X153904220Y-118610787D01*
X153864193Y-118478836D01*
X153843920Y-118273000D01*
X153864193Y-118067164D01*
X153924233Y-117869238D01*
X153924233Y-117869237D01*
X154021733Y-117686828D01*
X154152946Y-117526946D01*
X154312828Y-117395733D01*
X154495237Y-117298233D01*
X154561213Y-117278220D01*
X154693164Y-117238193D01*
X154770293Y-117230597D01*
X154847420Y-117223000D01*
X154950580Y-117223000D01*
X155027707Y-117230597D01*
X155027707Y-117230597D01*
G37*
G36*
X148329000Y-119323000D02*
X146229000Y-119323000D01*
X146229000Y-117223000D01*
X148329000Y-117223000D01*
X148329000Y-119323000D01*
X148329000Y-119323000D01*
G37*
G36*
X186513707Y-115030597D02*
X186590836Y-115038193D01*
X186722787Y-115078220D01*
X186788763Y-115098233D01*
X186971172Y-115195733D01*
X187131054Y-115326946D01*
X187262267Y-115486828D01*
X187359767Y-115669237D01*
X187359767Y-115669238D01*
X187419807Y-115867164D01*
X187440080Y-116073000D01*
X187419807Y-116278836D01*
X187379780Y-116410787D01*
X187359767Y-116476763D01*
X187262267Y-116659172D01*
X187131054Y-116819054D01*
X186971172Y-116950267D01*
X186788763Y-117047767D01*
X186722787Y-117067780D01*
X186590836Y-117107807D01*
X186513707Y-117115404D01*
X186436580Y-117123000D01*
X186333420Y-117123000D01*
X186256293Y-117115404D01*
X186179164Y-117107807D01*
X186047213Y-117067780D01*
X185981237Y-117047767D01*
X185798828Y-116950267D01*
X185638946Y-116819054D01*
X185507733Y-116659172D01*
X185410233Y-116476763D01*
X185390220Y-116410787D01*
X185350193Y-116278836D01*
X185329920Y-116073000D01*
X185350193Y-115867164D01*
X185410233Y-115669238D01*
X185410233Y-115669237D01*
X185507733Y-115486828D01*
X185638946Y-115326946D01*
X185798828Y-115195733D01*
X185981237Y-115098233D01*
X186047213Y-115078220D01*
X186179164Y-115038193D01*
X186256293Y-115030597D01*
X186333420Y-115023000D01*
X186436580Y-115023000D01*
X186513707Y-115030597D01*
X186513707Y-115030597D01*
G37*
G36*
X186513707Y-112490597D02*
X186590836Y-112498193D01*
X186722787Y-112538220D01*
X186788763Y-112558233D01*
X186971172Y-112655733D01*
X187131054Y-112786946D01*
X187262267Y-112946828D01*
X187359767Y-113129237D01*
X187359767Y-113129238D01*
X187419807Y-113327164D01*
X187440080Y-113533000D01*
X187419807Y-113738836D01*
X187379780Y-113870787D01*
X187359767Y-113936763D01*
X187262267Y-114119172D01*
X187131054Y-114279054D01*
X186971172Y-114410267D01*
X186788763Y-114507767D01*
X186722787Y-114527780D01*
X186590836Y-114567807D01*
X186513707Y-114575404D01*
X186436580Y-114583000D01*
X186333420Y-114583000D01*
X186256293Y-114575404D01*
X186179164Y-114567807D01*
X186047213Y-114527780D01*
X185981237Y-114507767D01*
X185798828Y-114410267D01*
X185638946Y-114279054D01*
X185507733Y-114119172D01*
X185410233Y-113936763D01*
X185390220Y-113870787D01*
X185350193Y-113738836D01*
X185329920Y-113533000D01*
X185350193Y-113327164D01*
X185410233Y-113129238D01*
X185410233Y-113129237D01*
X185507733Y-112946828D01*
X185638946Y-112786946D01*
X185798828Y-112655733D01*
X185981237Y-112558233D01*
X186047213Y-112538220D01*
X186179164Y-112498193D01*
X186256293Y-112490597D01*
X186333420Y-112483000D01*
X186436580Y-112483000D01*
X186513707Y-112490597D01*
X186513707Y-112490597D01*
G37*
G36*
X186513707Y-109950596D02*
X186590836Y-109958193D01*
X186722787Y-109998220D01*
X186788763Y-110018233D01*
X186971172Y-110115733D01*
X187131054Y-110246946D01*
X187262267Y-110406828D01*
X187359767Y-110589237D01*
X187359767Y-110589238D01*
X187419807Y-110787164D01*
X187440080Y-110993000D01*
X187419807Y-111198836D01*
X187379780Y-111330787D01*
X187359767Y-111396763D01*
X187262267Y-111579172D01*
X187131054Y-111739054D01*
X186971172Y-111870267D01*
X186788763Y-111967767D01*
X186722787Y-111987780D01*
X186590836Y-112027807D01*
X186513707Y-112035403D01*
X186436580Y-112043000D01*
X186333420Y-112043000D01*
X186256293Y-112035403D01*
X186179164Y-112027807D01*
X186047213Y-111987780D01*
X185981237Y-111967767D01*
X185798828Y-111870267D01*
X185638946Y-111739054D01*
X185507733Y-111579172D01*
X185410233Y-111396763D01*
X185390220Y-111330787D01*
X185350193Y-111198836D01*
X185329920Y-110993000D01*
X185350193Y-110787164D01*
X185410233Y-110589238D01*
X185410233Y-110589237D01*
X185507733Y-110406828D01*
X185638946Y-110246946D01*
X185798828Y-110115733D01*
X185981237Y-110018233D01*
X186047213Y-109998220D01*
X186179164Y-109958193D01*
X186256293Y-109950596D01*
X186333420Y-109943000D01*
X186436580Y-109943000D01*
X186513707Y-109950596D01*
X186513707Y-109950596D01*
G37*
G36*
X186513707Y-107410596D02*
X186590836Y-107418193D01*
X186722787Y-107458220D01*
X186788763Y-107478233D01*
X186971172Y-107575733D01*
X187131054Y-107706946D01*
X187262267Y-107866828D01*
X187359767Y-108049237D01*
X187359767Y-108049238D01*
X187419807Y-108247164D01*
X187440080Y-108453000D01*
X187419807Y-108658836D01*
X187379780Y-108790787D01*
X187359767Y-108856763D01*
X187262267Y-109039172D01*
X187131054Y-109199054D01*
X186971172Y-109330267D01*
X186788763Y-109427767D01*
X186722787Y-109447780D01*
X186590836Y-109487807D01*
X186513707Y-109495403D01*
X186436580Y-109503000D01*
X186333420Y-109503000D01*
X186256293Y-109495403D01*
X186179164Y-109487807D01*
X186047213Y-109447780D01*
X185981237Y-109427767D01*
X185798828Y-109330267D01*
X185638946Y-109199054D01*
X185507733Y-109039172D01*
X185410233Y-108856763D01*
X185390220Y-108790787D01*
X185350193Y-108658836D01*
X185329920Y-108453000D01*
X185350193Y-108247164D01*
X185410233Y-108049238D01*
X185410233Y-108049237D01*
X185507733Y-107866828D01*
X185638946Y-107706946D01*
X185798828Y-107575733D01*
X185981237Y-107478233D01*
X186047213Y-107458220D01*
X186179164Y-107418193D01*
X186256293Y-107410596D01*
X186333420Y-107403000D01*
X186436580Y-107403000D01*
X186513707Y-107410596D01*
X186513707Y-107410596D01*
G37*
G36*
X133727707Y-105652797D02*
X133804836Y-105660393D01*
X133936787Y-105700420D01*
X134002763Y-105720433D01*
X134185172Y-105817933D01*
X134345054Y-105949146D01*
X134476267Y-106109028D01*
X134573767Y-106291437D01*
X134573767Y-106291438D01*
X134633807Y-106489364D01*
X134654080Y-106695200D01*
X134633807Y-106901036D01*
X134615010Y-106963000D01*
X134573767Y-107098963D01*
X134476267Y-107281372D01*
X134345054Y-107441254D01*
X134185172Y-107572467D01*
X134002763Y-107669967D01*
X133936787Y-107689980D01*
X133804836Y-107730007D01*
X133727707Y-107737603D01*
X133650580Y-107745200D01*
X133547420Y-107745200D01*
X133470293Y-107737603D01*
X133393164Y-107730007D01*
X133261213Y-107689980D01*
X133195237Y-107669967D01*
X133012828Y-107572467D01*
X132852946Y-107441254D01*
X132721733Y-107281372D01*
X132624233Y-107098963D01*
X132582990Y-106963000D01*
X132564193Y-106901036D01*
X132543920Y-106695200D01*
X132564193Y-106489364D01*
X132624233Y-106291438D01*
X132624233Y-106291437D01*
X132721733Y-106109028D01*
X132852946Y-105949146D01*
X133012828Y-105817933D01*
X133195237Y-105720433D01*
X133261213Y-105700420D01*
X133393164Y-105660393D01*
X133470293Y-105652797D01*
X133547420Y-105645200D01*
X133650580Y-105645200D01*
X133727707Y-105652797D01*
X133727707Y-105652797D01*
G37*
G36*
X187435000Y-106963000D02*
X185335000Y-106963000D01*
X185335000Y-104863000D01*
X187435000Y-104863000D01*
X187435000Y-106963000D01*
X187435000Y-106963000D01*
G37*
G36*
X133727707Y-103112796D02*
X133804836Y-103120393D01*
X133936787Y-103160420D01*
X134002763Y-103180433D01*
X134185172Y-103277933D01*
X134345054Y-103409146D01*
X134476267Y-103569028D01*
X134573767Y-103751437D01*
X134573767Y-103751438D01*
X134633807Y-103949364D01*
X134654080Y-104155200D01*
X134633807Y-104361036D01*
X134593780Y-104492987D01*
X134573767Y-104558963D01*
X134476267Y-104741372D01*
X134345054Y-104901254D01*
X134185172Y-105032467D01*
X134002763Y-105129967D01*
X133936787Y-105149980D01*
X133804836Y-105190007D01*
X133727707Y-105197603D01*
X133650580Y-105205200D01*
X133547420Y-105205200D01*
X133470293Y-105197603D01*
X133393164Y-105190007D01*
X133261213Y-105149980D01*
X133195237Y-105129967D01*
X133012828Y-105032467D01*
X132852946Y-104901254D01*
X132721733Y-104741372D01*
X132624233Y-104558963D01*
X132604220Y-104492987D01*
X132564193Y-104361036D01*
X132543920Y-104155200D01*
X132564193Y-103949364D01*
X132624233Y-103751438D01*
X132624233Y-103751437D01*
X132721733Y-103569028D01*
X132852946Y-103409146D01*
X133012828Y-103277933D01*
X133195237Y-103180433D01*
X133261213Y-103160420D01*
X133393164Y-103120393D01*
X133470293Y-103112797D01*
X133547420Y-103105200D01*
X133650580Y-103105200D01*
X133727707Y-103112796D01*
X133727707Y-103112796D01*
G37*
G36*
X173646707Y-102045596D02*
X173723836Y-102053193D01*
X173855787Y-102093220D01*
X173921763Y-102113233D01*
X174104172Y-102210733D01*
X174264054Y-102341946D01*
X174395267Y-102501828D01*
X174492767Y-102684237D01*
X174492767Y-102684238D01*
X174552807Y-102882164D01*
X174573080Y-103088000D01*
X174552807Y-103293836D01*
X174517828Y-103409146D01*
X174492767Y-103491763D01*
X174395267Y-103674172D01*
X174264054Y-103834054D01*
X174104172Y-103965267D01*
X173921763Y-104062767D01*
X173855787Y-104082780D01*
X173723836Y-104122807D01*
X173646707Y-104130403D01*
X173569580Y-104138000D01*
X173466420Y-104138000D01*
X173389293Y-104130403D01*
X173312164Y-104122807D01*
X173180213Y-104082780D01*
X173114237Y-104062767D01*
X172931828Y-103965267D01*
X172771946Y-103834054D01*
X172640733Y-103674172D01*
X172543233Y-103491763D01*
X172518172Y-103409146D01*
X172483193Y-103293836D01*
X172462920Y-103088000D01*
X172483193Y-102882164D01*
X172543233Y-102684238D01*
X172543233Y-102684237D01*
X172640733Y-102501828D01*
X172771946Y-102341946D01*
X172931828Y-102210733D01*
X173114237Y-102113233D01*
X173180213Y-102093220D01*
X173312164Y-102053193D01*
X173389293Y-102045597D01*
X173466420Y-102038000D01*
X173569580Y-102038000D01*
X173646707Y-102045596D01*
X173646707Y-102045596D01*
G37*
G36*
X133727707Y-100572797D02*
X133804836Y-100580393D01*
X133936787Y-100620420D01*
X134002763Y-100640433D01*
X134185172Y-100737933D01*
X134345054Y-100869146D01*
X134476267Y-101029028D01*
X134573767Y-101211437D01*
X134573767Y-101211438D01*
X134633807Y-101409364D01*
X134654080Y-101615200D01*
X134633807Y-101821036D01*
X134593780Y-101952987D01*
X134573767Y-102018963D01*
X134476267Y-102201372D01*
X134345054Y-102361254D01*
X134185172Y-102492467D01*
X134002763Y-102589967D01*
X133936787Y-102609980D01*
X133804836Y-102650007D01*
X133727707Y-102657604D01*
X133650580Y-102665200D01*
X133547420Y-102665200D01*
X133470293Y-102657604D01*
X133393164Y-102650007D01*
X133261213Y-102609980D01*
X133195237Y-102589967D01*
X133012828Y-102492467D01*
X132852946Y-102361254D01*
X132721733Y-102201372D01*
X132624233Y-102018963D01*
X132604220Y-101952987D01*
X132564193Y-101821036D01*
X132543920Y-101615200D01*
X132564193Y-101409364D01*
X132624233Y-101211438D01*
X132624233Y-101211437D01*
X132721733Y-101029028D01*
X132852946Y-100869146D01*
X133012828Y-100737933D01*
X133195237Y-100640433D01*
X133261213Y-100620420D01*
X133393164Y-100580393D01*
X133470293Y-100572797D01*
X133547420Y-100565200D01*
X133650580Y-100565200D01*
X133727707Y-100572797D01*
X133727707Y-100572797D01*
G37*
G36*
X174568000Y-101598000D02*
X172468000Y-101598000D01*
X172468000Y-99498000D01*
X174568000Y-99498000D01*
X174568000Y-101598000D01*
X174568000Y-101598000D01*
G37*
G36*
X133727707Y-98032796D02*
X133804836Y-98040393D01*
X133936787Y-98080420D01*
X134002763Y-98100433D01*
X134185172Y-98197933D01*
X134345054Y-98329146D01*
X134476267Y-98489028D01*
X134573767Y-98671437D01*
X134573767Y-98671438D01*
X134633807Y-98869364D01*
X134654080Y-99075200D01*
X134633807Y-99281036D01*
X134593780Y-99412987D01*
X134573767Y-99478963D01*
X134476267Y-99661372D01*
X134345054Y-99821254D01*
X134185172Y-99952467D01*
X134002763Y-100049967D01*
X133936787Y-100069980D01*
X133804836Y-100110007D01*
X133727707Y-100117603D01*
X133650580Y-100125200D01*
X133547420Y-100125200D01*
X133470293Y-100117603D01*
X133393164Y-100110007D01*
X133261213Y-100069980D01*
X133195237Y-100049967D01*
X133012828Y-99952467D01*
X132852946Y-99821254D01*
X132721733Y-99661372D01*
X132624233Y-99478963D01*
X132604220Y-99412987D01*
X132564193Y-99281036D01*
X132543920Y-99075200D01*
X132564193Y-98869364D01*
X132624233Y-98671438D01*
X132624233Y-98671437D01*
X132721733Y-98489028D01*
X132852946Y-98329146D01*
X133012828Y-98197933D01*
X133195237Y-98100433D01*
X133261213Y-98080420D01*
X133393164Y-98040393D01*
X133470293Y-98032797D01*
X133547420Y-98025200D01*
X133650580Y-98025200D01*
X133727707Y-98032796D01*
X133727707Y-98032796D01*
G37*
G36*
X133727707Y-95492797D02*
X133804836Y-95500393D01*
X133936787Y-95540420D01*
X134002763Y-95560433D01*
X134185172Y-95657933D01*
X134345054Y-95789146D01*
X134476267Y-95949028D01*
X134573767Y-96131437D01*
X134573767Y-96131438D01*
X134633807Y-96329364D01*
X134654080Y-96535200D01*
X134633807Y-96741036D01*
X134593780Y-96872987D01*
X134573767Y-96938963D01*
X134476267Y-97121372D01*
X134345054Y-97281254D01*
X134185172Y-97412467D01*
X134002763Y-97509967D01*
X133936787Y-97529980D01*
X133804836Y-97570007D01*
X133727707Y-97577604D01*
X133650580Y-97585200D01*
X133547420Y-97585200D01*
X133470293Y-97577604D01*
X133393164Y-97570007D01*
X133261213Y-97529980D01*
X133195237Y-97509967D01*
X133012828Y-97412467D01*
X132852946Y-97281254D01*
X132721733Y-97121372D01*
X132624233Y-96938963D01*
X132604220Y-96872987D01*
X132564193Y-96741036D01*
X132543920Y-96535200D01*
X132564193Y-96329364D01*
X132624233Y-96131438D01*
X132624233Y-96131437D01*
X132721733Y-95949028D01*
X132852946Y-95789146D01*
X133012828Y-95657933D01*
X133195237Y-95560433D01*
X133261213Y-95540420D01*
X133393164Y-95500393D01*
X133470293Y-95492797D01*
X133547420Y-95485200D01*
X133650580Y-95485200D01*
X133727707Y-95492797D01*
X133727707Y-95492797D01*
G37*
G36*
X186391707Y-95086397D02*
X186468836Y-95093993D01*
X186600787Y-95134020D01*
X186666763Y-95154033D01*
X186849172Y-95251533D01*
X187009054Y-95382746D01*
X187140267Y-95542628D01*
X187237767Y-95725037D01*
X187237767Y-95725038D01*
X187297807Y-95922964D01*
X187318080Y-96128800D01*
X187297807Y-96334636D01*
X187257780Y-96466587D01*
X187237767Y-96532563D01*
X187140267Y-96714972D01*
X187009054Y-96874854D01*
X186849172Y-97006067D01*
X186666763Y-97103567D01*
X186608070Y-97121371D01*
X186468836Y-97163607D01*
X186391707Y-97171204D01*
X186314580Y-97178800D01*
X186211420Y-97178800D01*
X186134293Y-97171204D01*
X186057164Y-97163607D01*
X185917930Y-97121371D01*
X185859237Y-97103567D01*
X185676828Y-97006067D01*
X185516946Y-96874854D01*
X185385733Y-96714972D01*
X185288233Y-96532563D01*
X185268220Y-96466587D01*
X185228193Y-96334636D01*
X185207920Y-96128800D01*
X185228193Y-95922964D01*
X185288233Y-95725038D01*
X185288233Y-95725037D01*
X185385733Y-95542628D01*
X185516946Y-95382746D01*
X185676828Y-95251533D01*
X185859237Y-95154033D01*
X185925213Y-95134020D01*
X186057164Y-95093993D01*
X186134293Y-95086397D01*
X186211420Y-95078800D01*
X186314580Y-95078800D01*
X186391707Y-95086397D01*
X186391707Y-95086397D01*
G37*
G36*
X133727707Y-92952797D02*
X133804836Y-92960393D01*
X133936787Y-93000420D01*
X134002763Y-93020433D01*
X134185172Y-93117933D01*
X134345054Y-93249146D01*
X134476267Y-93409028D01*
X134573767Y-93591437D01*
X134573767Y-93591438D01*
X134633807Y-93789364D01*
X134654080Y-93995200D01*
X134633807Y-94201036D01*
X134593780Y-94332987D01*
X134573767Y-94398963D01*
X134476267Y-94581372D01*
X134345054Y-94741254D01*
X134185172Y-94872467D01*
X134002763Y-94969967D01*
X133936787Y-94989980D01*
X133804836Y-95030007D01*
X133727707Y-95037603D01*
X133650580Y-95045200D01*
X133547420Y-95045200D01*
X133470293Y-95037604D01*
X133393164Y-95030007D01*
X133261213Y-94989980D01*
X133195237Y-94969967D01*
X133012828Y-94872467D01*
X132852946Y-94741254D01*
X132721733Y-94581372D01*
X132624233Y-94398963D01*
X132604220Y-94332987D01*
X132564193Y-94201036D01*
X132543920Y-93995200D01*
X132564193Y-93789364D01*
X132624233Y-93591438D01*
X132624233Y-93591437D01*
X132721733Y-93409028D01*
X132852946Y-93249146D01*
X133012828Y-93117933D01*
X133195237Y-93020433D01*
X133261213Y-93000420D01*
X133393164Y-92960393D01*
X133470293Y-92952797D01*
X133547420Y-92945200D01*
X133650580Y-92945200D01*
X133727707Y-92952797D01*
X133727707Y-92952797D01*
G37*
G36*
X186391707Y-92546397D02*
X186468836Y-92553993D01*
X186600787Y-92594020D01*
X186666763Y-92614033D01*
X186849172Y-92711533D01*
X187009054Y-92842746D01*
X187140267Y-93002628D01*
X187237767Y-93185037D01*
X187237767Y-93185038D01*
X187297807Y-93382964D01*
X187318080Y-93588800D01*
X187297807Y-93794636D01*
X187257780Y-93926587D01*
X187237767Y-93992563D01*
X187140267Y-94174972D01*
X187009054Y-94334854D01*
X186849172Y-94466067D01*
X186666763Y-94563567D01*
X186608070Y-94581371D01*
X186468836Y-94623607D01*
X186391707Y-94631204D01*
X186314580Y-94638800D01*
X186211420Y-94638800D01*
X186134293Y-94631203D01*
X186057164Y-94623607D01*
X185917930Y-94581371D01*
X185859237Y-94563567D01*
X185676828Y-94466067D01*
X185516946Y-94334854D01*
X185385733Y-94174972D01*
X185288233Y-93992563D01*
X185268220Y-93926587D01*
X185228193Y-93794636D01*
X185207920Y-93588800D01*
X185228193Y-93382964D01*
X185288233Y-93185038D01*
X185288233Y-93185037D01*
X185385733Y-93002628D01*
X185516946Y-92842746D01*
X185676828Y-92711533D01*
X185859237Y-92614033D01*
X185925213Y-92594020D01*
X186057164Y-92553993D01*
X186134293Y-92546397D01*
X186211420Y-92538800D01*
X186314580Y-92538800D01*
X186391707Y-92546397D01*
X186391707Y-92546397D01*
G37*
G36*
X134649000Y-92505200D02*
X132549000Y-92505200D01*
X132549000Y-90405200D01*
X134649000Y-90405200D01*
X134649000Y-92505200D01*
X134649000Y-92505200D01*
G37*
G36*
X186391707Y-90006396D02*
X186468836Y-90013993D01*
X186600787Y-90054020D01*
X186666763Y-90074033D01*
X186849172Y-90171533D01*
X187009054Y-90302746D01*
X187140267Y-90462628D01*
X187237767Y-90645037D01*
X187237767Y-90645038D01*
X187297807Y-90842964D01*
X187318080Y-91048800D01*
X187297807Y-91254636D01*
X187257780Y-91386587D01*
X187237767Y-91452563D01*
X187140267Y-91634972D01*
X187009054Y-91794854D01*
X186849172Y-91926067D01*
X186666763Y-92023567D01*
X186600787Y-92043580D01*
X186468836Y-92083607D01*
X186391707Y-92091203D01*
X186314580Y-92098800D01*
X186211420Y-92098800D01*
X186134293Y-92091204D01*
X186057164Y-92083607D01*
X185925213Y-92043580D01*
X185859237Y-92023567D01*
X185676828Y-91926067D01*
X185516946Y-91794854D01*
X185385733Y-91634972D01*
X185288233Y-91452563D01*
X185268220Y-91386587D01*
X185228193Y-91254636D01*
X185207920Y-91048800D01*
X185228193Y-90842964D01*
X185288233Y-90645038D01*
X185288233Y-90645037D01*
X185385733Y-90462628D01*
X185516946Y-90302746D01*
X185676828Y-90171533D01*
X185859237Y-90074033D01*
X185925213Y-90054020D01*
X186057164Y-90013993D01*
X186134293Y-90006396D01*
X186211420Y-89998800D01*
X186314580Y-89998800D01*
X186391707Y-90006396D01*
X186391707Y-90006396D01*
G37*
G36*
X186391707Y-87466397D02*
X186468836Y-87473993D01*
X186600787Y-87514020D01*
X186666763Y-87534033D01*
X186849172Y-87631533D01*
X187009054Y-87762746D01*
X187140267Y-87922628D01*
X187237767Y-88105037D01*
X187237767Y-88105038D01*
X187297807Y-88302964D01*
X187318080Y-88508800D01*
X187297807Y-88714636D01*
X187257780Y-88846587D01*
X187237767Y-88912563D01*
X187140267Y-89094972D01*
X187009054Y-89254854D01*
X186849172Y-89386067D01*
X186666763Y-89483567D01*
X186600787Y-89503580D01*
X186468836Y-89543607D01*
X186391707Y-89551204D01*
X186314580Y-89558800D01*
X186211420Y-89558800D01*
X186134293Y-89551204D01*
X186057164Y-89543607D01*
X185925213Y-89503580D01*
X185859237Y-89483567D01*
X185676828Y-89386067D01*
X185516946Y-89254854D01*
X185385733Y-89094972D01*
X185288233Y-88912563D01*
X185268220Y-88846587D01*
X185228193Y-88714636D01*
X185207920Y-88508800D01*
X185228193Y-88302964D01*
X185288233Y-88105038D01*
X185288233Y-88105037D01*
X185385733Y-87922628D01*
X185516946Y-87762746D01*
X185676828Y-87631533D01*
X185859237Y-87534033D01*
X185925213Y-87514020D01*
X186057164Y-87473993D01*
X186134293Y-87466397D01*
X186211420Y-87458800D01*
X186314580Y-87458800D01*
X186391707Y-87466397D01*
X186391707Y-87466397D01*
G37*
G36*
X186391707Y-84926396D02*
X186468836Y-84933993D01*
X186600787Y-84974020D01*
X186666763Y-84994033D01*
X186849172Y-85091533D01*
X187009054Y-85222746D01*
X187140267Y-85382628D01*
X187237767Y-85565037D01*
X187237767Y-85565038D01*
X187297807Y-85762964D01*
X187318080Y-85968800D01*
X187297807Y-86174636D01*
X187257780Y-86306587D01*
X187237767Y-86372563D01*
X187140267Y-86554972D01*
X187009054Y-86714854D01*
X186849172Y-86846067D01*
X186666763Y-86943567D01*
X186600787Y-86963580D01*
X186468836Y-87003607D01*
X186391707Y-87011204D01*
X186314580Y-87018800D01*
X186211420Y-87018800D01*
X186134293Y-87011204D01*
X186057164Y-87003607D01*
X185925213Y-86963580D01*
X185859237Y-86943567D01*
X185676828Y-86846067D01*
X185516946Y-86714854D01*
X185385733Y-86554972D01*
X185288233Y-86372563D01*
X185268220Y-86306587D01*
X185228193Y-86174636D01*
X185207920Y-85968800D01*
X185228193Y-85762964D01*
X185288233Y-85565038D01*
X185288233Y-85565037D01*
X185385733Y-85382628D01*
X185516946Y-85222746D01*
X185676828Y-85091533D01*
X185859237Y-84994033D01*
X185925213Y-84974020D01*
X186057164Y-84933993D01*
X186134293Y-84926396D01*
X186211420Y-84918800D01*
X186314580Y-84918800D01*
X186391707Y-84926396D01*
X186391707Y-84926396D01*
G37*
G36*
X186391707Y-82386397D02*
X186468836Y-82393993D01*
X186600787Y-82434020D01*
X186666763Y-82454033D01*
X186849172Y-82551533D01*
X187009054Y-82682746D01*
X187140267Y-82842628D01*
X187237767Y-83025037D01*
X187237767Y-83025038D01*
X187297807Y-83222964D01*
X187318080Y-83428800D01*
X187297807Y-83634636D01*
X187257780Y-83766587D01*
X187237767Y-83832563D01*
X187140267Y-84014972D01*
X187009054Y-84174854D01*
X186849172Y-84306067D01*
X186666763Y-84403567D01*
X186600787Y-84423580D01*
X186468836Y-84463607D01*
X186391707Y-84471203D01*
X186314580Y-84478800D01*
X186211420Y-84478800D01*
X186134293Y-84471203D01*
X186057164Y-84463607D01*
X185925213Y-84423580D01*
X185859237Y-84403567D01*
X185676828Y-84306067D01*
X185516946Y-84174854D01*
X185385733Y-84014972D01*
X185288233Y-83832563D01*
X185268220Y-83766587D01*
X185228193Y-83634636D01*
X185207920Y-83428800D01*
X185228193Y-83222964D01*
X185288233Y-83025038D01*
X185288233Y-83025037D01*
X185385733Y-82842628D01*
X185516946Y-82682746D01*
X185676828Y-82551533D01*
X185859237Y-82454033D01*
X185925213Y-82434020D01*
X186057164Y-82393993D01*
X186134293Y-82386397D01*
X186211420Y-82378800D01*
X186314580Y-82378800D01*
X186391707Y-82386397D01*
X186391707Y-82386397D01*
G37*
G36*
X186391707Y-79846396D02*
X186468836Y-79853993D01*
X186600787Y-79894020D01*
X186666763Y-79914033D01*
X186849172Y-80011533D01*
X187009054Y-80142746D01*
X187140267Y-80302628D01*
X187237767Y-80485037D01*
X187237767Y-80485038D01*
X187297807Y-80682964D01*
X187318080Y-80888800D01*
X187297807Y-81094636D01*
X187257780Y-81226587D01*
X187237767Y-81292563D01*
X187140267Y-81474972D01*
X187009054Y-81634854D01*
X186849172Y-81766067D01*
X186666763Y-81863567D01*
X186600787Y-81883580D01*
X186468836Y-81923607D01*
X186391707Y-81931203D01*
X186314580Y-81938800D01*
X186211420Y-81938800D01*
X186134293Y-81931203D01*
X186057164Y-81923607D01*
X185925213Y-81883580D01*
X185859237Y-81863567D01*
X185676828Y-81766067D01*
X185516946Y-81634854D01*
X185385733Y-81474972D01*
X185288233Y-81292563D01*
X185268220Y-81226587D01*
X185228193Y-81094636D01*
X185207920Y-80888800D01*
X185228193Y-80682964D01*
X185288233Y-80485038D01*
X185288233Y-80485037D01*
X185385733Y-80302628D01*
X185516946Y-80142746D01*
X185676828Y-80011533D01*
X185859237Y-79914033D01*
X185925213Y-79894020D01*
X186057164Y-79853993D01*
X186134293Y-79846396D01*
X186211420Y-79838800D01*
X186314580Y-79838800D01*
X186391707Y-79846396D01*
X186391707Y-79846396D01*
G37*
G36*
X187313000Y-79398800D02*
X185213000Y-79398800D01*
X185213000Y-77298800D01*
X187313000Y-77298800D01*
X187313000Y-79398800D01*
X187313000Y-79398800D01*
G37*
G36*
X186038481Y-70458555D02*
X186238118Y-70498265D01*
X186426173Y-70576160D01*
X186520201Y-70615108D01*
X186774071Y-70784738D01*
X186989962Y-71000629D01*
X187159592Y-71254499D01*
X187159592Y-71254500D01*
X187276435Y-71536582D01*
X187276435Y-71536584D01*
X187332957Y-71820737D01*
X187336000Y-71836038D01*
X187336000Y-72141362D01*
X187276435Y-72440818D01*
X187198540Y-72628873D01*
X187159592Y-72722901D01*
X186989962Y-72976771D01*
X186774071Y-73192662D01*
X186520201Y-73362292D01*
X186426173Y-73401240D01*
X186238118Y-73479135D01*
X186038481Y-73518845D01*
X185938663Y-73538700D01*
X185633337Y-73538700D01*
X185533519Y-73518845D01*
X185333882Y-73479135D01*
X185145827Y-73401240D01*
X185051799Y-73362292D01*
X184797929Y-73192662D01*
X184582038Y-72976771D01*
X184412408Y-72722901D01*
X184373460Y-72628873D01*
X184295565Y-72440818D01*
X184236000Y-72141362D01*
X184236000Y-71836038D01*
X184239044Y-71820737D01*
X184295565Y-71536584D01*
X184295565Y-71536582D01*
X184412408Y-71254500D01*
X184412408Y-71254499D01*
X184582038Y-71000629D01*
X184797929Y-70784738D01*
X185051799Y-70615108D01*
X185145827Y-70576160D01*
X185333882Y-70498265D01*
X185533519Y-70458555D01*
X185633337Y-70438700D01*
X185938663Y-70438700D01*
X186038481Y-70458555D01*
X186038481Y-70458555D01*
G37*
G36*
X126020581Y-70438700D02*
X126243118Y-70482965D01*
X126431173Y-70560860D01*
X126525201Y-70599808D01*
X126779071Y-70769438D01*
X126994962Y-70985329D01*
X127164592Y-71239199D01*
X127164592Y-71239200D01*
X127281435Y-71521282D01*
X127321145Y-71720919D01*
X127341000Y-71820737D01*
X127341000Y-72126063D01*
X127321145Y-72225881D01*
X127281435Y-72425518D01*
X127275098Y-72440816D01*
X127164592Y-72707601D01*
X126994962Y-72961471D01*
X126779071Y-73177362D01*
X126525201Y-73346992D01*
X126488263Y-73362292D01*
X126243118Y-73463835D01*
X126043481Y-73503545D01*
X125943663Y-73523400D01*
X125638337Y-73523400D01*
X125538519Y-73503545D01*
X125338882Y-73463835D01*
X125093737Y-73362292D01*
X125056799Y-73346992D01*
X124802929Y-73177362D01*
X124587038Y-72961471D01*
X124417408Y-72707601D01*
X124306902Y-72440816D01*
X124300565Y-72425518D01*
X124260855Y-72225881D01*
X124241000Y-72126063D01*
X124241000Y-71820737D01*
X124260855Y-71720919D01*
X124300565Y-71521282D01*
X124417408Y-71239200D01*
X124417408Y-71239199D01*
X124587038Y-70985329D01*
X124802929Y-70769438D01*
X125056799Y-70599808D01*
X125150827Y-70560860D01*
X125338882Y-70482965D01*
X125561419Y-70438700D01*
X125638337Y-70423400D01*
X125943663Y-70423400D01*
X126020581Y-70438700D01*
X126020581Y-70438700D01*
G37*
G36*
X140874707Y-68070996D02*
X140951836Y-68078593D01*
X141083787Y-68118620D01*
X141149763Y-68138633D01*
X141332172Y-68236133D01*
X141492054Y-68367346D01*
X141623267Y-68527228D01*
X141720767Y-68709637D01*
X141720767Y-68709638D01*
X141780807Y-68907564D01*
X141801080Y-69113400D01*
X141780807Y-69319236D01*
X141740780Y-69451187D01*
X141720767Y-69517163D01*
X141623267Y-69699572D01*
X141492054Y-69859454D01*
X141332172Y-69990667D01*
X141149763Y-70088167D01*
X141083787Y-70108180D01*
X140951836Y-70148207D01*
X140874707Y-70155804D01*
X140797580Y-70163400D01*
X140694420Y-70163400D01*
X140617293Y-70155804D01*
X140540164Y-70148207D01*
X140408213Y-70108180D01*
X140342237Y-70088167D01*
X140159828Y-69990667D01*
X139999946Y-69859454D01*
X139868733Y-69699572D01*
X139771233Y-69517163D01*
X139751220Y-69451187D01*
X139711193Y-69319236D01*
X139690920Y-69113400D01*
X139711193Y-68907564D01*
X139771233Y-68709638D01*
X139771233Y-68709637D01*
X139868733Y-68527228D01*
X139999946Y-68367346D01*
X140159828Y-68236133D01*
X140342237Y-68138633D01*
X140408213Y-68118620D01*
X140540164Y-68078593D01*
X140617293Y-68070996D01*
X140694420Y-68063400D01*
X140797580Y-68063400D01*
X140874707Y-68070996D01*
X140874707Y-68070996D01*
G37*
G36*
X145954707Y-68070996D02*
X146031836Y-68078593D01*
X146163787Y-68118620D01*
X146229763Y-68138633D01*
X146412172Y-68236133D01*
X146572054Y-68367346D01*
X146703267Y-68527228D01*
X146800767Y-68709637D01*
X146800767Y-68709638D01*
X146860807Y-68907564D01*
X146881080Y-69113400D01*
X146860807Y-69319236D01*
X146820780Y-69451187D01*
X146800767Y-69517163D01*
X146703267Y-69699572D01*
X146572054Y-69859454D01*
X146412172Y-69990667D01*
X146229763Y-70088167D01*
X146163787Y-70108180D01*
X146031836Y-70148207D01*
X145954707Y-70155804D01*
X145877580Y-70163400D01*
X145774420Y-70163400D01*
X145697293Y-70155804D01*
X145620164Y-70148207D01*
X145488213Y-70108180D01*
X145422237Y-70088167D01*
X145239828Y-69990667D01*
X145079946Y-69859454D01*
X144948733Y-69699572D01*
X144851233Y-69517163D01*
X144831220Y-69451187D01*
X144791193Y-69319236D01*
X144770920Y-69113400D01*
X144791193Y-68907564D01*
X144851233Y-68709638D01*
X144851233Y-68709637D01*
X144948733Y-68527228D01*
X145079946Y-68367346D01*
X145239828Y-68236133D01*
X145422237Y-68138633D01*
X145488213Y-68118620D01*
X145620164Y-68078593D01*
X145697293Y-68070996D01*
X145774420Y-68063400D01*
X145877580Y-68063400D01*
X145954707Y-68070996D01*
X145954707Y-68070996D01*
G37*
G36*
X143414707Y-68070996D02*
X143491836Y-68078593D01*
X143623787Y-68118620D01*
X143689763Y-68138633D01*
X143872172Y-68236133D01*
X144032054Y-68367346D01*
X144163267Y-68527228D01*
X144260767Y-68709637D01*
X144260767Y-68709638D01*
X144320807Y-68907564D01*
X144341080Y-69113400D01*
X144320807Y-69319236D01*
X144280780Y-69451187D01*
X144260767Y-69517163D01*
X144163267Y-69699572D01*
X144032054Y-69859454D01*
X143872172Y-69990667D01*
X143689763Y-70088167D01*
X143623787Y-70108180D01*
X143491836Y-70148207D01*
X143414707Y-70155804D01*
X143337580Y-70163400D01*
X143234420Y-70163400D01*
X143157293Y-70155804D01*
X143080164Y-70148207D01*
X142948213Y-70108180D01*
X142882237Y-70088167D01*
X142699828Y-69990667D01*
X142539946Y-69859454D01*
X142408733Y-69699572D01*
X142311233Y-69517163D01*
X142291220Y-69451187D01*
X142251193Y-69319236D01*
X142230920Y-69113400D01*
X142251193Y-68907564D01*
X142311233Y-68709638D01*
X142311233Y-68709637D01*
X142408733Y-68527228D01*
X142539946Y-68367346D01*
X142699828Y-68236133D01*
X142882237Y-68138633D01*
X142948213Y-68118620D01*
X143080164Y-68078593D01*
X143157293Y-68070996D01*
X143234420Y-68063400D01*
X143337580Y-68063400D01*
X143414707Y-68070996D01*
X143414707Y-68070996D01*
G37*
G36*
X138334707Y-68070996D02*
X138411836Y-68078593D01*
X138543787Y-68118620D01*
X138609763Y-68138633D01*
X138792172Y-68236133D01*
X138952054Y-68367346D01*
X139083267Y-68527228D01*
X139180767Y-68709637D01*
X139180767Y-68709638D01*
X139240807Y-68907564D01*
X139261080Y-69113400D01*
X139240807Y-69319236D01*
X139200780Y-69451187D01*
X139180767Y-69517163D01*
X139083267Y-69699572D01*
X138952054Y-69859454D01*
X138792172Y-69990667D01*
X138609763Y-70088167D01*
X138543787Y-70108180D01*
X138411836Y-70148207D01*
X138334707Y-70155804D01*
X138257580Y-70163400D01*
X138154420Y-70163400D01*
X138077293Y-70155804D01*
X138000164Y-70148207D01*
X137868213Y-70108180D01*
X137802237Y-70088167D01*
X137619828Y-69990667D01*
X137459946Y-69859454D01*
X137328733Y-69699572D01*
X137231233Y-69517163D01*
X137211220Y-69451187D01*
X137171193Y-69319236D01*
X137150920Y-69113400D01*
X137171193Y-68907564D01*
X137231233Y-68709638D01*
X137231233Y-68709637D01*
X137328733Y-68527228D01*
X137459946Y-68367346D01*
X137619828Y-68236133D01*
X137802237Y-68138633D01*
X137868213Y-68118620D01*
X138000164Y-68078593D01*
X138077293Y-68070996D01*
X138154420Y-68063400D01*
X138257580Y-68063400D01*
X138334707Y-68070996D01*
X138334707Y-68070996D01*
G37*
G36*
X135794707Y-68070996D02*
X135871836Y-68078593D01*
X136003787Y-68118620D01*
X136069763Y-68138633D01*
X136252172Y-68236133D01*
X136412054Y-68367346D01*
X136543267Y-68527228D01*
X136640767Y-68709637D01*
X136640767Y-68709638D01*
X136700807Y-68907564D01*
X136721080Y-69113400D01*
X136700807Y-69319236D01*
X136660780Y-69451187D01*
X136640767Y-69517163D01*
X136543267Y-69699572D01*
X136412054Y-69859454D01*
X136252172Y-69990667D01*
X136069763Y-70088167D01*
X136003787Y-70108180D01*
X135871836Y-70148207D01*
X135794707Y-70155804D01*
X135717580Y-70163400D01*
X135614420Y-70163400D01*
X135537293Y-70155804D01*
X135460164Y-70148207D01*
X135328213Y-70108180D01*
X135262237Y-70088167D01*
X135079828Y-69990667D01*
X134919946Y-69859454D01*
X134788733Y-69699572D01*
X134691233Y-69517163D01*
X134671220Y-69451187D01*
X134631193Y-69319236D01*
X134610920Y-69113400D01*
X134631193Y-68907564D01*
X134691233Y-68709638D01*
X134691233Y-68709637D01*
X134788733Y-68527228D01*
X134919946Y-68367346D01*
X135079828Y-68236133D01*
X135262237Y-68138633D01*
X135328213Y-68118620D01*
X135460164Y-68078593D01*
X135537293Y-68070996D01*
X135614420Y-68063400D01*
X135717580Y-68063400D01*
X135794707Y-68070996D01*
X135794707Y-68070996D01*
G37*
G36*
X134176000Y-70163400D02*
X132076000Y-70163400D01*
X132076000Y-68063400D01*
X134176000Y-68063400D01*
X134176000Y-70163400D01*
X134176000Y-70163400D01*
G37*
M02*
